SplineFontDB: 3.2
FontName: Futuren0tFound
FullName: Future n0t Found Regular
FamilyName: Future n0t Found
Weight: Book
Copyright: This work is licensed under a Creative Commons Attribution 4.0 International License. | http://creativecommons.org/licenses/by/4.0/
Version: 1.3
ItalicAngle: 0
UnderlinePosition: -2
UnderlineWidth: 1
Ascent: 819
Descent: 205
InvalidEm: 0
sfntRevision: 0x00010000
LayerCount: 2
Layer: 0 1 "Back" 1
Layer: 1 1 "Fore" 0
XUID: [1021 730 72134132 28061]
StyleMap: 0x0040
FSType: 0
OS2Version: 4
OS2_WeightWidthSlopeOnly: 0
OS2_UseTypoMetrics: 0
CreationTime: 1443291566
ModificationTime: 1773810809
PfmFamily: 81
TTFWeight: 400
TTFWidth: 5
LineGap: 0
VLineGap: 0
Panose: 0 0 0 0 0 0 0 0 0 0
OS2TypoAscent: 858
OS2TypoAOffset: 0
OS2TypoDescent: -209
OS2TypoDOffset: 0
OS2TypoLinegap: 100
OS2WinAscent: 858
OS2WinAOffset: 0
OS2WinDescent: 209
OS2WinDOffset: 0
HheadAscent: 858
HheadAOffset: 0
HheadDescent: -209
HheadDOffset: 0
OS2SubXSize: 40
OS2SubYSize: 40
OS2SubXOff: 40
OS2SubYOff: 40
OS2SupXSize: 40
OS2SupYSize: 40
OS2SupXOff: 40
OS2SupYOff: 40
OS2StrikeYSize: 40
OS2StrikeYPos: 200
OS2CapHeight: 858
OS2XHeight: 858
OS2Vendor: 'Bird'
OS2CodePages: 203f00ff.dffd0000
OS2UnicodeRanges: 00000001.00000000.00000000.00000000
Lookup: 4 0 0 "'clig' Contextual Ligatures lookup 0" { "'clig' Contextual Ligatures lookup 0 subtable"  } [' RQD' ('DFLT' <'dflt' > ) 'clig' ('DFLT' <'dflt' > ) ]
Lookup: 258 0 0 "'kern' Horizontal Kerning lookup 0" { "'kern' Horizontal Kerning lookup 0 subtable"  } [' RQD' ('DFLT' <'dflt' > ) 'kern' ('DFLT' <'dflt' > ) ]
MarkAttachClasses: 1
DEI: 91125
ShortTable: maxp 16
  1
  0
  239
  206
  5
  0
  0
  1
  0
  0
  0
  0
  0
  0
  0
  0
EndShort
LangName: 1033 "" "" "Regular" "Future n0t Found Regular:Ve" "" "Version 1.1" "" "" "" "" "Designed by Michael Moss | whitespirals.com | Created using Birdfont by Johan Mattsson | http://birdfont.org/ | 9/25/2015" "" "" "" "" "" "Future n0t Found" "Regular"
GaspTable: 1 65535 2 0

StartChar: .notdef
Encoding: 1114112 -1 0
Width: 543
GlyphClass: 1
Flags: W
LayerCount: 2
Fore
SplineSet
51 102 m 1,0,1
 154 102 154 102 358 102 c 1,2,3
 358 273 358 273 358 615 c 1,4,5
 256 615 256 615 51 615 c 1,6,7
 51 572 51 572 51 486 c 0,8,9
 51 358 51 358 51 102 c 1,0,1
0 666 m 1,10,11
 137 666 137 666 410 666 c 1,12,13
 410 461 410 461 410 51 c 1,14,15
 341 51 341 51 204 51 c 0,16,17
 136 51 136 51 0 51 c 1,18,19
 0 256 0 256 0 666 c 1,10,11
EndSplineSet
Validated: 1
EndChar

StartChar: exclam
Encoding: 33 33 4
Width: 205
GlyphClass: 1
Flags: W
LayerCount: 2
Fore
SplineSet
48 717 m 5,0,1
 48 717 48 717 154 717 c 5,2,3
 154 717 154 717 154 139 c 5,4,5
 154 139 154 139 48 139 c 5,6,7
 48 139 48 139 48 717 c 5,0,1
48 84 m 5,8,9
 48 84 48 84 154 84 c 5,10,11
 154 84 154 84 154 0 c 5,12,13
 154 0 154 0 48 0 c 5,14,15
 48 0 48 0 48 84 c 5,8,9
EndSplineSet
Validated: 1
EndChar

StartChar: quotedbl
Encoding: 34 34 5
Width: 348
GlyphClass: 1
Flags: W
LayerCount: 2
Fore
SplineSet
42 451 m 5,0,1
 42 451 42 451 42 717 c 5,2,3
 42 717 42 717 133 717 c 5,4,5
 133 717 133 717 133 451 c 5,6,7
 133 451 133 451 42 451 c 5,0,1
219 450 m 5,8,9
 219 450 219 450 219 717 c 5,10,11
 219 717 219 717 310 717 c 5,12,13
 310 717 310 717 310 450 c 5,14,15
 310 450 310 450 219 450 c 5,8,9
EndSplineSet
Validated: 1
EndChar

StartChar: numbersign
Encoding: 35 35 6
Width: 696
GlyphClass: 1
Flags: W
LayerCount: 2
Fore
SplineSet
655 465 m 5,0,1
 655 465 655 465 515 465 c 5,2,3
 515 465 515 465 515 356 c 5,4,5
 515 356 515 356 655 356 c 5,6,7
 655 356 655 356 655 243 c 5,8,9
 655 243 655 243 515 243 c 5,10,11
 515 243 515 243 515 103 c 5,12,13
 515 103 515 103 402 103 c 5,14,15
 402 103 402 103 402 243 c 5,16,17
 402 243 402 243 294 243 c 5,18,19
 294 243 294 243 294 103 c 5,20,21
 294 103 294 103 181 103 c 5,22,23
 181 103 181 103 181 243 c 5,24,25
 181 243 181 243 41 243 c 5,26,27
 41 243 41 243 41 356 c 5,28,29
 41 356 41 356 181 356 c 5,30,31
 181 356 181 356 181 465 c 5,32,33
 181 465 181 465 41 465 c 5,34,35
 41 465 41 465 41 577 c 5,36,37
 41 577 41 577 181 577 c 5,38,39
 181 577 181 577 181 717 c 5,40,41
 181 717 181 717 294 717 c 5,42,43
 294 717 294 717 294 577 c 5,44,45
 294 577 294 577 402 577 c 5,46,47
 402 577 402 577 402 717 c 5,48,49
 402 717 402 717 515 717 c 5,50,51
 515 717 515 717 515 577 c 5,52,53
 515 577 515 577 655 577 c 5,54,55
 655 577 655 577 655 465 c 5,0,1
402 356 m 5,56,57
 402 356 402 356 402 465 c 5,58,59
 402 465 402 465 294 465 c 5,60,61
 294 465 294 465 294 356 c 5,62,63
 294 356 294 356 402 356 c 5,56,57
EndSplineSet
Validated: 1
EndChar

StartChar: dollar
Encoding: 36 36 7
Width: 410
GlyphClass: 1
Flags: W
LayerCount: 2
Fore
SplineSet
123 392 m 5,0,1
 123 392 123 392 167 392 c 5,2,3
 167 392 167 392 167 560 c 5,4,5
 152 541 152 541 123 502 c 5,6,7
 123 502 123 502 123 392 c 5,0,1
286 323 m 5,8,9
 286 323 286 323 249 323 c 5,10,11
 249 323 249 323 249 180 c 5,12,13
 261 196 261 196 286 229 c 5,14,15
 286 229 286 229 286 323 c 5,8,9
366 575 m 5,16,17
 366 575 366 575 249 575 c 5,18,19
 249 575 249 575 249 392 c 5,20,21
 249 392 249 392 366 392 c 5,22,23
 366 392 366 392 366 209 c 5,24,25
 334 169 334 169 270 88 c 5,26,27
 270 88 270 88 249 88 c 5,28,29
 249 88 249 88 249 2 c 5,30,31
 249 2 249 2 167 2 c 5,32,33
 167 2 167 2 167 88 c 5,34,35
 167 88 167 88 43 88 c 5,36,37
 43 88 43 88 43 156 c 5,38,39
 43 156 43 156 167 156 c 5,40,41
 167 156 167 156 167 323 c 5,42,43
 167 323 167 323 43 323 c 5,44,45
 43 323 43 323 43 522 c 5,46,47
 75 562 75 562 139 643 c 5,48,49
 139 643 139 643 167 643 c 5,50,51
 167 643 167 643 167 719 c 5,52,53
 167 719 167 719 249 719 c 5,54,55
 249 719 249 719 249 643 c 5,56,57
 249 643 249 643 366 643 c 5,58,59
 366 643 366 643 366 575 c 5,16,17
EndSplineSet
EndChar

StartChar: percent
Encoding: 37 37 8
Width: 532
GlyphClass: 1
Flags: W
LayerCount: 2
Fore
SplineSet
485 716 m 5,0,-1
 485 565 l 5,1,2
 376 424 376 424 49 0 c 5,3,4
 49 0 49 0 49 163 c 5,5,6
 158 301 158 301 485 716 c 5,0,-1
302 165 m 5,7,8
 302 165 302 165 302 44 c 5,9,10
 302 44 302 44 397 44 c 5,11,12
 409 60 409 60 433 90 c 5,13,14
 433 90 433 90 433 244 c 5,15,16
 433 244 433 244 365 244 c 5,17,18
 344 217 344 217 302 165 c 5,7,8
250 1 m 5,19,20
 250 1 250 1 250 173 c 5,21,22
 279 211 279 211 339 288 c 5,23,24
 339 288 339 288 485 288 c 5,25,26
 485 288 485 288 485 81 c 5,27,28
 464 54 464 54 422 1 c 5,29,30
 422 1 422 1 250 1 c 5,19,20
101 595 m 5,31,32
 101 595 101 595 101 474 c 5,33,34
 101 474 101 474 196 474 c 5,35,36
 208 489 208 489 232 520 c 5,37,38
 232 520 232 520 232 674 c 5,39,40
 232 674 232 674 164 674 c 5,41,42
 143 647 143 647 101 595 c 5,31,32
49 431 m 5,43,44
 49 431 49 431 49 603 c 5,45,46
 78 641 78 641 138 717 c 5,47,48
 138 717 138 717 284 717 c 5,49,50
 284 717 284 717 284 511 c 5,51,52
 263 484 263 484 221 431 c 5,53,54
 221 431 221 431 49 431 c 5,43,44
EndSplineSet
Validated: 1
EndChar

StartChar: ampersand
Encoding: 38 38 9
Width: 512
GlyphClass: 1
Flags: W
LayerCount: 2
Fore
SplineSet
172 411 m 5,0,1
 231 484 231 484 347 629 c 5,2,3
 347 629 347 629 153 629 c 5,4,5
 153 629 153 629 153 436 c 5,6,7
 159 428 159 428 172 411 c 5,0,1
307 89 m 5,8,9
 262 146 262 146 171 260 c 5,10,11
 165 253 165 253 153 237 c 5,12,13
 153 237 153 237 153 89 c 5,14,15
 153 89 153 89 307 89 c 5,8,9
465 336 m 5,16,17
 465 336 465 336 465 1 c 5,18,19
 465 1 465 1 47 1 c 5,20,21
 47 1 47 1 47 256 c 5,22,23
 68 283 68 283 111 336 c 5,24,25
 90 363 90 363 47 417 c 5,26,27
 47 417 47 417 47 717 c 5,28,29
 47 717 47 717 465 717 c 5,30,31
 465 717 465 717 465 629 c 5,32,33
 387 531 387 531 231 336 c 5,34,35
 274 281 274 281 359 172 c 5,36,37
 359 172 359 172 359 336 c 5,38,39
 359 336 359 336 465 336 c 5,16,17
EndSplineSet
Validated: 1
EndChar

StartChar: quotesingle
Encoding: 39 39 10
Width: 205
GlyphClass: 1
Flags: W
LayerCount: 2
Fore
SplineSet
65 451 m 5,0,1
 65 451 65 451 65 717 c 5,2,3
 65 717 65 717 157 717 c 5,4,5
 157 717 157 717 157 451 c 5,6,7
 157 451 157 451 65 451 c 5,0,1
EndSplineSet
Validated: 1
EndChar

StartChar: parenleft
Encoding: 40 40 11
Width: 389
GlyphClass: 1
Flags: W
LayerCount: 2
Fore
SplineSet
49 159 m 5,0,1
 49 159 49 159 49 559 c 5,2,3
 144 678 144 678 175 718 c 5,4,5
 175 718 175 718 345 718 c 5,6,7
 345 718 345 718 345 629 c 5,8,9
 345 629 345 629 226 629 c 5,10,11
 172 557 172 557 154 534 c 5,12,13
 154 534 154 534 154 185 c 5,14,15
 208 114 208 114 226 90 c 5,16,17
 226 90 226 90 345 90 c 5,18,19
 345 90 345 90 345 1 c 5,20,21
 345 1 345 1 175 1 c 5,22,23
 81 120 81 120 49 159 c 5,0,1
EndSplineSet
EndChar

StartChar: parenright
Encoding: 41 41 12
Width: 389
GlyphClass: 1
Flags: W
LayerCount: 2
Fore
SplineSet
342 160 m 5,0,1
 247 41 247 41 216 1 c 5,2,3
 216 1 216 1 46 1 c 5,4,5
 46 1 46 1 46 90 c 5,6,7
 46 90 46 90 165 90 c 5,8,9
 219 161 219 161 237 185 c 5,10,11
 237 185 237 185 237 534 c 5,12,13
 183 605 183 605 165 629 c 5,14,15
 165 629 165 629 46 629 c 5,16,17
 46 629 46 629 46 718 c 5,18,19
 46 718 46 718 216 718 c 5,20,21
 310 599 310 599 342 560 c 5,22,23
 342 560 342 560 342 160 c 5,0,1
EndSplineSet
Validated: 1
EndChar

StartChar: asterisk
Encoding: 42 42 13
Width: 491
GlyphClass: 1
Flags: W
LayerCount: 2
Fore
SplineSet
333 494 m 5,0,1
 391 396 391 396 410 364 c 5,2,3
 334 319 334 319 309 304 c 5,4,5
 262 384 262 384 246 411 c 5,6,7
 199 331 199 331 183 304 c 5,8,9
 107 349 107 349 82 364 c 5,10,11
 140 461 140 461 159 494 c 5,12,13
 71 524 71 524 41 534 c 5,14,15
 70 617 70 617 79 645 c 5,16,17
 160 617 160 617 187 608 c 5,18,19
 187 608 187 608 187 718 c 5,20,21
 187 718 187 718 305 718 c 5,22,23
 305 718 305 718 305 608 c 5,24,25
 386 636 386 636 413 645 c 5,26,27
 441 562 441 562 451 534 c 5,28,29
 362 504 362 504 333 494 c 5,0,1
EndSplineSet
EndChar

StartChar: plus
Encoding: 43 43 14
Width: 471
GlyphClass: 1
Flags: W
LayerCount: 2
Fore
SplineSet
430 315 m 5,0,1
 430 315 430 315 289 315 c 5,2,3
 289 315 289 315 289 175 c 5,4,5
 289 175 289 175 179 175 c 5,6,7
 179 175 179 175 179 315 c 5,8,9
 179 315 179 315 38 315 c 5,10,11
 38 315 38 315 38 420 c 5,12,13
 38 420 38 420 179 420 c 5,14,15
 179 420 179 420 179 561 c 5,16,17
 179 561 179 561 289 561 c 5,18,19
 289 561 289 561 289 420 c 5,20,21
 289 420 289 420 430 420 c 5,22,23
 430 420 430 420 430 315 c 5,0,1
EndSplineSet
Validated: 1
EndChar

StartChar: comma
Encoding: 44 44 15
Width: 266
GlyphClass: 1
Flags: W
LayerCount: 2
Fore
SplineSet
43 -148 m 5,0,1
 43 -148 43 -148 -65 -148 c 5,2,3
 -20 -86 -20 -86 117 102 c 5,4,5
 117 102 117 102 225 102 c 5,6,7
 179 39 179 39 43 -148 c 5,0,1
EndSplineSet
Validated: 1
EndChar

StartChar: hyphen
Encoding: 45 45 16
Width: 491
GlyphClass: 1
Flags: W
LayerCount: 2
Fore
SplineSet
449 415 m 5,0,1
 449 415 449 415 449 318 c 5,2,3
 449 318 449 318 40 318 c 5,4,5
 40 318 40 318 40 415 c 5,6,7
 40 415 40 415 449 415 c 5,0,1
EndSplineSet
EndChar

StartChar: period
Encoding: 46 46 17
Width: 205
GlyphClass: 1
Flags: W
LayerCount: 2
Fore
SplineSet
48 84 m 5,0,1
 48 84 48 84 154 84 c 5,2,3
 154 84 154 84 154 0 c 5,4,5
 154 0 154 0 48 0 c 5,6,7
 48 0 48 0 48 84 c 5,0,1
EndSplineSet
EndChar

StartChar: slash
Encoding: 47 47 18
Width: 512
GlyphClass: 1
Flags: W
LayerCount: 2
Fore
SplineSet
477 717 m 5,0,1
 477 717 477 717 477 566 c 5,2,3
 367 425 367 425 40 0 c 5,4,5
 40 0 40 0 40 164 c 5,6,7
 149 302 149 302 477 717 c 5,0,1
EndSplineSet
EndChar

StartChar: zero
Encoding: 48 48 19
Width: 573
GlyphClass: 1
Flags: W
LayerCount: 2
Fore
SplineSet
506 717 m 5,0,1
 506 717 506 717 506 159 c 5,2,3
 473 119 473 119 373 0 c 5,4,5
 373 0 373 0 66 0 c 5,6,7
 66 0 66 0 66 491 c 5,8,9
 113 548 113 548 256 717 c 5,10,11
 256 717 256 717 506 717 c 5,0,1
177 483 m 5,12,13
 177 483 177 483 177 304 c 5,14,15
 232 368 232 368 395 561 c 5,16,17
 395 561 395 561 395 640 c 5,18,19
 395 640 395 640 309 640 c 5,20,21
 276 600 276 600 177 483 c 5,12,13
395 185 m 5,22,23
 395 185 395 185 395 411 c 5,24,25
 341 347 341 347 177 156 c 5,26,27
 177 156 177 156 177 95 c 5,28,29
 177 95 177 95 320 95 c 5,30,31
 339 118 339 118 395 185 c 5,22,23
EndSplineSet
EndChar

StartChar: one
Encoding: 49 49 20
Width: 553
GlyphClass: 1
Flags: W
LayerCount: 2
Fore
SplineSet
67 0 m 5,0,1
 67 0 67 0 67 84 c 5,2,3
 67 84 67 84 225 84 c 5,4,5
 225 84 225 84 225 578 c 5,6,7
 225 578 225 578 165 490 c 5,8,9
 165 490 165 490 67 490 c 5,10,11
 67 490 67 490 67 578 c 5,12,13
 67 578 67 578 115 578 c 5,14,15
 142 613 142 613 225 717 c 5,16,17
 225 717 225 717 331 717 c 5,18,19
 331 717 331 717 331 84 c 5,20,21
 331 84 331 84 485 84 c 5,22,23
 485 84 485 84 485 0 c 5,24,25
 485 0 485 0 67 0 c 5,0,1
EndSplineSet
EndChar

StartChar: two
Encoding: 50 50 21
Width: 553
GlyphClass: 1
Flags: W
LayerCount: 2
Fore
SplineSet
486 464 m 5,0,1
 413 369 413 369 192 84 c 5,2,3
 192 84 192 84 486 84 c 5,4,5
 486 84 486 84 486 0 c 5,6,7
 486 0 486 0 68 0 c 5,8,9
 68 0 68 0 68 85 c 5,10,11
 146 185 146 185 382 484 c 5,12,13
 382 484 382 484 382 633 c 5,14,15
 382 633 382 633 68 633 c 5,16,17
 68 633 68 633 68 717 c 5,18,19
 68 717 68 717 486 717 c 5,20,21
 486 717 486 717 486 464 c 5,0,1
EndSplineSet
EndChar

StartChar: three
Encoding: 51 51 22
Width: 552
GlyphClass: 1
Flags: W
LayerCount: 2
Fore
SplineSet
486 717 m 5,0,1
 486 717 486 717 486 417 c 5,2,3
 470 397 470 397 422 336 c 5,4,5
 422 336 422 336 486 256 c 5,6,7
 486 256 486 256 486 0 c 5,8,9
 486 0 486 0 68 0 c 5,10,11
 68 0 68 0 68 88 c 5,12,13
 68 88 68 88 380 88 c 5,14,15
 380 88 380 88 380 237 c 5,16,17
 363 259 363 259 312 324 c 5,18,19
 312 324 312 324 68 324 c 5,20,21
 68 324 68 324 68 412 c 5,22,23
 68 412 68 412 362 412 c 5,24,25
 367 418 367 418 380 436 c 5,26,27
 380 436 380 436 380 629 c 5,28,29
 380 629 380 629 68 629 c 5,30,31
 68 629 68 629 68 717 c 5,32,33
 68 717 68 717 486 717 c 5,0,1
EndSplineSet
EndChar

StartChar: four
Encoding: 52 52 23
Width: 552
GlyphClass: 1
Flags: W
LayerCount: 2
Fore
SplineSet
384 718 m 5,0,1
 384 718 384 718 384 414 c 5,2,3
 384 414 384 414 487 414 c 5,4,5
 487 414 487 414 487 325 c 5,6,7
 487 325 487 325 384 325 c 5,8,9
 384 325 384 325 384 0 c 5,10,11
 384 0 384 0 282 0 c 5,12,13
 282 0 282 0 282 325 c 5,14,15
 282 325 282 325 65 325 c 5,16,17
 65 325 65 325 65 717 c 5,18,19
 65 717 65 717 167 717 c 5,20,21
 167 717 167 717 167 413 c 5,22,23
 167 413 167 413 282 413 c 5,24,25
 282 413 282 413 282 717 c 5,26,27
 282 717 282 717 384 718 c 5,0,1
EndSplineSet
EndChar

StartChar: five
Encoding: 53 53 24
Width: 553
GlyphClass: 1
Flags: W
LayerCount: 2
Fore
SplineSet
173 629 m 5,0,1
 173 629 173 629 173 392 c 5,2,3
 173 392 173 392 486 392 c 5,4,5
 486 392 486 392 486 157 c 5,6,7
 455 118 455 118 362 0 c 5,8,9
 362 0 362 0 70 0 c 5,10,11
 70 0 70 0 70 88 c 5,12,13
 70 88 70 88 312 88 c 5,14,15
 330 112 330 112 384 183 c 5,16,17
 384 183 384 183 384 304 c 5,18,19
 384 304 384 304 70 304 c 5,20,21
 70 304 70 304 70 717 c 5,22,23
 70 717 70 717 486 717 c 5,24,25
 486 717 486 717 486 629 c 5,26,27
 486 629 486 629 173 629 c 5,0,1
EndSplineSet
EndChar

StartChar: six
Encoding: 54 54 25
Width: 553
GlyphClass: 1
Flags: W
LayerCount: 2
Fore
SplineSet
173 304 m 5,0,1
 173 304 173 304 173 88 c 5,2,3
 173 88 173 88 312 88 c 5,4,5
 330 112 330 112 384 183 c 5,6,7
 384 183 384 183 384 304 c 5,8,9
 384 304 384 304 173 304 c 5,0,1
70 717 m 5,10,11
 70 717 70 717 486 717 c 5,12,13
 486 717 486 717 486 629 c 5,14,15
 486 629 486 629 173 629 c 5,16,17
 173 629 173 629 173 392 c 5,18,19
 173 392 173 392 486 392 c 5,20,21
 486 392 486 392 486 157 c 5,22,23
 455 118 455 118 362 0 c 5,24,25
 362 0 362 0 70 0 c 5,26,27
 70 0 70 0 70 717 c 5,10,11
EndSplineSet
EndChar

StartChar: seven
Encoding: 55 55 26
Width: 553
GlyphClass: 1
Flags: W
LayerCount: 2
Fore
SplineSet
486 541 m 5,0,1
 408 439 408 439 173 133 c 5,2,3
 173 133 173 133 173 0 c 5,4,5
 173 0 173 0 67 0 c 5,6,7
 67 0 67 0 67 164 c 5,8,9
 146 263 146 263 381 561 c 5,10,11
 381 561 381 561 381 633 c 5,12,13
 381 633 381 633 67 633 c 5,14,15
 67 633 67 633 67 717 c 5,16,17
 67 717 67 717 486 717 c 5,18,19
 486 717 486 717 486 541 c 5,0,1
EndSplineSet
EndChar

StartChar: eight
Encoding: 56 56 27
Width: 553
GlyphClass: 1
Flags: W
LayerCount: 2
Fore
SplineSet
379 88 m 5,0,1
 379 88 379 88 379 226 c 5,2,3
 361 248 361 248 307 312 c 5,4,5
 307 312 307 312 171 312 c 5,6,7
 171 312 171 312 171 88 c 5,8,9
 171 88 171 88 379 88 c 5,0,1
171 629 m 5,10,11
 171 629 171 629 171 492 c 5,12,13
 171 492 171 492 243 400 c 5,14,15
 243 400 243 400 379 400 c 5,16,17
 379 400 379 400 379 629 c 5,18,19
 379 629 379 629 171 629 c 5,10,11
485 244 m 5,20,21
 485 244 485 244 485 0 c 5,22,23
 485 0 485 0 65 0 c 5,24,25
 65 0 65 0 65 400 c 5,26,27
 65 400 65 400 123 400 c 5,28,29
 108 419 108 419 65 473 c 5,30,31
 65 473 65 473 65 717 c 5,32,33
 65 717 65 717 485 717 c 5,34,35
 485 717 485 717 485 312 c 5,36,37
 485 312 485 312 430 312 c 5,38,39
 444 295 444 295 485 244 c 5,20,21
EndSplineSet
EndChar

StartChar: nine
Encoding: 57 57 28
Width: 553
GlyphClass: 1
Flags: W
LayerCount: 2
Fore
SplineSet
384 413 m 5,0,1
 384 413 384 413 384 629 c 5,2,3
 384 629 384 629 244 629 c 5,4,5
 226 606 226 606 172 536 c 5,6,7
 172 536 172 536 172 413 c 5,8,9
 172 413 172 413 384 413 c 5,0,1
384 0 m 5,10,11
 384 0 384 0 384 325 c 5,12,13
 384 325 384 325 70 325 c 5,14,15
 70 325 70 325 70 561 c 5,16,17
 70 561 70 561 194 717 c 5,18,19
 194 717 194 717 486 717 c 5,20,21
 486 717 486 717 486 0 c 5,22,23
 486 0 486 0 384 0 c 5,10,11
EndSplineSet
EndChar

StartChar: colon
Encoding: 58 58 29
Width: 205
GlyphClass: 1
Flags: W
LayerCount: 2
Fore
SplineSet
162 145 m 5,0,1
 162 145 162 145 162 43 c 5,2,3
 162 43 162 43 39 43 c 5,4,5
 39 43 39 43 39 145 c 5,6,7
 39 145 39 145 162 145 c 5,0,1
39 408 m 5,8,9
 39 408 39 408 39 510 c 5,10,11
 39 510 39 510 162 510 c 5,12,13
 162 510 162 510 162 408 c 5,14,15
 162 408 162 408 39 408 c 5,8,9
EndSplineSet
EndChar

StartChar: semicolon
Encoding: 59 59 30
Width: 348
GlyphClass: 1
Flags: W
LayerCount: 2
Fore
SplineSet
176 144 m 5,0,1
 176 144 176 144 302 144 c 5,2,3
 160 -50 160 -50 90 -147 c 5,4,5
 90 -147 90 -147 -36 -147 c 5,6,7
 105 47 105 47 176 144 c 5,0,1
179 408 m 5,8,9
 179 408 179 408 179 510 c 5,10,11
 179 510 179 510 302 510 c 5,12,13
 302 510 302 510 302 408 c 5,14,15
 302 408 302 408 179 408 c 5,8,9
EndSplineSet
EndChar

StartChar: less
Encoding: 60 60 31
Width: 492
GlyphClass: 1
Flags: W
LayerCount: 2
Fore
SplineSet
299 717 m 5,0,1
 299 717 299 717 453 717 c 5,2,3
 258 448 258 448 193 358 c 5,4,5
 388 90 388 90 453 0 c 5,6,7
 453 0 453 0 298 0 c 5,8,9
 103 269 103 269 38 358 c 5,10,11
 234 627 234 627 299 717 c 5,0,1
EndSplineSet
EndChar

StartChar: equal
Encoding: 61 61 32
Width: 471
GlyphClass: 1
Flags: W
LayerCount: 2
Fore
SplineSet
430 415 m 5,0,1
 430 415 430 415 41 415 c 5,2,3
 41 415 41 415 41 510 c 5,4,5
 41 510 41 510 430 510 c 5,6,7
 430 510 430 510 430 415 c 5,0,1
430 195 m 5,8,9
 430 195 430 195 41 195 c 5,10,11
 41 195 41 195 41 289 c 5,12,13
 41 289 41 289 430 289 c 5,14,15
 430 289 430 289 430 195 c 5,8,9
EndSplineSet
EndChar

StartChar: greater
Encoding: 62 62 33
Width: 512
GlyphClass: 1
Flags: W
LayerCount: 2
Fore
SplineSet
471 358 m 5,0,1
 406 269 406 269 211 0 c 5,2,3
 211 0 211 0 56 0 c 5,4,5
 121 90 121 90 316 358 c 5,6,7
 251 448 251 448 56 717 c 5,8,9
 56 717 56 717 211 717 c 5,10,11
 276 627 276 627 471 358 c 5,0,1
EndSplineSet
EndChar

StartChar: question
Encoding: 63 63 34
Width: 512
GlyphClass: 1
Flags: W
LayerCount: 2
Fore
SplineSet
465 717 m 5,0,1
 465 717 465 717 465 549 c 5,2,3
 387 467 387 467 153 223 c 5,4,5
 153 223 153 223 153 139 c 5,6,7
 153 139 153 139 47 139 c 5,8,9
 47 139 47 139 47 223 c 5,10,11
 125 305 125 305 361 549 c 5,12,13
 361 549 361 549 361 633 c 5,14,15
 361 633 361 633 153 633 c 5,16,17
 153 633 153 633 153 549 c 5,18,19
 153 549 153 549 47 549 c 5,20,21
 47 549 47 549 47 717 c 5,22,23
 47 717 47 717 465 717 c 5,0,1
47 84 m 5,24,25
 47 84 47 84 153 84 c 5,26,27
 153 84 153 84 153 0 c 5,28,29
 153 0 153 0 47 0 c 5,30,31
 47 0 47 0 47 84 c 5,24,25
EndSplineSet
EndChar

StartChar: at
Encoding: 64 64 35
Width: 699
GlyphClass: 1
Flags: W
LayerCount: 2
Fore
SplineSet
344 200 m 5,0,1
 412 287 412 287 435 316 c 5,2,3
 435 316 435 316 264 316 c 5,4,5
 264 316 264 316 264 200 c 5,6,7
 264 200 264 200 344 200 c 5,0,1
577 188 m 5,8,9
 577 188 577 188 577 648 c 5,10,11
 577 648 577 648 126 648 c 5,12,13
 126 648 126 648 126 70 c 5,14,15
 126 70 126 70 665 70 c 5,16,17
 665 70 665 70 665 0 c 5,18,19
 665 0 665 0 38 0 c 5,20,21
 38 0 38 0 38 717 c 5,22,23
 38 717 38 717 665 717 c 5,24,25
 665 717 665 717 665 127 c 5,26,27
 665 127 665 127 435 127 c 5,28,29
 435 127 435 127 435 188 c 5,30,31
 398 142 398 142 386 127 c 5,32,33
 386 127 386 127 176 127 c 5,34,35
 176 127 176 127 176 384 c 5,36,37
 176 384 176 384 435 384 c 5,38,39
 435 384 435 384 435 520 c 5,40,41
 435 520 435 520 176 520 c 5,42,43
 176 520 176 520 176 589 c 5,44,45
 176 589 176 589 523 589 c 5,46,47
 523 589 523 589 523 188 c 5,48,49
 523 188 523 188 577 188 c 5,8,9
EndSplineSet
EndChar

StartChar: A
Encoding: 65 65 36
Width: 553
GlyphClass: 1
Flags: W
LayerCount: 2
Fore
SplineSet
380 401 m 5,0,1
 380 401 380 401 380 629 c 5,2,3
 380 629 380 629 283 629 c 5,4,5
 256 595 256 595 173 490 c 5,6,7
 173 490 173 490 173 401 c 5,8,9
 173 401 173 401 380 401 c 5,0,1
232 717 m 5,10,11
 232 717 232 717 486 717 c 5,12,13
 486 717 486 717 486 0 c 5,14,15
 486 0 486 0 380 0 c 5,16,17
 380 0 380 0 380 312 c 5,18,19
 380 312 380 312 173 312 c 5,20,21
 173 312 173 312 173 0 c 5,22,23
 173 0 173 0 67 0 c 5,24,25
 67 0 67 0 67 507 c 5,26,27
 109 559 109 559 232 717 c 5,10,11
EndSplineSet
EndChar

StartChar: B
Encoding: 66 66 37
Width: 553
GlyphClass: 1
Flags: W
LayerCount: 2
Fore
SplineSet
172 629 m 5,0,1
 172 629 172 629 172 404 c 5,2,3
 172 404 172 404 382 404 c 5,4,5
 382 404 382 404 382 542 c 5,6,7
 364 564 364 564 309 629 c 5,8,9
 309 629 309 629 172 629 c 5,0,1
382 228 m 5,10,11
 364 249 364 249 309 315 c 5,12,13
 309 315 309 315 172 315 c 5,14,15
 172 315 172 315 172 89 c 5,16,17
 172 89 172 89 382 89 c 5,18,19
 382 89 382 89 382 228 c 5,10,11
65 717 m 5,20,21
 65 717 65 717 354 717 c 5,22,23
 388 678 388 678 488 560 c 5,24,25
 488 560 488 560 488 315 c 5,26,27
 488 315 488 315 430 315 c 5,28,29
 445 297 445 297 488 246 c 5,30,31
 488 246 488 246 488 0 c 5,32,33
 488 0 488 0 65 0 c 5,34,35
 65 0 65 0 65 717 c 5,20,21
EndSplineSet
EndChar

StartChar: C
Encoding: 67 67 38
Width: 553
GlyphClass: 1
Flags: W
LayerCount: 2
Fore
SplineSet
68 561 m 5,0,1
 68 561 68 561 192 717 c 5,2,3
 192 717 192 717 487 717 c 5,4,5
 487 717 487 717 487 629 c 5,6,7
 487 629 487 629 243 629 c 5,8,9
 226 608 226 608 174 543 c 5,10,11
 174 543 174 543 174 88 c 5,12,13
 174 88 174 88 487 88 c 5,14,15
 487 88 487 88 487 0 c 5,16,17
 487 0 487 0 68 0 c 5,18,19
 68 0 68 0 68 561 c 5,0,1
EndSplineSet
EndChar

StartChar: D
Encoding: 68 68 39
Width: 553
GlyphClass: 1
Flags: W
LayerCount: 2
Fore
SplineSet
381 538 m 5,0,1
 363 561 363 561 309 629 c 5,2,3
 309 629 309 629 173 629 c 5,4,5
 173 629 173 629 173 88 c 5,6,7
 173 88 173 88 309 88 c 5,8,9
 309 88 309 88 381 180 c 5,10,11
 381 180 381 180 381 538 c 5,0,1
67 717 m 5,12,13
 67 717 67 717 359 717 c 5,14,15
 391 677 391 677 487 556 c 5,16,17
 487 556 487 556 487 161 c 5,18,19
 455 121 455 121 359 0 c 5,20,21
 359 0 359 0 67 0 c 5,22,23
 67 0 67 0 67 717 c 5,12,13
EndSplineSet
EndChar

StartChar: E
Encoding: 69 69 40
Width: 553
GlyphClass: 1
Flags: W
LayerCount: 2
Fore
SplineSet
175 543 m 5,0,1
 175 543 175 543 175 412 c 5,2,3
 175 412 175 412 487 412 c 5,4,5
 487 412 487 412 487 324 c 5,6,7
 487 324 487 324 175 324 c 5,8,9
 175 324 175 324 175 88 c 5,10,11
 175 88 175 88 487 88 c 5,12,13
 487 88 487 88 487 0 c 5,14,15
 487 0 487 0 69 0 c 5,16,17
 69 0 69 0 69 561 c 5,18,19
 69 561 69 561 193 717 c 5,20,21
 193 717 193 717 487 717 c 5,22,23
 487 717 487 717 487 629 c 5,24,25
 487 629 487 629 243 629 c 5,26,27
 226 608 226 608 175 543 c 5,0,1
EndSplineSet
EndChar

StartChar: F
Encoding: 70 70 41
Width: 553
GlyphClass: 1
Flags: W
LayerCount: 2
Fore
SplineSet
70 0 m 5,0,1
 70 0 70 0 70 561 c 5,2,3
 70 561 70 561 194 717 c 5,4,5
 194 717 194 717 488 717 c 5,6,7
 488 717 488 717 488 629 c 5,8,9
 488 629 488 629 244 629 c 5,10,11
 227 608 227 608 176 543 c 5,12,13
 176 543 176 543 176 412 c 5,14,15
 176 412 176 412 488 412 c 5,16,17
 488 412 488 412 488 324 c 5,18,19
 488 324 488 324 176 324 c 5,20,21
 176 324 176 324 176 0 c 5,22,23
 176 0 176 0 70 0 c 5,0,1
EndSplineSet
EndChar

StartChar: G
Encoding: 71 71 42
Width: 553
GlyphClass: 1
Flags: W
LayerCount: 2
Fore
SplineSet
174 543 m 5,0,1
 174 543 174 543 174 88 c 5,2,3
 174 88 174 88 309 88 c 5,4,5
 327 111 327 111 380 180 c 5,6,7
 380 180 380 180 380 324 c 5,8,9
 380 324 380 324 281 324 c 5,10,11
 281 324 281 324 281 412 c 5,12,13
 281 412 281 412 486 412 c 5,14,15
 486 412 486 412 486 161 c 5,16,17
 455 121 455 121 359 0 c 5,18,19
 359 0 359 0 68 0 c 5,20,21
 68 0 68 0 68 561 c 5,22,23
 68 561 68 561 192 717 c 5,24,25
 192 717 192 717 486 717 c 5,26,27
 486 717 486 717 486 629 c 5,28,29
 486 629 486 629 242 629 c 5,30,31
 225 608 225 608 174 543 c 5,0,1
EndSplineSet
EndChar

StartChar: H
Encoding: 72 72 43
Width: 553
GlyphClass: 1
Flags: W
LayerCount: 2
Fore
SplineSet
173 1 m 5,0,1
 173 1 173 1 67 1 c 5,2,3
 67 1 67 1 67 718 c 5,4,5
 67 718 67 718 173 718 c 5,6,7
 173 718 173 718 173 401 c 5,8,9
 173 401 173 401 381 401 c 5,10,11
 381 401 381 401 381 718 c 5,12,13
 381 718 381 718 487 718 c 5,14,15
 487 718 487 718 487 1 c 5,16,17
 487 1 487 1 381 1 c 5,18,19
 381 1 381 1 381 313 c 5,20,21
 381 313 381 313 173 313 c 5,22,23
 173 313 173 313 173 1 c 5,0,1
EndSplineSet
EndChar

StartChar: I
Encoding: 73 73 44
Width: 553
GlyphClass: 1
Flags: W
LayerCount: 2
Fore
SplineSet
488 717 m 5,0,1
 488 717 488 717 488 633 c 5,2,3
 488 633 488 633 333 633 c 5,4,5
 333 633 333 633 333 84 c 5,6,7
 333 84 333 84 488 84 c 5,8,9
 488 84 488 84 488 0 c 5,10,11
 488 0 488 0 69 0 c 5,12,13
 69 0 69 0 69 84 c 5,14,15
 69 84 69 84 227 84 c 5,16,17
 227 84 227 84 227 633 c 5,18,19
 227 633 227 633 69 633 c 5,20,21
 69 633 69 633 69 717 c 5,22,23
 69 717 69 717 488 717 c 5,0,1
EndSplineSet
EndChar

StartChar: J
Encoding: 74 74 45
Width: 553
GlyphClass: 1
Flags: W
LayerCount: 2
Fore
SplineSet
226 633 m 5,0,1
 226 633 226 633 69 633 c 5,2,3
 69 633 69 633 69 717 c 5,4,5
 69 717 69 717 487 717 c 5,6,7
 487 717 487 717 487 633 c 5,8,9
 487 633 487 633 333 633 c 5,10,11
 333 633 333 633 333 161 c 5,12,13
 301 121 301 121 205 0 c 5,14,15
 205 0 205 0 69 0 c 5,16,17
 69 0 69 0 69 84 c 5,18,19
 69 84 69 84 155 84 c 5,20,21
 172 108 172 108 226 180 c 5,22,23
 226 180 226 180 226 633 c 5,0,1
EndSplineSet
EndChar

StartChar: K
Encoding: 75 75 46
Width: 553
GlyphClass: 1
Flags: W
LayerCount: 2
Fore
SplineSet
429 400 m 5,0,1
 429 400 429 400 429 312 c 5,2,3
 444 295 444 295 487 244 c 5,4,5
 487 244 487 244 487 0 c 5,6,7
 487 0 487 0 381 0 c 5,8,9
 381 0 381 0 381 226 c 5,10,11
 363 248 363 248 309 312 c 5,12,13
 309 312 309 312 173 312 c 5,14,15
 173 312 173 312 173 0 c 5,16,17
 173 0 173 0 67 0 c 5,18,19
 67 0 67 0 67 717 c 5,20,21
 67 717 67 717 173 717 c 5,22,23
 173 717 173 717 173 400 c 5,24,25
 173 400 173 400 309 400 c 5,26,27
 309 400 309 400 381 492 c 5,28,29
 381 492 381 492 381 717 c 5,30,31
 381 717 381 717 487 717 c 5,32,33
 487 717 487 717 487 473 c 5,34,35
 473 455 473 455 429 400 c 5,0,1
EndSplineSet
EndChar

StartChar: L
Encoding: 76 76 47
Width: 553
GlyphClass: 1
Flags: W
LayerCount: 2
Fore
SplineSet
486 88 m 5,0,1
 486 88 486 88 486 0 c 5,2,3
 486 0 486 0 68 0 c 5,4,5
 68 0 68 0 68 717 c 5,6,7
 68 717 68 717 174 717 c 5,8,9
 174 717 174 717 174 88 c 5,10,11
 174 88 174 88 486 88 c 5,0,1
EndSplineSet
EndChar

StartChar: M
Encoding: 77 77 48
Width: 860
GlyphClass: 1
Flags: W
LayerCount: 2
Fore
SplineSet
795 512 m 5,0,1
 795 512 795 512 795 0 c 5,2,3
 795 0 795 0 689 0 c 5,4,5
 689 0 689 0 689 489 c 5,6,7
 662 524 662 524 580 629 c 5,8,9
 580 629 580 629 483 629 c 5,10,11
 483 629 483 629 483 0 c 5,12,13
 483 0 483 0 377 0 c 5,14,15
 377 0 377 0 377 489 c 5,16,17
 349 524 349 524 267 629 c 5,18,19
 267 629 267 629 170 629 c 5,20,21
 170 629 170 629 170 0 c 5,22,23
 170 0 170 0 64 0 c 5,24,25
 64 0 64 0 64 717 c 5,26,27
 64 717 64 717 318 717 c 5,28,29
 332 699 332 699 377 643 c 5,30,31
 377 643 377 643 377 717 c 5,32,33
 377 717 377 717 630 717 c 5,34,35
 671 666 671 666 795 512 c 5,0,1
EndSplineSet
EndChar

StartChar: N
Encoding: 78 78 49
Width: 553
GlyphClass: 1
Flags: W
LayerCount: 2
Fore
SplineSet
173 0 m 5,0,1
 173 0 173 0 67 0 c 5,2,3
 67 0 67 0 67 717 c 5,4,5
 67 717 67 717 173 717 c 5,6,7
 173 717 173 717 173 560 c 5,8,9
 225 495 225 495 380 298 c 5,10,11
 380 298 380 298 380 717 c 5,12,13
 380 717 380 717 486 717 c 5,14,15
 486 717 486 717 486 0 c 5,16,17
 486 0 486 0 380 0 c 5,18,19
 380 0 380 0 380 133 c 5,20,21
 328 200 328 200 173 403 c 5,22,23
 173 403 173 403 173 0 c 5,0,1
EndSplineSet
EndChar

StartChar: O
Encoding: 79 79 50
Width: 614
GlyphClass: 1
Flags: W
LayerCount: 2
Fore
SplineSet
69 487 m 5,0,1
 115 544 115 544 250 717 c 5,2,3
 250 717 250 717 545 717 c 5,4,5
 545 717 545 717 545 161 c 5,6,7
 514 121 514 121 418 0 c 5,8,9
 418 0 418 0 69 0 c 5,10,11
 69 0 69 0 69 487 c 5,0,1
175 88 m 5,12,13
 175 88 175 88 367 88 c 5,14,15
 367 88 367 88 439 180 c 5,16,17
 439 180 439 180 439 629 c 5,18,19
 439 629 439 629 302 629 c 5,20,21
 270 590 270 590 175 470 c 5,22,23
 175 470 175 470 175 88 c 5,12,13
EndSplineSet
EndChar

StartChar: P
Encoding: 80 80 51
Width: 552
GlyphClass: 1
Flags: W
LayerCount: 2
Fore
SplineSet
381 629 m 5,0,1
 381 629 381 629 173 629 c 5,2,3
 173 629 173 629 173 400 c 5,4,5
 173 400 173 400 309 400 c 5,6,7
 309 400 309 400 381 492 c 5,8,9
 381 492 381 492 381 629 c 5,0,1
487 717 m 5,10,11
 487 717 487 717 487 473 c 5,12,13
 455 433 455 433 359 312 c 5,14,15
 359 312 359 312 173 312 c 5,16,17
 173 312 173 312 173 0 c 5,18,19
 173 0 173 0 67 0 c 5,20,21
 67 0 67 0 67 717 c 5,22,23
 67 717 67 717 487 717 c 5,10,11
EndSplineSet
EndChar

StartChar: Q
Encoding: 81 81 52
Width: 614
GlyphClass: 1
Flags: W
LayerCount: 2
Fore
SplineSet
546 161 m 5,0,1
 531 142 531 142 485 84 c 5,2,3
 500 63 500 63 546 0 c 5,4,5
 546 0 546 0 447 0 c 5,6,7
 444 5 444 5 433 20 c 5,8,9
 430 15 430 15 418 0 c 5,10,11
 418 0 418 0 70 0 c 5,12,13
 70 0 70 0 70 487 c 5,14,15
 115 544 115 544 251 717 c 5,16,17
 251 717 251 717 546 717 c 5,18,19
 546 717 546 717 546 161 c 5,0,1
427 164 m 5,20,21
 430 168 430 168 440 180 c 5,22,23
 440 180 440 180 440 629 c 5,24,25
 440 629 440 629 302 629 c 5,26,27
 271 590 271 590 176 470 c 5,28,29
 176 470 176 470 176 88 c 5,30,31
 176 88 176 88 368 88 c 5,32,33
 370 91 370 91 376 99 c 5,34,35
 352 131 352 131 282 228 c 5,36,37
 282 228 282 228 380 228 c 5,38,39
 392 212 392 212 427 164 c 5,20,21
EndSplineSet
EndChar

StartChar: R
Encoding: 82 82 53
Width: 553
GlyphClass: 1
Flags: W
LayerCount: 2
Fore
SplineSet
380 629 m 5,0,1
 380 629 380 629 172 629 c 5,2,3
 172 629 172 629 172 400 c 5,4,5
 172 400 172 400 309 400 c 5,6,7
 327 423 327 423 380 492 c 5,8,9
 380 492 380 492 380 629 c 5,0,1
172 0 m 5,10,11
 172 0 172 0 66 0 c 5,12,13
 66 0 66 0 66 717 c 5,14,15
 66 717 66 717 486 717 c 5,16,17
 486 717 486 717 486 473 c 5,18,19
 472 455 472 455 429 400 c 5,20,21
 429 400 429 400 429 312 c 5,22,23
 443 295 443 295 486 244 c 5,24,25
 486 244 486 244 486 0 c 5,26,27
 486 0 486 0 380 0 c 5,28,29
 380 0 380 0 380 226 c 5,30,31
 363 248 363 248 309 312 c 5,32,33
 309 312 309 312 172 312 c 5,34,35
 172 312 172 312 172 0 c 5,10,11
EndSplineSet
EndChar

StartChar: S
Encoding: 83 83 54
Width: 553
GlyphClass: 1
Flags: W
LayerCount: 2
Fore
SplineSet
382 304 m 5,0,1
 382 304 382 304 68 304 c 5,2,3
 68 304 68 304 68 561 c 5,4,5
 68 561 68 561 192 717 c 5,6,7
 192 717 192 717 485 717 c 5,8,9
 485 717 485 717 485 629 c 5,10,11
 485 629 485 629 242 629 c 5,12,13
 224 606 224 606 171 536 c 5,14,15
 171 536 171 536 171 392 c 5,16,17
 171 392 171 392 485 392 c 5,18,19
 485 392 485 392 485 157 c 5,20,21
 454 118 454 118 361 0 c 5,22,23
 361 0 361 0 68 0 c 5,24,25
 68 0 68 0 68 88 c 5,26,27
 68 88 68 88 311 88 c 5,28,29
 329 112 329 112 382 183 c 5,30,31
 382 183 382 183 382 304 c 5,0,1
EndSplineSet
EndChar

StartChar: T
Encoding: 84 84 55
Width: 553
GlyphClass: 1
Flags: W
LayerCount: 2
Fore
SplineSet
488 717 m 5,0,1
 488 717 488 717 488 633 c 5,2,3
 488 633 488 633 331 633 c 5,4,5
 331 633 331 633 331 0 c 5,6,7
 331 0 331 0 225 0 c 5,8,9
 225 0 225 0 225 633 c 5,10,11
 225 633 225 633 67 633 c 5,12,13
 67 633 67 633 67 717 c 5,14,15
 67 717 67 717 488 717 c 5,0,1
EndSplineSet
EndChar

StartChar: U
Encoding: 85 85 56
Width: 553
GlyphClass: 1
Flags: W
LayerCount: 2
Fore
SplineSet
67 0 m 5,0,1
 67 0 67 0 67 717 c 5,2,3
 67 717 67 717 173 717 c 5,4,5
 173 717 173 717 173 88 c 5,6,7
 173 88 173 88 270 88 c 5,8,9
 298 123 298 123 380 228 c 5,10,11
 380 228 380 228 380 717 c 5,12,13
 380 717 380 717 486 717 c 5,14,15
 486 717 486 717 486 0 c 5,16,17
 486 0 486 0 380 0 c 5,18,19
 380 0 380 0 380 75 c 5,20,21
 365 56 365 56 321 0 c 5,22,23
 321 0 321 0 67 0 c 5,0,1
EndSplineSet
EndChar

StartChar: V
Encoding: 86 86 57
Width: 553
GlyphClass: 1
Flags: W
LayerCount: 2
Fore
SplineSet
68 0 m 5,0,1
 68 0 68 0 68 717 c 5,2,3
 68 717 68 717 174 717 c 5,4,5
 174 717 174 717 174 88 c 5,6,7
 174 88 174 88 271 88 c 5,8,9
 298 123 298 123 380 228 c 5,10,11
 380 228 380 228 380 717 c 5,12,13
 380 717 380 717 486 717 c 5,14,15
 486 717 486 717 486 210 c 5,16,17
 445 158 445 158 321 0 c 5,18,19
 321 0 321 0 68 0 c 5,0,1
EndSplineSet
EndChar

StartChar: W
Encoding: 87 87 58
Width: 861
GlyphClass: 1
Flags: W
LayerCount: 2
Fore
SplineSet
630 0 m 5,0,1
 630 0 630 0 377 0 c 5,2,3
 377 0 377 0 377 75 c 5,4,5
 362 56 362 56 318 0 c 5,6,7
 318 0 318 0 64 0 c 5,8,9
 64 0 64 0 64 717 c 5,10,11
 64 717 64 717 170 717 c 5,12,13
 170 717 170 717 170 88 c 5,14,15
 170 88 170 88 267 88 c 5,16,17
 295 123 295 123 377 228 c 5,18,19
 377 228 377 228 377 717 c 5,20,21
 377 717 377 717 483 717 c 5,22,23
 483 717 483 717 483 88 c 5,24,25
 483 88 483 88 580 88 c 5,26,27
 607 123 607 123 689 228 c 5,28,29
 689 228 689 228 689 717 c 5,30,31
 689 717 689 717 795 717 c 5,32,33
 795 717 795 717 795 205 c 5,34,35
 754 154 754 154 630 0 c 5,0,1
EndSplineSet
EndChar

StartChar: X
Encoding: 88 88 59
Width: 553
GlyphClass: 1
Flags: W
LayerCount: 2
Fore
SplineSet
173 0 m 5,0,1
 173 0 173 0 67 0 c 5,2,3
 67 0 67 0 67 244 c 5,4,5
 81 261 81 261 122 312 c 5,6,7
 122 312 122 312 67 312 c 5,8,9
 67 312 67 312 67 717 c 5,10,11
 67 717 67 717 173 717 c 5,12,13
 173 717 173 717 173 400 c 5,14,15
 173 400 173 400 309 400 c 5,16,17
 309 400 309 400 381 492 c 5,18,19
 381 492 381 492 381 717 c 5,20,21
 381 717 381 717 487 717 c 5,22,23
 487 717 487 717 487 473 c 5,24,25
 473 455 473 455 429 400 c 5,26,27
 429 400 429 400 487 400 c 5,28,29
 487 400 487 400 487 0 c 5,30,31
 487 0 487 0 381 0 c 5,32,33
 381 0 381 0 381 312 c 5,34,35
 381 312 381 312 244 312 c 5,36,37
 227 291 227 291 173 226 c 5,38,39
 173 226 173 226 173 0 c 5,0,1
EndSplineSet
EndChar

StartChar: Y
Encoding: 89 89 60
Width: 552
GlyphClass: 1
Flags: W
LayerCount: 2
Fore
SplineSet
486 717 m 5,0,1
 486 717 486 717 486 508 c 5,2,3
 444 455 444 455 321 299 c 5,4,5
 321 299 321 299 321 0 c 5,6,7
 321 0 321 0 214 0 c 5,8,9
 214 0 214 0 214 299 c 5,10,11
 214 299 214 299 67 299 c 5,12,13
 67 299 67 299 67 717 c 5,14,15
 67 717 67 717 173 717 c 5,16,17
 173 717 173 717 173 387 c 5,18,19
 173 387 173 387 270 387 c 5,20,21
 298 422 298 422 380 527 c 5,22,23
 380 527 380 527 380 717 c 5,24,25
 380 717 380 717 486 717 c 5,0,1
EndSplineSet
EndChar

StartChar: Z
Encoding: 90 90 61
Width: 532
GlyphClass: 1
Flags: W
LayerCount: 2
Fore
SplineSet
68 255 m 5,0,1
 141 349 141 349 362 633 c 5,2,3
 362 633 362 633 68 633 c 5,4,5
 68 633 68 633 68 717 c 5,6,7
 68 717 68 717 486 717 c 5,8,9
 486 717 486 717 486 632 c 5,10,11
 408 533 408 533 172 234 c 5,12,13
 172 234 172 234 172 84 c 5,14,15
 172 84 172 84 486 84 c 5,16,17
 486 84 486 84 486 0 c 5,18,19
 486 0 486 0 68 0 c 5,20,21
 68 0 68 0 68 255 c 5,0,1
EndSplineSet
EndChar

StartChar: bracketleft
Encoding: 91 91 62
Width: 356
GlyphClass: 1
InSpiro: 1
Flags: W
LayerCount: 2
Fore
SplineSet
328 0 m 1,0,1
 328 0 328 0 32 0 c 1,2,3
 32 0 32 0 32 717 c 1,4,5
 32 717 32 717 328 717 c 1,6,7
 328 717 328 717 328 628 c 1,8,9
 328 628 328 628 137 628 c 1,10,11
 137 628 137 628 137 89 c 1,12,13
 137 89 137 89 328 89 c 1,14,15
 328 89 328 89 328 0 c 1,0,1
  Spiro
    328 0 v
    32 0 v
    32 717 v
    328 717 v
    328 628 v
    137 628 v
    137 89 v
    328 89 v
    0 0 z
  EndSpiro
EndSplineSet
EndChar

StartChar: backslash
Encoding: 92 92 63
Width: 512
GlyphClass: 1
Flags: W
LayerCount: 2
Fore
SplineSet
42 717 m 5,0,1
 370 302 370 302 479 164 c 5,2,3
 479 164 479 164 479 0 c 5,4,5
 151 425 151 425 42 566 c 5,6,7
 42 566 42 566 42 717 c 5,0,1
EndSplineSet
EndChar

StartChar: bracketright
Encoding: 93 93 64
Width: 389
GlyphClass: 1
Flags: W
LayerCount: 2
Fore
SplineSet
342 0 m 5,0,1
 342 0 342 0 47 0 c 5,2,3
 47 0 47 0 47 89 c 5,4,5
 47 89 47 89 238 89 c 5,6,7
 238 89 238 89 238 628 c 5,8,9
 238 628 238 628 47 628 c 5,10,11
 47 628 47 628 47 717 c 5,12,13
 47 717 47 717 342 717 c 5,14,15
 342 717 342 717 342 0 c 5,0,1
EndSplineSet
EndChar

StartChar: asciicircum
Encoding: 94 94 65
Width: 532
GlyphClass: 1
Flags: W
LayerCount: 2
Fore
SplineSet
485 410 m 5,0,1
 485 410 485 410 383 410 c 5,2,3
 295 534 295 534 265 575 c 5,4,5
 176 451 176 451 147 410 c 5,6,7
 147 410 147 410 45 410 c 5,8,9
 211 640 211 640 266 717 c 5,10,11
 430 486 430 486 485 410 c 5,0,1
EndSplineSet
EndChar

StartChar: underscore
Encoding: 95 95 66
Width: 573
GlyphClass: 1
Flags: W
LayerCount: 2
Fore
SplineSet
42 102 m 5,0,1
 42 102 42 102 533 102 c 5,2,3
 533 102 533 102 533 0 c 5,4,5
 533 0 533 0 42 0 c 5,6,7
 42 0 42 0 42 102 c 5,0,1
EndSplineSet
EndChar

StartChar: grave
Encoding: 96 96 67
Width: 245
GlyphClass: 1
Flags: W
LayerCount: 2
Fore
SplineSet
46 717 m 5,0,1
 46 717 46 717 126 717 c 5,2,3
 144 691 144 691 200 615 c 5,4,5
 200 615 200 615 120 615 c 5,6,7
 101 640 101 640 46 717 c 5,0,1
EndSplineSet
EndChar

StartChar: a
Encoding: 97 97 68
Width: 512
GlyphClass: 1
Flags: W
LayerCount: 2
Fore
SplineSet
350 208 m 5,0,1
 350 208 350 208 161 208 c 5,2,3
 161 208 161 208 161 81 c 5,4,5
 161 81 161 81 250 81 c 5,6,7
 275 113 275 113 350 208 c 5,0,1
447 510 m 5,8,9
 447 510 447 510 447 0 c 5,10,11
 447 0 447 0 350 0 c 5,12,13
 350 0 350 0 350 68 c 5,14,15
 337 51 337 51 296 0 c 5,16,17
 296 0 296 0 64 0 c 5,18,19
 64 0 64 0 64 284 c 5,20,21
 64 284 64 284 350 284 c 5,22,23
 350 284 350 284 350 433 c 5,24,25
 350 433 350 433 64 433 c 5,26,27
 64 433 64 433 64 510 c 5,28,29
 64 510 64 510 447 510 c 5,8,9
EndSplineSet
EndChar

StartChar: b
Encoding: 98 98 69
Width: 512
GlyphClass: 1
Flags: W
LayerCount: 2
Fore
SplineSet
160 209 m 5,0,1
 185 177 185 177 261 81 c 5,2,3
 261 81 261 81 350 81 c 5,4,5
 350 81 350 81 350 303 c 5,6,7
 325 335 325 335 249 431 c 5,8,9
 249 431 249 431 160 431 c 5,10,11
 160 431 160 431 160 209 c 5,0,1
295 512 m 5,12,13
 333 464 333 464 447 321 c 5,14,15
 447 321 447 321 447 0 c 5,16,17
 447 0 447 0 215 0 c 5,18,19
 201 17 201 17 160 69 c 5,20,21
 160 69 160 69 160 0 c 5,22,23
 160 0 160 0 63 0 c 5,24,25
 63 0 63 0 63 658 c 5,26,27
 63 658 63 658 160 658 c 5,28,29
 160 658 160 658 160 512 c 5,30,31
 160 512 160 512 295 512 c 5,12,13
EndSplineSet
EndChar

StartChar: c
Encoding: 99 99 70
Width: 553
GlyphClass: 1
Flags: W
LayerCount: 2
Fore
SplineSet
174 510 m 5,0,1
 174 510 174 510 494 510 c 5,2,3
 494 510 494 510 494 429 c 5,4,5
 494 429 494 429 220 429 c 5,6,7
 204 410 204 410 157 350 c 5,8,9
 157 350 157 350 157 81 c 5,10,11
 157 81 157 81 494 81 c 5,12,13
 494 81 494 81 494 0 c 5,14,15
 494 0 494 0 60 0 c 5,16,17
 60 0 60 0 60 367 c 5,18,19
 88 403 88 403 174 510 c 5,0,1
EndSplineSet
EndChar

StartChar: d
Encoding: 100 100 71
Width: 512
GlyphClass: 1
Flags: W
LayerCount: 2
Fore
SplineSet
351 209 m 5,0,1
 351 209 351 209 351 431 c 5,2,3
 351 431 351 431 262 431 c 5,4,5
 262 431 262 431 162 303 c 5,6,7
 162 303 162 303 162 81 c 5,8,9
 162 81 162 81 251 81 c 5,10,11
 251 81 251 81 351 209 c 5,0,1
216 512 m 5,12,13
 216 512 216 512 351 512 c 5,14,15
 351 512 351 512 351 658 c 5,16,17
 351 658 351 658 448 658 c 5,18,19
 448 658 448 658 448 0 c 5,20,21
 448 0 448 0 351 0 c 5,22,23
 351 0 351 0 351 69 c 5,24,25
 310 17 310 17 297 0 c 5,26,27
 297 0 297 0 64 0 c 5,28,29
 64 0 64 0 64 321 c 5,30,31
 178 464 178 464 216 512 c 5,12,13
EndSplineSet
EndChar

StartChar: e
Encoding: 101 101 72
Width: 553
GlyphClass: 1
Flags: W
LayerCount: 2
Fore
SplineSet
380 510 m 5,0,1
 409 474 409 474 494 367 c 5,2,3
 494 367 494 367 494 226 c 5,4,5
 494 226 494 226 157 226 c 5,6,7
 157 226 157 226 157 81 c 5,8,9
 157 81 157 81 494 81 c 5,10,11
 494 81 494 81 494 0 c 5,12,13
 494 0 494 0 60 0 c 5,14,15
 60 0 60 0 60 510 c 5,16,17
 60 510 60 510 380 510 c 5,0,1
431 307 m 5,18,19
 407 338 407 338 334 429 c 5,20,21
 334 429 334 429 157 429 c 5,22,23
 157 429 157 429 157 307 c 5,24,25
 157 307 157 307 431 307 c 5,18,19
EndSplineSet
EndChar

StartChar: f
Encoding: 102 102 73
Width: 389
GlyphClass: 1
Flags: W
HStem: 0 21G<58 155> 285 96<155 330> 576 82<203.75 330>
VStem: 58 97<0 285 381 519.071>
LayerCount: 2
Fore
SplineSet
155 489 m 5,0,1
 155 489 155 489 155 381 c 5,2,3
 155 381 155 381 330 381 c 5,4,5
 330 381 330 381 330 285 c 5,6,7
 330 285 330 285 155 285 c 5,8,9
 155 285 155 285 155 0 c 5,10,11
 155 0 155 0 58 0 c 5,12,13
 58 0 58 0 58.5 171 c 132,-1,14
 59 342 59 342 59 513 c 5,15,16
 88 549 88 549 174 658 c 5,17,18
 174 658 174 658 330 658 c 5,19,20
 330 658 330 658 330 576 c 5,21,22
 330 576 330 576 221 576 c 5,23,24
 204 555 204 555 155 489 c 5,0,1
EndSplineSet
EndChar

StartChar: g
Encoding: 103 103 74
Width: 512
GlyphClass: 1
Flags: W
LayerCount: 2
Fore
SplineSet
351 209 m 5,0,1
 351 209 351 209 351 432 c 5,2,3
 351 432 351 432 262 432 c 5,4,5
 186 336 186 336 161 304 c 5,6,7
 161 304 161 304 161 80 c 5,8,9
 161 80 161 80 250 80 c 5,10,11
 326 177 326 177 351 209 c 5,0,1
216 514 m 5,12,13
 216 514 216 514 449 514 c 5,14,15
 449 514 449 514 449 -144 c 5,16,17
 449 -144 449 -144 64 -144 c 5,18,19
 64 -144 64 -144 64 -63 c 5,20,21
 64 -63 64 -63 351 -63 c 5,22,23
 351 -63 351 -63 351 69 c 5,24,25
 310 18 310 18 297 0 c 5,26,27
 297 0 297 0 64 0 c 5,28,29
 64 0 64 0 64 323 c 5,30,31
 178 466 178 466 216 514 c 5,12,13
EndSplineSet
EndChar

StartChar: h
Encoding: 104 104 75
Width: 512
GlyphClass: 1
Flags: W
LayerCount: 2
Fore
SplineSet
162 0 m 5,0,1
 162 0 162 0 64 0 c 5,2,3
 64 0 64 0 64 658 c 5,4,5
 64 658 64 658 162 658 c 5,6,7
 162 658 162 658 162 512 c 5,8,9
 162 512 162 512 297 512 c 5,10,11
 335 464 335 464 448 321 c 5,12,13
 448 321 448 321 448 0 c 5,14,15
 448 0 448 0 351 0 c 5,16,17
 351 0 351 0 351 303 c 5,18,19
 351 303 351 303 251 431 c 5,20,21
 251 431 251 431 162 431 c 5,22,23
 162 431 162 431 162 0 c 5,0,1
EndSplineSet
EndChar

StartChar: i
Encoding: 105 105 76
Width: 225
GlyphClass: 1
Flags: W
HStem: 0 21G<65 161> 490 20G<65 161> 571 76<65 161>
VStem: 65 96<0 510 571 647>
LayerCount: 2
Fore
SplineSet
65 510 m 5,0,1
 65 510 65 510 161 510 c 5,2,3
 161 510 161 510 161 0 c 5,4,5
 161 0 161 0 65 0 c 5,6,7
 65 0 65 0 65 510 c 5,0,1
65 647 m 5,8,9
 65 647 65 647 161 647 c 5,10,11
 161 647 161 647 161 571 c 5,12,13
 161 571 161 571 65 571 c 5,14,15
 65 571 65 571 65 647 c 5,8,9
EndSplineSet
EndChar

StartChar: j
Encoding: 106 106 77
Width: 266
GlyphClass: 1
Flags: W
LayerCount: 2
Fore
SplineSet
112 655 m 5,0,1
 112 655 112 655 208 655 c 5,2,3
 208 655 208 655 208 579 c 5,4,5
 208 579 208 579 112 579 c 5,6,7
 112 579 112 579 112 655 c 5,0,1
115 510 m 5,8,9
 115 510 115 510 209 510 c 5,10,11
 209 510 209 510 209 -4 c 5,12,13
 180 -40 180 -40 95 -148 c 5,14,15
 95 -148 95 -148 -59 -148 c 5,16,17
 -59 -148 -59 -148 -59 -67 c 5,18,19
 -59 -67 -59 -67 49 -67 c 5,20,21
 66 -46 66 -46 115 19 c 5,22,23
 115 19 115 19 115 510 c 5,8,9
EndSplineSet
EndChar

StartChar: k
Encoding: 107 107 78
Width: 410
GlyphClass: 1
Flags: W
HStem: 0 81<266.972 349> 431 77<268.539 349> 638 20G<62 160>
VStem: 62 98<0 69 187.484 308.177 426 658>
LayerCount: 2
Fore
SplineSet
62 658 m 5,0,1
 62 658 62 658 160 658 c 5,2,3
 160 658 160 658 160 426 c 5,4,5
 180 447 180 447 241 508 c 5,6,7
 241 508 241 508 349 508 c 5,8,9
 349 508 349 508 349 431 c 5,10,11
 349 431 349 431 287 431 c 5,12,13
 255 395 255 395 160 285 c 5,14,15
 160 285 160 285 160 209 c 5,16,17
 192 177 192 177 287 81 c 5,18,19
 287 81 287 81 349 81 c 5,20,21
 349 81 349 81 349 0 c 5,22,23
 349 0 349 0 241 0 c 5,24,25
 221 17 221 17 160 69 c 5,26,27
 160 69 160 69 160 0 c 5,28,29
 160 0 160 0 62 0 c 5,30,31
 62 0 62 0 62 658 c 5,0,1
EndSplineSet
EndChar

StartChar: l
Encoding: 108 108 79
Width: 225
GlyphClass: 1
Flags: W
HStem: 0 21G<64 161> 638 20G<64 161>
VStem: 64 97<0 658>
LayerCount: 2
Fore
SplineSet
64 658 m 5,0,1
 64 658 64 658 161 658 c 5,2,3
 161 658 161 658 161 0 c 5,4,5
 161 0 161 0 64 0 c 5,6,7
 64 0 64 0 64 658 c 5,0,1
EndSplineSet
EndChar

StartChar: m
Encoding: 109 109 80
Width: 779
GlyphClass: 1
Flags: W
HStem: 0 21G<55 152 341 438 626 723> 429 81<235.191 341 521.191 626>
VStem: 55 97<0 330.413 442 510> 341 97<0 330.413> 626 97<0 429>
LayerCount: 2
Fore
SplineSet
723 510 m 5,0,1
 723 510 723 510 723 0 c 5,2,3
 723 0 723 0 626 0 c 5,4,5
 626 0 626 0 626 429 c 5,6,7
 626 429 626 429 538 429 c 5,8,9
 513 398 513 398 438 302 c 5,10,11
 438 302 438 302 438 0 c 5,12,13
 438 0 438 0 341 0 c 5,14,15
 341 0 341 0 341 429 c 5,16,17
 341 429 341 429 252 429 c 5,18,19
 227 398 227 398 152 302 c 5,20,21
 152 302 152 302 152 0 c 5,22,23
 152 0 152 0 55 0 c 5,24,25
 55 0 55 0 55 510 c 5,26,27
 55 510 55 510 152 510 c 5,28,29
 152 510 152 510 152 442 c 5,30,31
 166 459 166 459 206 510 c 5,32,33
 206 510 206 510 438 510 c 5,34,35
 438 510 438 510 438 442 c 5,36,37
 451 459 451 459 492 510 c 5,38,39
 492 510 492 510 723 510 c 5,0,1
EndSplineSet
EndChar

StartChar: n
Encoding: 110 110 81
Width: 512
GlyphClass: 1
Flags: W
LayerCount: 2
Fore
SplineSet
447 510 m 5,0,1
 447 510 447 510 447 0 c 5,2,3
 447 0 447 0 350 0 c 5,4,5
 350 0 350 0 350 429 c 5,6,7
 350 429 350 429 261 429 c 5,8,9
 236 398 236 398 161 302 c 5,10,11
 161 302 161 302 161 0 c 5,12,13
 161 0 161 0 64 0 c 5,14,15
 64 0 64 0 64 510 c 5,16,17
 64 510 64 510 161 510 c 5,18,19
 161 510 161 510 161 442 c 5,20,21
 175 459 175 459 215 510 c 5,22,23
 215 510 215 510 447 510 c 5,0,1
EndSplineSet
EndChar

StartChar: o
Encoding: 111 111 82
Width: 532
GlyphClass: 1
Flags: W
LayerCount: 2
Fore
SplineSet
57 307 m 5,0,1
 97 357 97 357 216 510 c 5,2,3
 216 510 216 510 476 510 c 5,4,5
 476 510 476 510 476 143 c 5,6,7
 448 107 448 107 363 0 c 5,8,9
 363 0 363 0 57 0 c 5,10,11
 57 0 57 0 57 307 c 5,0,1
150 78 m 5,12,13
 150 78 150 78 319 78 c 5,14,15
 335 98 335 98 382 159 c 5,16,17
 382 159 382 159 382 432 c 5,18,19
 382 432 382 432 261 432 c 5,20,21
 234 397 234 397 150 292 c 5,22,23
 150 292 150 292 150 78 c 5,12,13
EndSplineSet
EndChar

StartChar: p
Encoding: 112 112 83
Width: 512
GlyphClass: 1
Flags: W
LayerCount: 2
Fore
SplineSet
162 207 m 5,0,1
 187 175 187 175 262 82 c 5,2,3
 262 82 262 82 351 82 c 5,4,5
 351 82 351 82 351 300 c 5,6,7
 326 333 326 333 251 429 c 5,8,9
 251 429 251 429 162 429 c 5,10,11
 162 429 162 429 162 207 c 5,0,1
162 -148 m 5,12,13
 162 -148 162 -148 63 -148 c 5,14,15
 63 -148 63 -148 63 510 c 5,16,17
 63 510 63 510 297 510 c 5,18,19
 335 462 335 462 449 319 c 5,20,21
 449 319 449 319 449 0 c 5,22,23
 449 0 449 0 216 0 c 5,24,25
 202 17 202 17 162 65 c 5,26,27
 162 65 162 65 162 -148 c 5,12,13
EndSplineSet
EndChar

StartChar: q
Encoding: 113 113 84
Width: 512
GlyphClass: 1
Flags: W
LayerCount: 2
Fore
SplineSet
350 63 m 5,0,1
 337 47 337 47 296 1 c 5,2,3
 296 1 296 1 62 1 c 5,4,5
 62 1 62 1 62 317 c 5,6,7
 100 365 100 365 214 510 c 5,8,9
 214 510 214 510 331 510 c 132,-1,10
 448 510 448 510 448 509 c 5,11,12
 449 509 449 509 449 510 c 5,13,14
 449 510 449 510 449 -148 c 5,15,16
 449 -148 449 -148 350 -148 c 5,17,18
 350 -148 350 -148 350 63 c 5,0,1
350 428 m 5,19,20
 350 428 350 428 261 428 c 5,21,22
 236 396 236 396 160 299 c 5,23,24
 160 299 160 299 160 82 c 5,25,26
 160 82 160 82 249 82 c 5,27,28
 275 113 275 113 350 204 c 5,29,30
 350 204 350 204 350 428 c 5,19,20
EndSplineSet
EndChar

StartChar: r
Encoding: 114 114 85
Width: 389
GlyphClass: 1
Flags: W
LayerCount: 2
Fore
SplineSet
61 510 m 5,0,1
 61 510 61 510 329 510 c 5,2,3
 329 510 329 510 329 429 c 5,4,5
 329 429 329 429 158 429 c 5,6,7
 158 429 158 429 158 0 c 5,8,9
 158 0 158 0 61 0 c 5,10,11
 61 0 61 0 61 510 c 5,0,1
EndSplineSet
EndChar

StartChar: s
Encoding: 115 115 86
Width: 512
GlyphClass: 1
Flags: W
LayerCount: 2
Fore
SplineSet
352 215 m 5,0,1
 352 215 352 215 65 215 c 5,2,3
 65 215 65 215 65 367 c 5,4,5
 94 402 94 402 179 510 c 5,6,7
 179 510 179 510 446 510 c 5,8,9
 446 510 446 510 446 429 c 5,10,11
 446 429 446 429 225 429 c 5,12,13
 208 408 208 408 159 344 c 5,14,15
 159 344 159 344 159 295 c 5,16,17
 159 295 159 295 446 295 c 5,18,19
 446 295 446 295 446 144 c 5,20,21
 418 108 418 108 333 0 c 5,22,23
 333 0 333 0 65 0 c 5,24,25
 65 0 65 0 65 80 c 5,26,27
 65 80 65 80 287 80 c 5,28,29
 303 102 303 102 352 167 c 5,30,31
 352 167 352 167 352 215 c 5,0,1
EndSplineSet
EndChar

StartChar: t
Encoding: 116 116 87
Width: 389
GlyphClass: 1
Flags: W
LayerCount: 2
Fore
SplineSet
328 431 m 5,0,1
 328 431 328 431 221 431 c 5,2,3
 221 431 221 431 221 0 c 5,4,5
 221 0 221 0 126 0 c 5,6,7
 126 0 126 0 126 431 c 5,8,9
 126 431 126 431 60 431 c 5,10,11
 60 431 60 431 60 510 c 5,12,13
 60 510 60 510 126 510 c 5,14,15
 126 510 126 510 126 658 c 5,16,17
 126 658 126 658 221 658 c 5,18,19
 221 658 221 658 221 510 c 5,20,21
 221 510 221 510 328 510 c 5,22,23
 328 510 328 510 328 431 c 5,0,1
EndSplineSet
EndChar

StartChar: u
Encoding: 117 117 88
Width: 512
GlyphClass: 1
Flags: W
LayerCount: 2
Fore
SplineSet
65 0 m 5,0,1
 65 0 65 0 65 510 c 5,2,3
 65 510 65 510 162 510 c 5,4,5
 162 510 162 510 162 81 c 5,6,7
 162 81 162 81 250 81 c 5,8,9
 275 113 275 113 350 208 c 5,10,11
 350 208 350 208 350 510 c 5,12,13
 350 510 350 510 447 510 c 5,14,15
 447 510 447 510 447 0 c 5,16,17
 447 0 447 0 350 0 c 5,18,19
 350 0 350 0 350 68 c 5,20,21
 337 51 337 51 296 0 c 5,22,23
 296 0 296 0 65 0 c 5,0,1
EndSplineSet
EndChar

StartChar: v
Encoding: 118 118 89
Width: 512
GlyphClass: 1
Flags: W
LayerCount: 2
Fore
SplineSet
64 0 m 5,0,1
 64 0 64 0 64 510 c 5,2,3
 64 510 64 510 161 510 c 5,4,5
 161 510 161 510 161 81 c 5,6,7
 161 81 161 81 250 81 c 5,8,9
 275 113 275 113 350 208 c 5,10,11
 350 208 350 208 350 510 c 5,12,13
 350 510 350 510 447 510 c 5,14,15
 447 510 447 510 447 192 c 5,16,17
 409 144 409 144 296 0 c 5,18,19
 296 0 296 0 64 0 c 5,0,1
EndSplineSet
EndChar

StartChar: w
Encoding: 119 119 90
Width: 799
GlyphClass: 1
Flags: W
LayerCount: 2
Fore
SplineSet
66 0 m 5,0,1
 66 0 66 0 66 510 c 5,2,3
 66 510 66 510 163 510 c 5,4,5
 163 510 163 510 163 81 c 5,6,7
 163 81 163 81 251 81 c 5,8,9
 276 113 276 113 351 208 c 5,10,11
 351 208 351 208 351 510 c 5,12,13
 351 510 351 510 448 510 c 5,14,15
 448 510 448 510 448 81 c 5,16,17
 448 81 448 81 537 81 c 5,18,19
 562 113 562 113 637 208 c 5,20,21
 637 208 637 208 637 510 c 5,22,23
 637 510 637 510 734 510 c 5,24,25
 734 510 734 510 734 0 c 5,26,27
 734 0 734 0 637 0 c 5,28,29
 637 0 637 0 637 68 c 5,30,31
 623 51 623 51 583 0 c 5,32,33
 583 0 583 0 351 0 c 5,34,35
 351 0 351 0 351 68 c 5,36,37
 338 51 338 51 297 0 c 5,38,39
 297 0 297 0 66 0 c 5,0,1
EndSplineSet
EndChar

StartChar: x
Encoding: 120 120 91
Width: 512
GlyphClass: 1
Flags: W
LayerCount: 2
Fore
SplineSet
304 510 m 5,0,1
 304 510 304 510 304 428 c 5,2,3
 318 449 318 449 358 510 c 5,4,5
 358 510 358 510 448 510 c 5,6,7
 448 510 448 510 448 433 c 5,8,9
 448 433 448 433 404 433 c 5,10,11
 379 397 379 397 304 288 c 5,12,13
 304 288 304 288 304 81 c 5,14,15
 304 81 304 81 448 81 c 5,16,17
 448 81 448 81 448 0 c 5,18,19
 448 0 448 0 207 0 c 5,20,21
 207 0 207 0 207 81 c 5,22,23
 194 61 194 61 153 0 c 5,24,25
 153 0 153 0 63 0 c 5,26,27
 63 0 63 0 63 81 c 5,28,29
 63 81 63 81 107 81 c 5,30,31
 132 113 132 113 207 208 c 5,32,33
 207 208 207 208 207 433 c 5,34,35
 207 433 207 433 63 433 c 5,36,37
 63 433 63 433 63 510 c 5,38,39
 63 510 63 510 304 510 c 5,0,1
EndSplineSet
EndChar

StartChar: y
Encoding: 121 121 92
Width: 512
GlyphClass: 1
Flags: W
LayerCount: 2
Fore
SplineSet
64 510 m 5,0,1
 64 510 64 510 161 510 c 5,2,3
 161 510 161 510 161 82 c 5,4,5
 161 82 161 82 250 82 c 5,6,7
 276 113 276 113 351 206 c 5,8,9
 351 206 351 206 351 510 c 5,10,11
 351 510 351 510 449 510 c 5,12,13
 449 510 449 510 449 -148 c 5,14,15
 449 -148 449 -148 64 -148 c 5,16,17
 64 -148 64 -148 64 -67 c 5,18,19
 64 -67 64 -67 351 -67 c 5,20,21
 351 -67 351 -67 351 65 c 5,22,23
 337 49 337 49 297 1 c 5,24,25
 297 1 297 1 64 1 c 5,26,27
 64 1 64 1 64 510 c 5,0,1
EndSplineSet
EndChar

StartChar: z
Encoding: 122 122 93
Width: 512
GlyphClass: 1
Flags: W
LayerCount: 2
Fore
SplineSet
65 77 m 5,0,1
 136 154 136 154 352 384 c 5,2,3
 352 384 352 384 352 433 c 5,4,5
 352 433 352 433 65 433 c 5,6,7
 65 433 65 433 65 510 c 5,8,9
 65 510 65 510 447 510 c 5,10,11
 447 510 447 510 447 384 c 5,12,13
 376 308 376 308 162 77 c 5,14,15
 162 77 162 77 447 77 c 5,16,17
 447 77 447 77 447 0 c 5,18,19
 447 0 447 0 65 0 c 5,20,21
 65 0 65 0 65 77 c 5,0,1
EndSplineSet
EndChar

StartChar: braceleft
Encoding: 123 123 94
Width: 573
GlyphClass: 1
Flags: W
LayerCount: 2
Fore
SplineSet
338 628 m 5,0,1
 338 628 338 628 338 89 c 5,2,3
 338 89 338 89 529 89 c 5,4,5
 529 89 529 89 529 0 c 5,6,7
 529 0 529 0 233 0 c 5,8,9
 233 0 233 0 233 314 c 5,10,11
 233 314 233 314 42 314 c 5,12,13
 42 314 42 314 42 403 c 5,14,15
 42 403 42 403 233 403 c 5,16,17
 233 403 233 403 233 717 c 5,18,19
 233 717 233 717 529 717 c 5,20,21
 529 717 529 717 529 628 c 5,22,23
 529 628 529 628 338 628 c 5,0,1
EndSplineSet
EndChar

StartChar: bar
Encoding: 124 124 95
Width: 185
GlyphClass: 1
Flags: W
LayerCount: 2
Fore
SplineSet
40 778 m 5,0,1
 40 778 40 778 142 778 c 5,2,3
 142 778 142 778 142 -205 c 5,4,5
 142 -205 142 -205 40 -205 c 5,6,7
 40 -205 40 -205 40 778 c 5,0,1
EndSplineSet
EndChar

StartChar: braceright
Encoding: 125 125 96
Width: 573
GlyphClass: 1
Flags: W
LayerCount: 2
Fore
SplineSet
43 628 m 5,0,1
 43 628 43 628 43 717 c 5,2,3
 43 717 43 717 339 717 c 5,4,5
 339 717 339 717 339 403 c 5,6,7
 339 403 339 403 530 403 c 5,8,9
 530 403 530 403 530 314 c 5,10,11
 530 314 530 314 339 314 c 5,12,13
 339 314 339 314 339 0 c 5,14,15
 339 0 339 0 43 0 c 5,16,17
 43 0 43 0 43 89 c 5,18,19
 43 89 43 89 234 89 c 5,20,21
 234 89 234 89 234 628 c 5,22,23
 234 628 234 628 43 628 c 5,0,1
EndSplineSet
EndChar

StartChar: asciitilde
Encoding: 126 126 97
Width: 512
GlyphClass: 1
Flags: W
LayerCount: 2
Fore
SplineSet
464 512 m 5,0,1
 464 512 464 512 206 512 c 5,2,3
 206 512 206 512 206 580 c 5,4,5
 206 580 206 580 42 580 c 5,6,7
 42 580 42 580 42 648 c 5,8,9
 42 648 42 648 300 648 c 5,10,11
 300 648 300 648 300 580 c 5,12,13
 300 580 300 580 464 580 c 5,14,15
 464 580 464 580 464 512 c 5,0,1
EndSplineSet
EndChar

StartChar: exclamdown
Encoding: 161 161 98
Width: 205
GlyphClass: 1
Flags: W
LayerCount: 2
Fore
SplineSet
53 0 m 5,0,1
 53 0 53 0 53 578 c 5,2,3
 53 578 53 578 159 578 c 5,4,5
 159 578 159 578 159 0 c 5,6,7
 159 0 159 0 53 0 c 5,0,1
53 632 m 5,8,9
 53 632 53 632 53 717 c 5,10,11
 53 717 53 717 159 717 c 5,12,13
 159 717 159 717 159 632 c 5,14,15
 159 632 159 632 53 632 c 5,8,9
EndSplineSet
Validated: 1
EndChar

StartChar: cent
Encoding: 162 162 99
Width: 430
GlyphClass: 1
Flags: W
LayerCount: 2
Fore
SplineSet
390 519 m 5,0,1
 390 519 390 519 289 519 c 5,2,3
 289 519 289 519 289 199 c 5,4,5
 289 199 289 199 390 199 c 5,6,7
 390 199 390 199 390 126 c 5,8,9
 390 126 390 126 289 126 c 5,10,11
 289 126 289 126 289 1 c 5,12,13
 289 1 289 1 200 1 c 5,14,15
 200 1 200 1 200 126 c 5,16,17
 200 126 200 126 40 126 c 5,18,19
 40 126 40 126 40 461 c 5,20,21
 75 505 75 505 144 593 c 5,22,23
 144 593 144 593 200 593 c 5,24,25
 200 593 200 593 200 717 c 5,26,27
 200 717 200 717 289 717 c 5,28,29
 289 717 289 717 289 593 c 5,30,31
 289 593 289 593 390 593 c 5,32,33
 390 593 390 593 390 519 c 5,0,1
200 199 m 5,34,35
 200 199 200 199 200 519 c 5,36,37
 200 519 200 519 186 519 c 5,38,39
 167 494 167 494 129 446 c 5,40,41
 129 446 129 446 129 199 c 5,42,43
 129 199 129 199 200 199 c 5,34,35
EndSplineSet
Validated: 1
EndChar

StartChar: sterling
Encoding: 163 163 100
Width: 655
GlyphClass: 1
Flags: W
LayerCount: 2
Fore
SplineSet
364 629 m 5,0,1
 312 564 312 564 295 543 c 5,2,3
 295 543 295 543 295 412 c 5,4,5
 295 412 295 412 608 412 c 5,6,7
 608 412 608 412 608 324 c 5,8,9
 608 324 608 324 451.5 324 c 132,-1,10
 295 324 295 324 295 323 c 6,11,-1
 295 88 l 5,12,13
 295 88 295 88 608 88 c 5,14,15
 608 88 608 88 608 0 c 5,16,17
 608 0 608 0 189 0 c 5,18,19
 189 0 189 0 189 323 c 5,20,-1
 44 323 l 5,21,22
 44 323 44 323 44 413 c 5,23,24
 44 413 44 413 189 413 c 5,25,-1
 189 561 l 5,26,27
 189 561 189 561 313 717 c 5,28,29
 313 717 313 717 608 717 c 5,30,31
 608 717 608 717 608 629 c 5,32,33
 608 629 608 629 364 629 c 5,0,1
EndSplineSet
Validated: 1
EndChar

StartChar: currency
Encoding: 164 164 101
Width: 430
GlyphClass: 1
Flags: W
LayerCount: 2
Fore
SplineSet
321 445 m 5,0,1
 321 445 321 445 321 280 c 5,2,3
 345 248 345 248 391 184 c 5,4,5
 391 184 391 184 349 184 c 5,6,7
 332 208 332 208 296 257 c 5,8,9
 296 257 296 257 132 257 c 5,10,11
 115 232 115 232 79 184 c 5,12,13
 79 184 79 184 37 184 c 5,14,15
 61 216 61 216 107 281 c 5,16,17
 107 281 107 281 107 445 c 5,18,19
 84 478 84 478 37 542 c 5,20,21
 37 542 37 542 79 542 c 5,22,23
 96 518 96 518 131 471 c 5,24,25
 131 471 131 471 298 471 c 5,26,27
 315 495 315 495 349 542 c 5,28,29
 349 542 349 542 391 542 c 5,30,31
 368 510 368 510 321 445 c 5,0,1
142 437 m 5,32,33
 142 437 142 437 142 291 c 5,34,35
 142 291 142 291 287 291 c 5,36,37
 287 291 287 291 287 437 c 5,38,39
 287 437 287 437 142 437 c 5,32,33
EndSplineSet
Validated: 1
EndChar

StartChar: yen
Encoding: 165 165 102
Width: 512
GlyphClass: 1
Flags: W
LayerCount: 2
Fore
SplineSet
301 298 m 5,0,1
 301 298 301 298 301 274 c 5,2,3
 301 274 301 274 466 274 c 5,4,5
 466 274 466 274 466 188 c 5,6,7
 466 188 466 188 301 188 c 5,8,9
 301 188 301 188 301 161 c 5,10,11
 301 161 301 161 466 161 c 5,12,13
 466 161 466 161 466 75 c 5,14,15
 466 75 466 75 301 75 c 5,16,17
 301 75 301 75 301 0 c 5,18,19
 301 0 301 0 195 0 c 5,20,21
 195 0 195 0 195 75 c 5,22,23
 195 75 195 75 48 75 c 5,24,25
 48 75 48 75 48 161 c 5,26,27
 48 161 48 161 195 161 c 5,28,29
 195 161 195 161 195 188 c 5,30,31
 195 188 195 188 48 188 c 5,32,33
 48 188 48 188 48 274 c 5,34,35
 48 274 48 274 195 274 c 5,36,37
 195 274 195 274 195 298 c 5,38,39
 195 298 195 298 48 298 c 5,40,41
 48 298 48 298 48 717 c 5,42,43
 48 717 48 717 154 717 c 5,44,45
 154 717 154 717 154 386 c 5,46,47
 154 386 154 386 251 386 c 5,48,49
 333 491 333 491 360 526 c 5,50,51
 360 526 360 526 360 717 c 5,52,53
 360 717 360 717 466 717 c 5,54,55
 466 717 466 717 466 507 c 5,56,57
 342 350 342 350 301 298 c 5,0,1
EndSplineSet
Validated: 1
EndChar

StartChar: brokenbar
Encoding: 166 166 103
Width: 163
GlyphClass: 1
Flags: W
LayerCount: 2
Fore
SplineSet
41 778 m 5,0,1
 41 778 41 778 123 778 c 5,2,3
 123 778 123 778 123 355 c 5,4,5
 123 355 123 355 41 355 c 5,6,7
 41 355 41 355 41 778 c 5,0,1
41 205 m 5,8,9
 41 205 41 205 123 205 c 5,10,11
 123 205 123 205 123 -205 c 5,12,13
 123 -205 123 -205 41 -205 c 5,14,15
 41 -205 41 -205 41 205 c 5,8,9
EndSplineSet
Validated: 1
EndChar

StartChar: section
Encoding: 167 167 104
Width: 389
GlyphClass: 1
Flags: W
LayerCount: 2
Fore
SplineSet
302 275 m 1,0,1
 302 275 302 275 341 275 c 1,2,3
 341 275 341 275 341 110 c 1,4,5
 341 110 341 110 254 0 c 1,6,7
 254 0 254 0 48 0 c 1,8,9
 48 0 48 0 48 62 c 1,10,11
 48 62 48 62 219 62 c 1,12,13
 249 102 249 102 269 128 c 1,14,15
 269 128 269 128 269 213 c 1,16,17
 269 213 269 213 48 213 c 1,18,19
 48 213 48 213 48 379 c 1,20,21
 48 379 48 379 87 427 c 1,22,23
 87 427 87 427 48 427 c 1,24,25
 48 427 48 427 48 608 c 1,26,27
 48 608 48 608 136 717 c 1,28,29
 136 717 136 717 341 717 c 1,30,31
 341 717 341 717 341 656 c 1,32,33
 341 656 341 656 171 656 c 1,34,35
 123 594 123 594 120 590 c 1,36,37
 120 590 120 590 120 489 c 1,38,39
 120 489 120 489 341 489 c 1,40,41
 341 489 341 489 341 324 c 1,42,43
 341 324 341 324 302 275 c 1,0,1
219 276 m 1,44,45
 219 276 219 276 269 342 c 1,46,47
 269 342 269 342 269 427 c 1,48,49
 269 427 269 427 170 427 c 1,50,51
 140 387 140 387 120 361 c 1,52,53
 120 361 120 361 120 276 c 1,54,55
 120 276 120 276 219 276 c 1,44,45
EndSplineSet
Validated: 1
EndChar

StartChar: dieresis
Encoding: 168 168 105
Width: 410
GlyphClass: 1
Flags: W
LayerCount: 2
Fore
SplineSet
46 604 m 5,0,1
 46 604 46 604 46 717 c 5,2,3
 46 717 46 717 159 717 c 5,4,5
 159 717 159 717 159 604 c 5,6,7
 159 604 159 604 46 604 c 5,0,1
251 717 m 5,8,9
 251 717 251 717 364 717 c 5,10,11
 364 717 364 717 364 604 c 5,12,13
 364 604 364 604 251 604 c 5,14,15
 251 604 251 604 251 717 c 5,8,9
EndSplineSet
Validated: 1
EndChar

StartChar: copyright
Encoding: 169 169 106
Width: 717
GlyphClass: 1
Flags: W
LayerCount: 2
Fore
SplineSet
673 717 m 5,0,1
 673 717 673 717 673 0 c 5,2,3
 673 0 673 0 46 0 c 5,4,5
 46 0 46 0 46 717 c 5,6,7
 46 717 46 717 673 717 c 5,0,1
134 70 m 5,8,9
 134 70 134 70 585 70 c 5,10,11
 585 70 585 70 585 648 c 5,12,13
 585 648 585 648 134 648 c 5,14,15
 134 648 134 648 134 70 c 5,8,9
180 447 m 5,16,17
 180 447 180 447 271 561 c 5,18,19
 271 561 271 561 528 561 c 5,20,21
 528 561 528 561 528 497 c 5,22,23
 528 497 528 497 308 497 c 5,24,25
 308 497 308 497 258 433 c 5,26,27
 258 433 258 433 258 217 c 5,28,29
 258 217 258 217 528 217 c 5,30,31
 528 217 528 217 528 152 c 5,32,33
 528 152 528 152 180 152 c 5,34,35
 180 152 180 152 180 447 c 5,16,17
EndSplineSet
Validated: 1
EndChar

StartChar: ordfeminine
Encoding: 170 170 107
Width: 307
GlyphClass: 1
Flags: W
LayerCount: 2
Fore
SplineSet
205 549 m 5,0,1
 205 549 205 549 102 549 c 5,2,3
 102 549 102 549 102 479 c 5,4,5
 102 479 102 479 151 479 c 5,6,7
 164 497 164 497 205 549 c 5,0,1
260 717 m 5,8,9
 260 717 260 717 260 438 c 5,10,11
 260 438 260 438 207 438 c 5,12,13
 207 438 207 438 207 476 c 5,14,15
 200 466 200 466 178 438 c 5,16,17
 178 438 178 438 51 438 c 5,18,19
 51 438 51 438 51 593 c 5,20,21
 51 593 51 593 207 593 c 5,22,23
 207 593 207 593 207 675 c 5,24,25
 207 675 207 675 51 675 c 5,26,27
 51 675 51 675 51 717 c 5,28,29
 51 717 51 717 260 717 c 5,8,9
EndSplineSet
Validated: 1
EndChar

StartChar: guillemotleft
Encoding: 171 171 108
Width: 492
GlyphClass: 1
Flags: W
LayerCount: 2
Fore
SplineSet
352 614 m 5,0,1
 352 614 352 614 454 614 c 5,2,3
 411 555 411 555 282 377 c 5,4,5
 325 318 325 318 454 140 c 5,6,7
 454 140 454 140 352 140 c 5,8,9
 309 200 309 200 180 377 c 5,10,11
 223 437 223 437 352 614 c 5,0,1
208 614 m 5,12,13
 208 614 208 614 311 614 c 5,14,15
 268 555 268 555 139 377 c 5,16,17
 182 318 182 318 311 140 c 5,18,19
 311 140 311 140 208 140 c 5,20,21
 165 200 165 200 36 377 c 5,22,23
 79 437 79 437 208 614 c 5,12,13
EndSplineSet
Validated: 1
EndChar

StartChar: logicalnot
Encoding: 172 172 109
Width: 471
GlyphClass: 1
Flags: W
LayerCount: 2
Fore
SplineSet
328 195 m 5,0,1
 328 195 328 195 328 408 c 5,2,3
 328 408 328 408 41 408 c 5,4,5
 41 408 41 408 41 510 c 5,6,7
 41 510 41 510 430 510 c 5,8,9
 430 510 430 510 430 195 c 5,10,11
 430 195 430 195 328 195 c 5,0,1
EndSplineSet
Validated: 1
EndChar

StartChar: registered
Encoding: 174 174 110
Width: 716
GlyphClass: 1
Flags: W
LayerCount: 2
Fore
SplineSet
45 717 m 1,0,1
 45 717 45 717 672 717 c 1,2,3
 672 717 672 717 672 0 c 1,4,5
 672 0 672 0 45 0 c 1,6,7
 45 0 45 0 45 717 c 1,0,1
584 70 m 1,8,9
 584 70 584 70 584 648 c 1,10,11
 584 648 584 648 133 648 c 1,12,13
 133 648 133 648 133 70 c 1,14,15
 133 70 133 70 584 70 c 1,8,9
436 264 m 1,16,17
 391 318 391 318 385 326 c 1,18,19
 385 326 385 326 287 326 c 1,20,21
 287 326 287 326 287 103 c 1,22,23
 287 103 287 103 212 103 c 1,24,25
 212 103 212 103 212 615 c 1,26,27
 212 615 212 615 511 615 c 1,28,29
 511 615 511 615 511 441 c 1,30,31
 492 413 492 413 470 389 c 1,32,33
 470 389 470 389 470 326 c 1,34,35
 493 300 493 300 511 277 c 1,36,37
 511 277 511 277 511 103 c 1,38,39
 511 103 511 103 436 103 c 1,40,41
 436 103 436 103 436 264 c 1,16,17
385 389 m 1,42,43
 413 427 413 427 436 454 c 1,44,45
 436 454 436 454 436 552 c 1,46,47
 436 552 436 552 287 552 c 1,48,49
 287 552 287 552 287 389 c 1,50,51
 287 389 287 389 385 389 c 1,42,43
EndSplineSet
Validated: 1
EndChar

StartChar: macron
Encoding: 175 175 111
Width: 491
GlyphClass: 1
Flags: W
LayerCount: 2
Fore
SplineSet
451 614 m 5,0,1
 451 614 451 614 451 546 c 5,2,3
 451 546 451 546 42 546 c 5,4,5
 42 546 42 546 42 614 c 5,6,7
 42 614 42 614 451 614 c 5,0,1
EndSplineSet
Validated: 1
EndChar

StartChar: degree
Encoding: 176 176 112
Width: 246
GlyphClass: 1
Flags: W
LayerCount: 2
Fore
SplineSet
48 510 m 5,0,1
 48 510 48 510 48 623 c 5,2,3
 92 679 92 679 107 698 c 5,4,5
 107 698 107 698 202 698 c 5,6,7
 202 698 202 698 202 562 c 5,8,9
 171 523 171 523 161 510 c 5,10,11
 161 510 161 510 48 510 c 5,0,1
82 617 m 5,12,13
 82 617 82 617 82 539 c 5,14,15
 82 539 82 539 145 539 c 5,16,17
 162 561 162 561 168 568 c 5,18,19
 168 568 168 568 168 669 c 5,20,21
 168 669 168 669 123 669 c 5,22,23
 93 630 93 630 82 617 c 5,12,13
EndSplineSet
Validated: 1
EndChar

StartChar: plusminus
Encoding: 177 177 113
Width: 471
GlyphClass: 1
Flags: W
LayerCount: 2
Fore
SplineSet
292 295 m 5,0,1
 292 295 292 295 292 101 c 5,2,3
 292 101 292 101 432 101 c 5,4,5
 432 101 432 101 432 0 c 5,6,7
 432 0 432 0 39 0 c 5,8,9
 39 0 39 0 39 101 c 5,10,11
 39 101 39 101 180 101 c 5,12,13
 180 101 180 101 180 295 c 5,14,15
 180 295 180 295 39 295 c 5,16,17
 39 295 39 295 39 397 c 5,18,19
 39 397 39 397 180 397 c 5,20,21
 180 397 180 397 180 538 c 5,22,23
 180 538 180 538 292 538 c 5,24,25
 292 538 292 538 292 397 c 5,26,27
 292 397 292 397 432 397 c 5,28,29
 432 397 432 397 432 295 c 5,30,31
 432 295 432 295 292 295 c 5,0,1
EndSplineSet
Validated: 1
EndChar

StartChar: twosuperior
Encoding: 178 178 114
Width: 164
GlyphClass: 1
Flags: W
LayerCount: 2
Fore
SplineSet
121 669 m 5,0,1
 108 652 108 652 66 598 c 5,2,3
 66 598 66 598 121 598 c 5,4,5
 121 598 121 598 121 583 c 5,6,7
 121 583 121 583 43 583 c 5,8,9
 43 583 43 583 43 599 c 5,10,11
 58 617 58 617 102 673 c 5,12,13
 102 673 102 673 102 701 c 5,14,15
 102 701 102 701 43 701 c 5,16,17
 43 701 43 701 43 717 c 5,18,19
 43 717 43 717 121 717 c 5,20,21
 121 717 121 717 121 669 c 5,0,1
EndSplineSet
Validated: 1
EndChar

StartChar: threesuperior
Encoding: 179 179 115
Width: 164
GlyphClass: 1
Flags: W
LayerCount: 2
Fore
SplineSet
122 717 m 5,0,1
 122 717 122 717 122 661 c 5,2,3
 119 657 119 657 110 646 c 5,4,5
 110 646 110 646 122 630 c 5,6,7
 122 630 122 630 122 583 c 5,8,9
 122 583 122 583 44 583 c 5,10,11
 44 583 44 583 44 599 c 5,12,13
 44 599 44 599 102 599 c 5,14,15
 102 599 102 599 102 627 c 5,16,17
 102 627 102 627 90 643 c 5,18,19
 90 643 90 643 44 643 c 5,20,21
 44 643 44 643 44 660 c 5,22,23
 44 660 44 660 99 660 c 5,24,25
 100 661 100 661 102 664 c 5,26,27
 102 664 102 664 102 700 c 5,28,29
 102 700 102 700 44 700 c 5,30,31
 44 700 44 700 44 717 c 5,32,33
 44 717 44 717 122 717 c 5,0,1
EndSplineSet
Validated: 1
EndChar

StartChar: acute
Encoding: 180 180 116
Width: 245
GlyphClass: 1
Flags: W
LayerCount: 2
Fore
SplineSet
127 615 m 5,0,1
 127 615 127 615 47 615 c 5,2,3
 65 640 65 640 121 717 c 5,4,5
 121 717 121 717 201 717 c 5,6,7
 182 691 182 691 127 615 c 5,0,1
EndSplineSet
Validated: 1
EndChar

StartChar: mu
Encoding: 181 181 117
Width: 471
GlyphClass: 1
Flags: W
LayerCount: 2
Fore
SplineSet
232 81 m 1,0,1
 256 113 256 113 332 209 c 1,2,3
 332 209 332 209 332 510 c 1,4,5
 332 510 332 510 429 510 c 1,6,7
 429 510 429 510 429 0 c 1,8,9
 429 0 429 0 332 0 c 1,10,11
 332 0 332 0 332 68 c 1,12,13
 310 42 310 42 278 0 c 1,14,15
 278 0 278 0 145 0 c 1,16,17
 145 0 145 0 145 -148 c 1,18,19
 145 -148 145 -148 46 -148 c 1,20,21
 46 -148 46 -148 46 510 c 1,22,23
 46 510 46 510 143 510 c 1,24,25
 143 510 143 510 143 81 c 1,26,27
 143 81 143 81 232 81 c 1,0,1
EndSplineSet
Validated: 1
EndChar

StartChar: paragraph
Encoding: 182 182 118
Width: 635
GlyphClass: 1
Flags: W
LayerCount: 2
Fore
SplineSet
169 312 m 5,0,1
 169 312 169 312 41 474 c 5,2,3
 41 474 41 474 41 717 c 5,4,5
 41 717 41 717 596 717 c 5,6,7
 596 717 596 717 596 0 c 5,8,9
 596 0 596 0 490 0 c 5,10,11
 490 0 490 0 490 611 c 5,12,13
 490 611 490 611 461 611 c 5,14,15
 461 611 461 611 461 0 c 5,16,17
 461 0 461 0 355 0 c 5,18,19
 355 0 355 0 355 312 c 5,20,21
 355 312 355 312 169 312 c 5,0,1
EndSplineSet
Validated: 1
EndChar

StartChar: periodcentered
Encoding: 183 183 119
Width: 164
GlyphClass: 1
Flags: W
LayerCount: 2
Fore
SplineSet
45 367 m 5,0,1
 53 377 53 377 76 406 c 5,2,3
 76 406 76 406 126 406 c 5,4,5
 126 406 126 406 126 335 c 5,6,7
 121 328 121 328 104 307 c 5,8,9
 104 307 104 307 45 307 c 5,10,11
 45 307 45 307 45 367 c 5,0,1
EndSplineSet
Validated: 1
EndChar

StartChar: cedilla
Encoding: 184 184 120
Width: 205
GlyphClass: 1
Flags: W
LayerCount: 2
Fore
SplineSet
161 -65 m 5,0,1
 161 -65 161 -65 161 -195 c 5,2,3
 161 -195 161 -195 44 -195 c 5,4,5
 44 -195 44 -195 44 -158 c 5,6,7
 44 -158 44 -158 117 -158 c 5,8,9
 117 -158 117 -158 117 -73 c 5,10,11
 110 -64 110 -64 88 -37 c 5,12,13
 88 -37 88 -37 44 -37 c 5,14,15
 44 -37 44 -37 44 0 c 5,16,17
 44 0 44 0 109 0 c 5,18,19
 122 -16 122 -16 161 -65 c 5,0,1
EndSplineSet
Validated: 1
EndChar

StartChar: onesuperior
Encoding: 185 185 121
Width: 164
GlyphClass: 1
Flags: W
LayerCount: 2
Fore
SplineSet
43 582 m 5,0,1
 43 582 43 582 43 598 c 5,2,3
 43 598 43 598 73 598 c 5,4,5
 73 598 73 598 73 691 c 5,6,7
 70 687 70 687 62 675 c 5,8,9
 62 675 62 675 43 675 c 5,10,11
 43 675 43 675 43 691 c 5,12,13
 43 691 43 691 52 691 c 5,14,15
 57 698 57 698 73 718 c 5,16,17
 73 718 73 718 93 718 c 5,18,19
 93 718 93 718 93 598 c 5,20,21
 93 598 93 598 122 598 c 5,22,23
 122 598 122 598 122 582 c 5,24,25
 122 582 122 582 43 582 c 5,0,1
EndSplineSet
Validated: 1
EndChar

StartChar: ordmasculine
Encoding: 186 186 122
Width: 246
GlyphClass: 1
Flags: W
LayerCount: 2
Fore
SplineSet
45 623 m 5,0,1
 60 642 60 642 104 698 c 5,2,3
 104 698 104 698 199 698 c 5,4,5
 199 698 199 698 199 562 c 5,6,7
 189 549 189 549 158 510 c 5,8,9
 158 510 158 510 45 510 c 5,10,11
 45 510 45 510 45 623 c 5,0,1
79 539 m 5,12,13
 79 539 79 539 142 539 c 5,14,15
 147 546 147 546 165 568 c 5,16,17
 165 568 165 568 165 669 c 5,18,19
 165 669 165 669 120 669 c 5,20,21
 110 656 110 656 79 617 c 5,22,23
 79 617 79 617 79 539 c 5,12,13
EndSplineSet
Validated: 1
EndChar

StartChar: guillemotright
Encoding: 187 187 123
Width: 492
GlyphClass: 1
Flags: W
LayerCount: 2
Fore
SplineSet
147 614 m 5,0,1
 276 437 276 437 319 377 c 5,2,3
 190 200 190 200 147 140 c 5,4,5
 147 140 147 140 45 140 c 5,6,7
 174 318 174 318 217 377 c 5,8,9
 88 555 88 555 45 614 c 5,10,11
 45 614 45 614 147 614 c 5,0,1
290 614 m 5,12,13
 419 437 419 437 462 377 c 5,14,15
 333 200 333 200 290 140 c 5,16,17
 290 140 290 140 188 140 c 5,18,19
 317 318 317 318 360 377 c 5,20,21
 231 555 231 555 188 614 c 5,22,23
 188 614 188 614 290 614 c 5,12,13
EndSplineSet
Validated: 1
EndChar

StartChar: onequarter
Encoding: 188 188 124
Width: 758
GlyphClass: 1
Flags: W
LayerCount: 2
Fore
SplineSet
151 0 m 5,0,1
 151 0 151 0 49 0 c 5,2,3
 190 179 190 179 615 717 c 5,4,5
 615 717 615 717 705 717 c 5,6,7
 566 537 566 537 151 0 c 5,0,1
75 356 m 5,8,9
 75 356 75 356 75 398 c 5,10,11
 75 398 75 398 155 398 c 5,12,13
 155 398 155 398 155 646 c 5,14,15
 147 635 147 635 125 602 c 5,16,17
 125 602 125 602 75 602 c 5,18,19
 75 602 75 602 75 646 c 5,20,21
 75 646 75 646 100 646 c 5,22,23
 114 664 114 664 155 716 c 5,24,25
 155 716 155 716 208 716 c 5,26,27
 208 716 208 716 208 398 c 5,28,29
 208 398 208 398 285 398 c 5,30,31
 285 398 285 398 285 356 c 5,32,33
 285 356 285 356 75 356 c 5,8,9
465 361 m 5,34,35
 465 361 465 361 517 361 c 5,36,37
 517 361 517 361 517 208 c 5,38,39
 517 208 517 208 574 208 c 5,40,41
 574 208 574 208 574 361 c 5,42,43
 574 361 574 361 626 361 c 5,44,45
 626 361 626 361 626 208 c 5,46,47
 626 208 626 208 678 208 c 5,48,49
 678 208 678 208 678 164 c 5,50,51
 678 164 678 164 626 164 c 5,52,53
 626 164 626 164 626 0 c 5,54,55
 626 0 626 0 574 0 c 5,56,57
 574 0 574 0 574 164 c 5,58,59
 574 164 574 164 465 164 c 5,60,61
 465 164 465 164 465 361 c 5,34,35
EndSplineSet
Validated: 1
EndChar

StartChar: onehalf
Encoding: 189 189 125
Width: 758
GlyphClass: 1
Flags: W
LayerCount: 2
Fore
SplineSet
151 0 m 5,0,1
 151 0 151 0 49 0 c 5,2,3
 190 179 190 179 615 717 c 5,4,5
 615 717 615 717 705 717 c 5,6,7
 566 537 566 537 151 0 c 5,0,1
75 356 m 5,8,9
 75 356 75 356 75 398 c 5,10,11
 75 398 75 398 155 398 c 5,12,13
 155 398 155 398 155 646 c 5,14,15
 147 635 147 635 125 602 c 5,16,17
 125 602 125 602 75 602 c 5,18,19
 75 602 75 602 75 646 c 5,20,21
 75 646 75 646 100 646 c 5,22,23
 114 664 114 664 155 716 c 5,24,25
 155 716 155 716 208 716 c 5,26,27
 208 716 208 716 208 398 c 5,28,29
 208 398 208 398 285 398 c 5,30,31
 285 398 285 398 285 356 c 5,32,33
 285 356 285 356 75 356 c 5,8,9
674 234 m 5,34,35
 637 186 637 186 525 42 c 5,36,37
 525 42 525 42 674 42 c 5,38,39
 674 42 674 42 674 -1 c 5,40,41
 674 -1 674 -1 462 -1 c 5,42,43
 462 -1 462 -1 462 43 c 5,44,45
 502 93 502 93 621 245 c 5,46,47
 621 245 621 245 621 321 c 5,48,49
 621 321 621 321 462 321 c 5,50,51
 462 321 462 321 462 363 c 5,52,53
 462 363 462 363 674 363 c 5,54,55
 674 363 674 363 674 234 c 5,34,35
EndSplineSet
Validated: 1
EndChar

StartChar: threequarters
Encoding: 190 190 126
Width: 758
GlyphClass: 1
Flags: W
LayerCount: 2
Fore
SplineSet
151 0 m 5,0,1
 151 0 151 0 49 0 c 5,2,3
 190 179 190 179 615 717 c 5,4,5
 615 717 615 717 705 717 c 5,6,7
 566 537 566 537 151 0 c 5,0,1
465 164 m 5,8,9
 465 164 465 164 465 361 c 5,10,11
 465 361 465 361 517 361 c 5,12,13
 517 361 517 361 517 208 c 5,14,15
 517 208 517 208 574 208 c 5,16,17
 574 208 574 208 574 361 c 5,18,19
 574 361 574 361 626 361 c 5,20,21
 626 361 626 361 626 208 c 5,22,23
 626 208 626 208 678 208 c 5,24,25
 678 208 678 208 678 164 c 5,26,27
 678 164 678 164 626 164 c 5,28,29
 626 164 626 164 626 0 c 5,30,31
 626 0 626 0 574 0 c 5,32,33
 574 0 574 0 574 164 c 5,34,35
 574 164 574 164 465 164 c 5,8,9
287 717 m 5,36,37
 287 717 287 717 287 565 c 5,38,39
 279 555 279 555 254 525 c 5,40,41
 263 515 263 515 287 484 c 5,42,43
 287 484 287 484 287 355 c 5,44,45
 287 355 287 355 76 355 c 5,46,47
 76 355 76 355 76 400 c 5,48,49
 76 400 76 400 233 400 c 5,50,51
 233 400 233 400 233 475 c 5,52,53
 225 486 225 486 199 519 c 5,54,55
 199 519 199 519 76 519 c 5,56,57
 76 519 76 519 76 563 c 5,58,59
 76 563 76 563 224 563 c 5,60,61
 227 566 227 566 233 575 c 5,62,63
 233 575 233 575 233 672 c 5,64,65
 233 672 233 672 76 672 c 5,66,67
 76 672 76 672 76 717 c 5,68,69
 76 717 76 717 287 717 c 5,36,37
EndSplineSet
Validated: 1
EndChar

StartChar: questiondown
Encoding: 191 191 127
Width: 512
GlyphClass: 1
Flags: W
LayerCount: 2
Fore
SplineSet
48 0 m 5,0,1
 48 0 48 0 48 168 c 5,2,3
 126 250 126 250 360 494 c 5,4,5
 360 494 360 494 360 578 c 5,6,7
 360 578 360 578 466 578 c 5,8,9
 466 578 466 578 466 494 c 5,10,11
 388 413 388 413 152 168 c 5,12,13
 152 168 152 168 152 84 c 5,14,15
 152 84 152 84 360 84 c 5,16,17
 360 84 360 84 360 168 c 5,18,19
 360 168 360 168 466 168 c 5,20,21
 466 168 466 168 466 0 c 5,22,23
 466 0 466 0 48 0 c 5,0,1
466 633 m 5,24,25
 466 633 466 633 360 633 c 5,26,27
 360 633 360 633 360 717 c 5,28,29
 360 717 360 717 466 717 c 5,30,31
 466 717 466 717 466 633 c 5,24,25
EndSplineSet
Validated: 1
EndChar

StartChar: Agrave
Encoding: 192 192 128
Width: 553
GlyphClass: 1
Flags: W
LayerCount: 2
Fore
SplineSet
380 401 m 5,0,1
 380 401 380 401 380 629 c 5,2,3
 380 629 380 629 283 629 c 5,4,5
 256 595 256 595 173 490 c 5,6,7
 173 490 173 490 173 401 c 5,8,9
 173 401 173 401 380 401 c 5,0,1
232 717 m 5,10,11
 232 717 232 717 486 717 c 5,12,13
 486 717 486 717 486 0 c 5,14,15
 486 0 486 0 380 0 c 5,16,17
 380 0 380 0 380 312 c 5,18,19
 380 312 380 312 173 312 c 5,20,21
 173 312 173 312 173 0 c 5,22,23
 173 0 173 0 67 0 c 5,24,25
 67 0 67 0 67 507 c 5,26,27
 109 559 109 559 232 717 c 5,10,11
230 859 m 5,28,29
 230 859 230 859 310 859 c 5,30,31
 329 833 329 833 384 757 c 5,32,33
 384 757 384 757 304 757 c 5,34,35
 286 782 286 782 230 859 c 5,28,29
EndSplineSet
Validated: 1
EndChar

StartChar: Aacute
Encoding: 193 193 129
Width: 553
GlyphClass: 1
Flags: W
LayerCount: 2
Fore
SplineSet
173 401 m 5,0,1
 173 401 173 401 380 401 c 5,2,3
 380 401 380 401 380 629 c 5,4,5
 380 629 380 629 283 629 c 5,6,7
 201 525 201 525 173 490 c 5,8,9
 173 490 173 490 173 401 c 5,0,1
67 508 m 5,10,11
 191 665 191 665 232 717 c 5,12,13
 232 717 232 717 486 717 c 5,14,15
 486 717 486 717 486 0 c 5,16,17
 486 0 486 0 380 0 c 5,18,19
 380 0 380 0 380 312 c 5,20,21
 380 312 380 312 173 312 c 5,22,23
 173 312 173 312 173 0 c 5,24,25
 173 0 173 0 67 0 c 5,26,27
 67 0 67 0 67 508 c 5,10,11
346 758 m 5,28,29
 346 758 346 758 265 758 c 5,30,31
 284 783 284 783 339 860 c 5,32,33
 339 860 339 860 419 860 c 5,34,35
 401 834 401 834 346 758 c 5,28,29
EndSplineSet
Validated: 1
EndChar

StartChar: Acircumflex
Encoding: 194 194 130
Width: 553
GlyphClass: 1
Flags: W
LayerCount: 2
Fore
SplineSet
380 401 m 1,0,1
 380 401 380 401 380 629 c 1,2,3
 380 629 380 629 283 629 c 1,4,5
 256 595 256 595 173 490 c 1,6,7
 173 490 173 490 173 401 c 1,8,9
 173 401 173 401 380 401 c 1,0,1
232 717 m 1,10,11
 232 717 232 717 486 717 c 1,12,13
 486 717 486 717 486 0 c 1,14,15
 486 0 486 0 380 0 c 1,16,17
 380 0 380 0 380 312 c 1,18,19
 380 312 380 312 173 312 c 1,20,21
 173 312 173 312 173 0 c 1,22,23
 173 0 173 0 67 0 c 1,24,25
 67 0 67 0 67 507 c 1,26,27
 109 559 109 559 232 717 c 1,10,11
420 755 m 5,28,29
 420 755 420 755 376 755 c 1,30,31
 376 755 376 755 326 827 c 1,32,33
 326 827 326 827 274 755 c 1,34,35
 274 755 274 755 231 755 c 1,36,37
 231 755 231 755 304 858 c 1,38,39
 304 858 304 858 347 858 c 5,40,41
 347 858 347 858 420 755 c 5,28,29
EndSplineSet
Validated: 1
EndChar

StartChar: Atilde
Encoding: 195 195 131
Width: 553
GlyphClass: 1
Flags: W
LayerCount: 2
Fore
SplineSet
232 717 m 5,0,1
 232 717 232 717 486 717 c 5,2,3
 486 717 486 717 486 0 c 5,4,5
 486 0 486 0 380 0 c 5,6,7
 380 0 380 0 380 312 c 5,8,9
 380 312 380 312 173 312 c 5,10,11
 173 312 173 312 173 0 c 5,12,13
 173 0 173 0 67 0 c 5,14,15
 67 0 67 0 67 507 c 5,16,17
 109 559 109 559 232 717 c 5,0,1
380 401 m 5,18,19
 380 401 380 401 380 629 c 5,20,21
 380 629 380 629 283 629 c 5,22,23
 256 595 256 595 173 490 c 5,24,25
 173 490 173 490 173 401 c 5,26,27
 173 401 173 401 380 401 c 5,18,19
250 751 m 5,28,29
 250 751 250 751 250 804 c 5,30,31
 250 804 250 804 122 804 c 5,32,33
 122 804 122 804 122 856 c 5,34,35
 122 856 122 856 323 856 c 5,36,37
 323 856 323 856 323 804 c 5,38,39
 323 804 323 804 451 804 c 5,40,41
 451 804 451 804 451 751 c 5,42,43
 451 751 451 751 250 751 c 5,28,29
EndSplineSet
Validated: 1
EndChar

StartChar: Adieresis
Encoding: 196 196 132
Width: 553
GlyphClass: 1
Flags: W
LayerCount: 2
Fore
SplineSet
380 401 m 5,0,1
 380 401 380 401 380 629 c 5,2,3
 380 629 380 629 283 629 c 5,4,5
 256 595 256 595 173 490 c 5,6,7
 173 490 173 490 173 401 c 5,8,9
 173 401 173 401 380 401 c 5,0,1
232 717 m 5,10,11
 232 717 232 717 486 717 c 5,12,13
 486 717 486 717 486 0 c 5,14,15
 486 0 486 0 380 0 c 5,16,17
 380 0 380 0 380 312 c 5,18,19
 380 312 380 312 173 312 c 5,20,21
 173 312 173 312 173 0 c 5,22,23
 173 0 173 0 67 0 c 5,24,25
 67 0 67 0 67 507 c 5,26,27
 109 559 109 559 232 717 c 5,10,11
160 761 m 5,28,29
 160 761 160 761 160 857 c 5,30,31
 160 857 160 857 256 857 c 5,32,33
 256 857 256 857 256 761 c 5,34,35
 256 761 256 761 160 761 c 5,28,29
334 857 m 5,36,37
 334 857 334 857 430 857 c 5,38,39
 430 857 430 857 430 761 c 5,40,41
 430 761 430 761 334 761 c 5,42,43
 334 761 334 761 334 857 c 5,36,37
EndSplineSet
Validated: 1
EndChar

StartChar: Aring
Encoding: 197 197 133
Width: 553
GlyphClass: 1
Flags: W
LayerCount: 2
Fore
SplineSet
271 810 m 5,0,1
 280 822 280 822 308 857 c 5,2,3
 308 857 308 857 368 857 c 5,4,5
 368 857 368 857 368 772 c 5,6,7
 361 764 361 764 342 739 c 5,8,9
 342 739 342 739 271 739 c 5,10,11
 271 739 271 739 271 810 c 5,0,1
292 757 m 5,12,13
 292 757 292 757 332 757 c 5,14,15
 335 762 335 762 346 776 c 5,16,17
 346 776 346 776 346 839 c 5,18,19
 346 839 346 839 318 839 c 5,20,21
 312 831 312 831 292 807 c 5,22,23
 292 807 292 807 292 757 c 5,12,13
232 717 m 5,24,25
 232 717 232 717 486 717 c 5,26,27
 486 717 486 717 486 0 c 5,28,29
 486 0 486 0 380 0 c 5,30,31
 380 0 380 0 380 312 c 5,32,33
 380 312 380 312 173 312 c 5,34,35
 173 312 173 312 173 0 c 5,36,37
 173 0 173 0 67 0 c 5,38,39
 67 0 67 0 67 507 c 5,40,41
 109 559 109 559 232 717 c 5,24,25
380 401 m 5,42,43
 380 401 380 401 380 629 c 5,44,45
 380 629 380 629 283 629 c 5,46,47
 256 595 256 595 173 490 c 5,48,49
 173 490 173 490 173 401 c 5,50,51
 173 401 173 401 380 401 c 5,42,43
EndSplineSet
Validated: 1
EndChar

StartChar: AE
Encoding: 198 198 134
Width: 860
GlyphClass: 1
Flags: W
LayerCount: 2
Fore
SplineSet
378 629 m 1,0,-1
 281 629 l 1,1,2
 253 595 253 595 171 490 c 1,3,-1
 171 401 l 1,4,-1
 378 401 l 1,5,-1
 378 629 l 1,0,-1
378 0 m 1,6,-1
 378 312 l 1,7,-1
 171 312 l 1,8,-1
 171 0 l 1,9,-1
 65 0 l 1,10,-1
 65 508 l 1,11,12
 106 560 106 560 230 717 c 1,13,-1
 484 717 l 1,14,-1
 484 694 l 1,15,-1
 502 717 l 1,16,-1
 797 717 l 1,17,-1
 797 629 l 1,18,-1
 553 629 l 1,19,20
 536 608 536 608 484 543 c 1,21,-1
 484 412 l 1,22,-1
 797 412 l 1,23,-1
 797 324 l 1,24,-1
 484 324 l 1,25,-1
 484 88 l 1,26,-1
 797 88 l 1,27,-1
 797 0 l 1,28,-1
 378 0 l 1,6,-1
EndSplineSet
Validated: 1
EndChar

StartChar: Ccedilla
Encoding: 199 199 135
Width: 553
GlyphClass: 1
Flags: W
LayerCount: 2
Fore
SplineSet
341 -65 m 5,0,1
 341 -65 341 -65 341 -194 c 5,2,3
 341 -194 341 -194 224 -194 c 5,4,5
 224 -194 224 -194 224 -158 c 5,6,7
 224 -158 224 -158 297 -158 c 5,8,9
 297 -158 297 -158 297 -73 c 5,10,11
 297 -73 297 -73 269 -37 c 5,12,13
 269 -37 269 -37 224 -37 c 5,14,15
 224 -37 224 -37 224 0 c 5,16,-1
 68 0 l 5,17,18
 68 0 68 0 68 561 c 5,19,20
 68 561 68 561 192 717 c 5,21,22
 192 717 192 717 487 717 c 5,23,24
 487 717 487 717 487 629 c 5,25,26
 487 629 487 629 243 629 c 5,27,28
 226 608 226 608 174 543 c 5,29,30
 174 543 174 543 174 88 c 5,31,32
 174 88 174 88 487 88 c 5,33,34
 487 88 487 88 487 0 c 5,35,-1
 289 0 l 5,36,37
 302 -16 302 -16 341 -65 c 5,0,1
EndSplineSet
Validated: 1
EndChar

StartChar: Egrave
Encoding: 200 200 136
Width: 553
GlyphClass: 1
Flags: W
LayerCount: 2
Fore
SplineSet
173 543 m 5,0,1
 173 543 173 543 173 412 c 5,2,3
 173 412 173 412 486 412 c 5,4,5
 486 412 486 412 486 324 c 5,6,7
 486 324 486 324 173 324 c 5,8,9
 173 324 173 324 173 88 c 5,10,11
 173 88 173 88 486 88 c 5,12,13
 486 88 486 88 486 0 c 5,14,15
 486 0 486 0 67 0 c 5,16,17
 67 0 67 0 67 561 c 5,18,19
 67 561 67 561 191 717 c 5,20,21
 191 717 191 717 486 717 c 5,22,23
 486 717 486 717 486 629 c 5,24,25
 486 629 486 629 242 629 c 5,26,27
 225 608 225 608 173 543 c 5,0,1
230 860 m 5,28,29
 230 860 230 860 310 860 c 5,30,31
 329 834 329 834 384 758 c 5,32,33
 384 758 384 758 304 758 c 5,34,35
 286 783 286 783 230 860 c 5,28,29
EndSplineSet
Validated: 1
EndChar

StartChar: Eacute
Encoding: 201 201 137
Width: 553
GlyphClass: 1
Flags: W
LayerCount: 2
Fore
SplineSet
173 543 m 5,0,1
 173 543 173 543 173 412 c 5,2,3
 173 412 173 412 486 412 c 5,4,5
 486 412 486 412 486 324 c 5,6,7
 486 324 486 324 173 324 c 5,8,9
 173 324 173 324 173 88 c 5,10,11
 173 88 173 88 486 88 c 5,12,13
 486 88 486 88 486 0 c 5,14,15
 486 0 486 0 67 0 c 5,16,17
 67 0 67 0 67 561 c 5,18,19
 67 561 67 561 191 717 c 5,20,21
 191 717 191 717 486 717 c 5,22,23
 486 717 486 717 486 629 c 5,24,25
 486 629 486 629 242 629 c 5,26,27
 225 608 225 608 173 543 c 5,0,1
305 758 m 5,28,29
 305 758 305 758 225 758 c 5,30,31
 244 783 244 783 299 860 c 5,32,33
 299 860 299 860 379 860 c 5,34,35
 361 834 361 834 305 758 c 5,28,29
EndSplineSet
Validated: 1
EndChar

StartChar: Ecircumflex
Encoding: 202 202 138
Width: 553
GlyphClass: 1
Flags: W
LayerCount: 2
Fore
SplineSet
175 543 m 1,0,1
 175 543 175 543 175 412 c 1,2,3
 175 412 175 412 487 412 c 1,4,5
 487 412 487 412 487 324 c 1,6,7
 487 324 487 324 175 324 c 1,8,9
 175 324 175 324 175 88 c 1,10,11
 175 88 175 88 487 88 c 1,12,13
 487 88 487 88 487 0 c 1,14,15
 487 0 487 0 69 0 c 1,16,17
 69 0 69 0 69 561 c 1,18,19
 69 561 69 561 193 717 c 1,20,21
 193 717 193 717 487 717 c 1,22,23
 487 717 487 717 487 629 c 1,24,25
 487 629 487 629 243 629 c 1,26,27
 226 608 226 608 175 543 c 1,0,1
300 830 m 1,28,29
 296 824 296 824 249 758 c 1,30,31
 249 758 249 758 206 758 c 1,32,33
 206 758 206 758 279 861 c 1,34,35
 279 861 279 861 322 861 c 1,36,37
 322 861 322 861 395 758 c 1,38,39
 395 758 395 758 351 758 c 1,40,41
 351 758 351 758 300 830 c 1,28,29
EndSplineSet
Validated: 1
EndChar

StartChar: Edieresis
Encoding: 203 203 139
Width: 553
GlyphClass: 1
Flags: W
LayerCount: 2
Fore
SplineSet
173 543 m 5,0,1
 173 543 173 543 173 412 c 5,2,3
 173 412 173 412 486 412 c 5,4,5
 486 412 486 412 486 324 c 5,6,7
 486 324 486 324 173 324 c 5,8,9
 173 324 173 324 173 88 c 5,10,11
 173 88 173 88 486 88 c 5,12,13
 486 88 486 88 486 0 c 5,14,15
 486 0 486 0 67 0 c 5,16,17
 67 0 67 0 67 561 c 5,18,19
 67 561 67 561 191 717 c 5,20,21
 191 717 191 717 486 717 c 5,22,23
 486 717 486 717 486 629 c 5,24,25
 486 629 486 629 242 629 c 5,26,27
 225 608 225 608 173 543 c 5,0,1
168 762 m 5,28,29
 168 762 168 762 168 858 c 5,30,31
 168 858 168 858 264 858 c 5,32,33
 264 858 264 858 264 762 c 5,34,35
 264 762 264 762 168 762 c 5,28,29
342 858 m 5,36,37
 342 858 342 858 438 858 c 5,38,39
 438 858 438 858 438 762 c 5,40,41
 438 762 438 762 342 762 c 5,42,43
 342 762 342 762 342 858 c 5,36,37
EndSplineSet
Validated: 1
EndChar

StartChar: Igrave
Encoding: 204 204 140
Width: 553
GlyphClass: 1
Flags: W
LayerCount: 2
Fore
SplineSet
485 717 m 5,0,1
 485 717 485 717 485 633 c 5,2,3
 485 633 485 633 331 633 c 5,4,5
 331 633 331 633 331 84 c 5,6,7
 331 84 331 84 485 84 c 5,8,9
 485 84 485 84 485 0 c 5,10,11
 485 0 485 0 67 0 c 5,12,13
 67 0 67 0 67 84 c 5,14,15
 67 84 67 84 224 84 c 5,16,17
 224 84 224 84 224 633 c 5,18,19
 224 633 224 633 67 633 c 5,20,21
 67 633 67 633 67 717 c 5,22,23
 67 717 67 717 485 717 c 5,0,1
177 860 m 5,24,25
 177 860 177 860 257 860 c 5,26,27
 275 834 275 834 331 758 c 5,28,29
 331 758 331 758 250 758 c 5,30,31
 232 783 232 783 177 860 c 5,24,25
EndSplineSet
Validated: 1
EndChar

StartChar: Iacute
Encoding: 205 205 141
Width: 553
GlyphClass: 1
Flags: W
LayerCount: 2
Fore
SplineSet
485 717 m 5,0,1
 485 717 485 717 485 633 c 5,2,3
 485 633 485 633 331 633 c 5,4,5
 331 633 331 633 331 84 c 5,6,7
 331 84 331 84 485 84 c 5,8,9
 485 84 485 84 485 0 c 5,10,11
 485 0 485 0 67 0 c 5,12,13
 67 0 67 0 67 84 c 5,14,15
 67 84 67 84 224 84 c 5,16,17
 224 84 224 84 224 633 c 5,18,19
 224 633 224 633 67 633 c 5,20,21
 67 633 67 633 67 717 c 5,22,23
 67 717 67 717 485 717 c 5,0,1
326 758 m 5,24,25
 326 758 326 758 246 758 c 5,26,27
 264 783 264 783 320 860 c 5,28,29
 320 860 320 860 400 860 c 5,30,31
 381 834 381 834 326 758 c 5,24,25
EndSplineSet
Validated: 1
EndChar

StartChar: Icircumflex
Encoding: 206 206 142
Width: 553
GlyphClass: 1
Flags: W
LayerCount: 2
Fore
SplineSet
488 717 m 1,0,1
 488 717 488 717 488 633 c 1,2,3
 488 633 488 633 333 633 c 1,4,5
 333 633 333 633 333 84 c 1,6,7
 333 84 333 84 488 84 c 1,8,9
 488 84 488 84 488 0 c 1,10,11
 488 0 488 0 69 0 c 1,12,13
 69 0 69 0 69 84 c 1,14,15
 69 84 69 84 227 84 c 1,16,17
 227 84 227 84 227 633 c 1,18,19
 227 633 227 633 69 633 c 1,20,21
 69 633 69 633 69 717 c 1,22,23
 69 717 69 717 488 717 c 1,0,1
183 758 m 1,24,25
 202 785 202 785 257 861 c 1,26,27
 257 861 257 861 300 861 c 1,28,29
 345 796 345 796 373 758 c 1,30,31
 373 758 373 758 329 758 c 1,32,33
 329 758 329 758 278 830 c 1,34,35
 231 764 231 764 227 758 c 1,36,37
 227 758 227 758 183 758 c 1,24,25
EndSplineSet
Validated: 1
EndChar

StartChar: Idieresis
Encoding: 207 207 143
Width: 553
GlyphClass: 1
Flags: W
LayerCount: 2
Fore
SplineSet
485 717 m 5,0,1
 485 717 485 717 485 633 c 5,2,3
 485 633 485 633 331 633 c 5,4,5
 331 633 331 633 331 84 c 5,6,7
 331 84 331 84 485 84 c 5,8,9
 485 84 485 84 485 0 c 5,10,11
 485 0 485 0 67 0 c 5,12,13
 67 0 67 0 67 84 c 5,14,15
 67 84 67 84 224 84 c 5,16,17
 224 84 224 84 224 633 c 5,18,19
 224 633 224 633 67 633 c 5,20,21
 67 633 67 633 67 717 c 5,22,23
 67 717 67 717 485 717 c 5,0,1
144 759 m 5,24,25
 144 759 144 759 144 854 c 5,26,27
 144 854 144 854 240 854 c 5,28,29
 240 854 240 854 240 759 c 5,30,31
 240 759 240 759 144 759 c 5,24,25
319 854 m 5,32,33
 319 854 319 854 414 854 c 5,34,35
 414 854 414 854 414 759 c 5,36,37
 414 759 414 759 319 759 c 5,38,39
 319 759 319 759 319 854 c 5,32,33
EndSplineSet
Validated: 1
EndChar

StartChar: Eth
Encoding: 208 208 144
Width: 675
GlyphClass: 1
Flags: W
LayerCount: 2
Fore
SplineSet
488 717 m 5,0,1
 530 664 530 664 615 556 c 5,2,3
 615 556 615 556 615 162 c 5,4,5
 573 108 573 108 488 1 c 5,6,7
 488 1 488 1 196 1 c 5,8,9
 196 1 196 1 196 315 c 5,10,11
 196 315 196 315 60 315 c 5,12,13
 60 315 60 315 60 403 c 5,14,15
 60 403 60 403 196 403 c 5,16,17
 196 403 196 403 196 717 c 5,18,19
 196 717 196 717 488 717 c 5,0,1
509 180 m 5,20,21
 509 180 509 180 509 538 c 5,22,23
 486 568 486 568 438 629 c 5,24,25
 438 629 438 629 301 629 c 5,26,27
 301 629 301 629 301 403 c 5,28,29
 301 403 301 403 437 403 c 5,30,31
 437 403 437 403 437 315 c 5,32,33
 437 315 437 315 301 315 c 5,34,35
 301 315 301 315 301 89 c 5,36,37
 301 89 301 89 438 89 c 5,38,39
 462 119 462 119 509 180 c 5,20,21
EndSplineSet
Validated: 1
EndChar

StartChar: Ntilde
Encoding: 209 209 145
Width: 553
GlyphClass: 1
Flags: W
LayerCount: 2
Fore
SplineSet
173 0 m 5,0,1
 173 0 173 0 67 0 c 5,2,3
 67 0 67 0 67 717 c 5,4,5
 67 717 67 717 173 717 c 5,6,7
 173 717 173 717 173 560 c 5,8,9
 225 495 225 495 380 298 c 5,10,11
 380 298 380 298 380 717 c 5,12,13
 380 717 380 717 486 717 c 5,14,15
 486 717 486 717 486 0 c 5,16,17
 486 0 486 0 380 0 c 5,18,19
 380 0 380 0 380 133 c 5,20,21
 328 200 328 200 173 403 c 5,22,23
 173 403 173 403 173 0 c 5,0,1
239 758 m 5,24,25
 239 758 239 758 239 807 c 5,26,27
 239 807 239 807 112 807 c 5,28,29
 112 807 112 807 112 857 c 5,30,31
 112 857 112 857 313 857 c 5,32,33
 313 857 313 857 313 807 c 5,34,35
 313 807 313 807 440 807 c 5,36,37
 440 807 440 807 440 758 c 5,38,39
 440 758 440 758 239 758 c 5,24,25
EndSplineSet
Validated: 1
EndChar

StartChar: Ograve
Encoding: 210 210 146
Width: 615
GlyphClass: 1
Flags: W
LayerCount: 2
Fore
SplineSet
230 860 m 5,0,1
 230 860 230 860 310 860 c 5,2,3
 329 834 329 834 384 758 c 5,4,5
 384 758 384 758 304 758 c 5,6,7
 286 783 286 783 230 860 c 5,0,1
67 487 m 5,8,9
 112 544 112 544 248 717 c 5,10,11
 248 717 248 717 543 717 c 5,12,13
 543 717 543 717 543 161 c 5,14,15
 511 121 511 121 415 0 c 5,16,17
 415 0 415 0 67 0 c 5,18,19
 67 0 67 0 67 487 c 5,8,9
173 88 m 5,20,21
 173 88 173 88 365 88 c 5,22,23
 365 88 365 88 437 180 c 5,24,25
 437 180 437 180 437 629 c 5,26,27
 437 629 437 629 299 629 c 5,28,29
 268 590 268 590 173 470 c 5,30,31
 173 470 173 470 173 88 c 5,20,21
EndSplineSet
Validated: 1
EndChar

StartChar: Oacute
Encoding: 211 211 147
Width: 615
GlyphClass: 1
Flags: W
LayerCount: 2
Fore
SplineSet
369 758 m 5,0,1
 369 758 369 758 289 758 c 5,2,3
 307 783 307 783 363 860 c 5,4,5
 363 860 363 860 443 860 c 5,6,7
 424 834 424 834 369 758 c 5,0,1
67 487 m 5,8,9
 112 544 112 544 248 717 c 5,10,11
 248 717 248 717 543 717 c 5,12,13
 543 717 543 717 543 161 c 5,14,15
 511 121 511 121 415 0 c 5,16,17
 415 0 415 0 67 0 c 5,18,19
 67 0 67 0 67 487 c 5,8,9
173 88 m 5,20,21
 173 88 173 88 365 88 c 5,22,23
 365 88 365 88 437 180 c 5,24,25
 437 180 437 180 437 629 c 5,26,27
 437 629 437 629 299 629 c 5,28,29
 268 590 268 590 173 470 c 5,30,31
 173 470 173 470 173 88 c 5,20,21
EndSplineSet
Validated: 1
EndChar

StartChar: Ocircumflex
Encoding: 212 212 148
Width: 614
GlyphClass: 1
Flags: W
LayerCount: 2
Fore
SplineSet
363 861 m 1,0,1
 436 758 436 758 436 758 c 129,-1,2
 436 758 436 758 392 758 c 1,3,4
 341 830 341 830 341 830 c 1,5,6
 337 824 337 824 290 758 c 1,7,8
 290 758 290 758 247 758 c 1,9,10
 247 758 247 758 320 861 c 1,11,-1
 363 861 l 1,0,1
69 487 m 1,12,13
 115 544 115 544 250 717 c 1,14,15
 250 717 250 717 545 717 c 1,16,17
 545 717 545 717 545 161 c 1,18,19
 514 121 514 121 418 0 c 1,20,21
 418 0 418 0 69 0 c 1,22,23
 69 0 69 0 69 487 c 1,12,13
175 88 m 1,24,25
 175 88 175 88 367 88 c 1,26,27
 367 88 367 88 439 180 c 1,28,29
 439 180 439 180 439 629 c 1,30,31
 439 629 439 629 302 629 c 1,32,33
 270 590 270 590 175 470 c 1,34,35
 175 470 175 470 175 88 c 1,24,25
EndSplineSet
Validated: 1
EndChar

StartChar: Otilde
Encoding: 213 213 149
Width: 614
GlyphClass: 1
Flags: W
LayerCount: 2
Fore
SplineSet
69 487 m 5,0,1
 115 544 115 544 250 717 c 5,2,3
 250 717 250 717 545 717 c 5,4,5
 545 717 545 717 545 161 c 5,6,7
 514 121 514 121 418 0 c 5,8,9
 418 0 418 0 69 0 c 5,10,11
 69 0 69 0 69 487 c 5,0,1
175 88 m 5,12,13
 175 88 175 88 367 88 c 5,14,15
 367 88 367 88 439 180 c 5,16,17
 439 180 439 180 439 629 c 5,18,19
 439 629 439 629 302 629 c 5,20,21
 270 590 270 590 175 470 c 5,22,23
 175 470 175 470 175 88 c 5,12,13
292 759 m 5,24,25
 292 759 292 759 292 811 c 5,26,27
 292 811 292 811 164 811 c 5,28,29
 164 811 164 811 164 864 c 5,30,31
 164 864 164 864 365 864 c 5,32,33
 365 864 365 864 365 811 c 5,34,35
 365 811 365 811 493 811 c 5,36,37
 493 811 493 811 493 759 c 5,38,39
 493 759 493 759 292 759 c 5,24,25
EndSplineSet
Validated: 1
EndChar

StartChar: Odieresis
Encoding: 214 214 150
Width: 614
GlyphClass: 1
Flags: W
LayerCount: 2
Fore
SplineSet
355 854 m 5,0,1
 355 854 355 854 451 854 c 5,2,3
 451 854 451 854 451 758 c 5,4,5
 451 758 451 758 355 758 c 5,6,7
 355 758 355 758 355 854 c 5,0,1
180 758 m 5,8,9
 180 758 180 758 180 854 c 5,10,11
 180 854 180 854 276 854 c 5,12,13
 276 854 276 854 276 758 c 5,14,15
 276 758 276 758 180 758 c 5,8,9
69 487 m 5,16,17
 115 544 115 544 250 717 c 5,18,19
 250 717 250 717 545 717 c 5,20,21
 545 717 545 717 545 161 c 5,22,23
 514 121 514 121 418 0 c 5,24,25
 418 0 418 0 69 0 c 5,26,27
 69 0 69 0 69 487 c 5,16,17
175 88 m 5,28,29
 175 88 175 88 367 88 c 5,30,31
 367 88 367 88 439 180 c 5,32,33
 439 180 439 180 439 629 c 5,34,35
 439 629 439 629 302 629 c 5,36,37
 270 590 270 590 175 470 c 5,38,39
 175 470 175 470 175 88 c 5,28,29
EndSplineSet
Validated: 1
EndChar

StartChar: multiply
Encoding: 215 215 151
Width: 532
GlyphClass: 1
Flags: W
LayerCount: 2
Fore
SplineSet
42 241 m 5,0,1
 142 319 142 319 216 378 c 5,2,3
 96 470 96 470 42 512 c 5,4,5
 42 512 42 512 143 512 c 5,6,7
 209 460 209 460 264 416 c 5,8,9
 345 479 345 479 386 512 c 5,10,11
 386 512 386 512 488 512 c 5,12,13
 388 435 388 435 314 377 c 5,14,15
 434 283 434 283 488 241 c 5,16,17
 488 241 488 241 393 241 c 5,18,19
 323 295 323 295 265 340 c 5,20,21
 265 340 265 340 136 241 c 5,22,23
 136 241 136 241 42 241 c 5,0,1
EndSplineSet
Validated: 1
EndChar

StartChar: Oslash
Encoding: 216 216 152
Width: 762
GlyphClass: 1
Flags: W
LayerCount: 2
Fore
SplineSet
688 793 m 1,0,1
 688 793 688 793 688 641 c 1,2,3
 660 605 660 605 619 552 c 1,4,-1
 619 161 l 1,5,6
 588 121 588 121 492 0 c 1,7,8
 492 0 492 0 189 0 c 1,9,10
 135 -70 135 -70 74 -149 c 1,11,12
 74 -149 74 -149 74 15 c 1,13,14
 102 50 102 50 143 102 c 1,15,-1
 143 487 l 1,16,17
 189 544 189 544 324 717 c 1,18,19
 324 717 324 717 619 717 c 1,20,-1
 619 705 l 1,21,22
 652 747 652 747 688 793 c 1,0,1
511 568 m 1,23,24
 512 569 512 569 513 571 c 1,25,-1
 513 629 l 1,26,27
 513 629 513 629 376 629 c 1,28,29
 344 590 344 590 249 470 c 1,30,-1
 249 237 l 1,31,32
 355 372 355 372 511 569 c 1,33,-1
 511 568 l 1,23,24
513 414 m 1,34,35
 410 281 410 281 261 88 c 1,36,-1
 441 88 l 1,37,38
 441 88 441 88 513 180 c 1,39,-1
 513 414 l 1,34,35
EndSplineSet
Validated: 1
EndChar

StartChar: Ugrave
Encoding: 217 217 153
Width: 553
GlyphClass: 1
Flags: W
LayerCount: 2
Fore
SplineSet
68 0 m 5,0,1
 68 0 68 0 68 717 c 5,2,3
 68 717 68 717 174 717 c 5,4,5
 174 717 174 717 174 88 c 5,6,7
 174 88 174 88 271 88 c 5,8,9
 299 123 299 123 381 228 c 5,10,11
 381 228 381 228 381 717 c 5,12,13
 381 717 381 717 487 717 c 5,14,15
 487 717 487 717 487 0 c 5,16,17
 487 0 487 0 381 0 c 5,18,19
 381 0 381 0 381 75 c 5,20,21
 366 56 366 56 322 0 c 5,22,23
 322 0 322 0 68 0 c 5,0,1
213 860 m 5,24,25
 213 860 213 860 293 860 c 5,26,27
 311 834 311 834 367 758 c 5,28,29
 367 758 367 758 287 758 c 5,30,31
 268 783 268 783 213 860 c 5,24,25
EndSplineSet
Validated: 1
EndChar

StartChar: Uacute
Encoding: 218 218 154
Width: 553
GlyphClass: 1
Flags: W
LayerCount: 2
Fore
SplineSet
68 0 m 5,0,1
 68 0 68 0 68 717 c 5,2,3
 68 717 68 717 174 717 c 5,4,5
 174 717 174 717 174 88 c 5,6,7
 174 88 174 88 271 88 c 5,8,9
 299 123 299 123 381 228 c 5,10,11
 381 228 381 228 381 717 c 5,12,13
 381 717 381 717 487 717 c 5,14,15
 487 717 487 717 487 0 c 5,16,17
 487 0 487 0 381 0 c 5,18,19
 381 0 381 0 381 75 c 5,20,21
 366 56 366 56 322 0 c 5,22,23
 322 0 322 0 68 0 c 5,0,1
293 758 m 5,24,25
 293 758 293 758 213 758 c 5,26,27
 231 783 231 783 287 860 c 5,28,29
 287 860 287 860 367 860 c 5,30,31
 348 834 348 834 293 758 c 5,24,25
EndSplineSet
Validated: 1
EndChar

StartChar: Ucircumflex
Encoding: 219 219 155
Width: 553
GlyphClass: 1
Flags: W
LayerCount: 2
Fore
SplineSet
67 0 m 1,0,1
 67 0 67 0 67 717 c 1,2,3
 67 717 67 717 173 717 c 1,4,5
 173 717 173 717 173 88 c 1,6,7
 173 88 173 88 270 88 c 1,8,9
 298 123 298 123 380 228 c 1,10,11
 380 228 380 228 380 717 c 1,12,13
 380 717 380 717 486 717 c 1,14,15
 486 717 486 717 486 0 c 1,16,17
 486 0 486 0 380 0 c 1,18,19
 380 0 380 0 380 75 c 1,20,21
 365 56 365 56 321 0 c 1,22,23
 321 0 321 0 67 0 c 1,0,1
181 758 m 1,24,25
 181 758 181 758 255 861 c 1,26,27
 255 861 255 861 298 861 c 1,28,29
 343 796 343 796 371 758 c 1,30,31
 371 758 371 758 327 758 c 1,32,33
 327 758 327 758 276 830 c 1,34,35
 272 824 272 824 225 758 c 1,36,37
 225 758 225 758 181 758 c 1,24,25
EndSplineSet
Validated: 1
EndChar

StartChar: Udieresis
Encoding: 220 220 156
Width: 553
GlyphClass: 1
Flags: W
LayerCount: 2
Fore
SplineSet
67 0 m 5,0,1
 67 0 67 0 67 717 c 5,2,3
 67 717 67 717 173 717 c 5,4,5
 173 717 173 717 173 88 c 5,6,7
 173 88 173 88 270 88 c 5,8,9
 298 123 298 123 380 228 c 5,10,11
 380 228 380 228 380 717 c 5,12,13
 380 717 380 717 486 717 c 5,14,15
 486 717 486 717 486 0 c 5,16,17
 486 0 486 0 380 0 c 5,18,19
 380 0 380 0 380 75 c 5,20,21
 365 56 365 56 321 0 c 5,22,23
 321 0 321 0 67 0 c 5,0,1
136 758 m 5,24,25
 136 758 136 758 136 853 c 5,26,27
 136 853 136 853 231 853 c 5,28,29
 231 853 231 853 231 758 c 5,30,31
 231 758 231 758 136 758 c 5,24,25
310 853 m 5,32,33
 310 853 310 853 406 853 c 5,34,35
 406 853 406 853 406 758 c 5,36,37
 406 758 406 758 310 758 c 5,38,39
 310 758 310 758 310 853 c 5,32,33
EndSplineSet
Validated: 1
EndChar

StartChar: Yacute
Encoding: 221 221 157
Width: 552
GlyphClass: 1
Flags: W
LayerCount: 2
Fore
SplineSet
486 717 m 5,0,1
 486 717 486 717 486 508 c 5,2,3
 444 455 444 455 321 299 c 5,4,5
 321 299 321 299 321 0 c 5,6,7
 321 0 321 0 214 0 c 5,8,9
 214 0 214 0 214 299 c 5,10,11
 214 299 214 299 67 299 c 5,12,13
 67 299 67 299 67 717 c 5,14,15
 67 717 67 717 173 717 c 5,16,17
 173 717 173 717 173 387 c 5,18,19
 173 387 173 387 270 387 c 5,20,21
 298 422 298 422 380 527 c 5,22,23
 380 527 380 527 380 717 c 5,24,25
 380 717 380 717 486 717 c 5,0,1
285 759 m 5,26,27
 285 759 285 759 205 759 c 5,28,29
 224 784 224 784 279 860 c 5,30,31
 279 860 279 860 359 860 c 5,32,33
 341 835 341 835 285 759 c 5,26,27
EndSplineSet
Validated: 1
EndChar

StartChar: Thorn
Encoding: 222 222 158
Width: 553
GlyphClass: 1
Flags: W
LayerCount: 2
Fore
SplineSet
67 717 m 5,0,1
 67 717 67 717 173 717 c 5,2,3
 173 717 173 717 173 564 c 5,4,5
 173 564 173 564 487 564 c 5,6,7
 487 564 487 564 487 320 c 5,8,9
 444 266 444 266 359 159 c 5,10,11
 359 159 359 159 173 159 c 5,12,13
 173 159 173 159 173 1 c 5,14,15
 173 1 173 1 67 1 c 5,16,17
 67 1 67 1 67 717 c 5,0,1
381 338 m 5,18,19
 381 338 381 338 381 476 c 5,20,21
 381 476 381 476 173 476 c 5,22,23
 173 476 173 476 173 247 c 5,24,25
 173 247 173 247 309 247 c 5,26,27
 333 278 333 278 381 338 c 5,18,19
EndSplineSet
Validated: 1
EndChar

StartChar: germandbls
Encoding: 223 223 159
Width: 553
GlyphClass: 1
Flags: W
LayerCount: 2
Fore
SplineSet
309 89 m 1,0,1
 365 162 365 162 380 183 c 1,2,3
 380 183 380 183 380 305 c 1,4,5
 380 305 380 305 220 305 c 1,6,-1
 220 393 l 1,7,8
 274 471 274 471 381 629 c 1,9,10
 381 629 381 629 173 629 c 1,11,12
 173 629 173 629 173 0 c 1,13,14
 173 0 173 0 66 0 c 1,15,16
 66 0 66 0 66 717 c 1,17,18
 66 717 66 717 486 717 c 1,19,20
 486 717 486 717 486 629 c 1,21,22
 432 550 432 550 323 393 c 1,23,24
 323 393 323 393 483 393 c 1,25,26
 483 393 483 393 483 157 c 1,27,28
 483 157 483 157 359 0 c 1,29,30
 359 0 359 0 220 0 c 1,31,32
 220 0 220 0 220 89 c 1,33,-1
 309 89 l 1,0,1
EndSplineSet
Validated: 1
EndChar

StartChar: agrave
Encoding: 224 224 160
Width: 512
GlyphClass: 1
Flags: W
LayerCount: 2
Fore
SplineSet
350 208 m 5,0,1
 350 208 350 208 161 208 c 5,2,3
 161 208 161 208 161 81 c 5,4,5
 161 81 161 81 250 81 c 5,6,7
 275 113 275 113 350 208 c 5,0,1
447 510 m 5,8,9
 447 510 447 510 447 0 c 5,10,11
 447 0 447 0 350 0 c 5,12,13
 350 0 350 0 350 68 c 5,14,15
 337 51 337 51 296 0 c 5,16,17
 296 0 296 0 64 0 c 5,18,19
 64 0 64 0 64 284 c 5,20,21
 64 284 64 284 350 284 c 5,22,23
 350 284 350 284 350 433 c 5,24,25
 350 433 350 433 64 433 c 5,26,27
 64 433 64 433 64 510 c 5,28,29
 64 510 64 510 447 510 c 5,8,9
174 655 m 5,30,31
 174 655 174 655 255 655 c 5,32,33
 273 630 273 630 328 554 c 5,34,35
 328 554 328 554 248 554 c 5,36,37
 230 579 230 579 174 655 c 5,30,31
EndSplineSet
Validated: 1
EndChar

StartChar: aacute
Encoding: 225 225 161
Width: 512
GlyphClass: 1
Flags: W
LayerCount: 2
Fore
SplineSet
350 208 m 5,0,1
 350 208 350 208 161 208 c 5,2,3
 161 208 161 208 161 81 c 5,4,5
 161 81 161 81 250 81 c 5,6,7
 275 113 275 113 350 208 c 5,0,1
447 510 m 5,8,9
 447 510 447 510 447 0 c 5,10,11
 447 0 447 0 350 0 c 5,12,13
 350 0 350 0 350 68 c 5,14,15
 337 51 337 51 296 0 c 5,16,17
 296 0 296 0 64 0 c 5,18,19
 64 0 64 0 64 284 c 5,20,21
 64 284 64 284 350 284 c 5,22,23
 350 284 350 284 350 433 c 5,24,25
 350 433 350 433 64 433 c 5,26,27
 64 433 64 433 64 510 c 5,28,29
 64 510 64 510 447 510 c 5,8,9
255 554 m 5,30,31
 255 554 255 554 174 554 c 5,32,33
 193 579 193 579 248 655 c 5,34,35
 248 655 248 655 328 655 c 5,36,37
 310 630 310 630 255 554 c 5,30,31
EndSplineSet
Validated: 1
EndChar

StartChar: acircumflex
Encoding: 226 226 162
Width: 512
GlyphClass: 1
Flags: W
LayerCount: 2
Fore
SplineSet
350 208 m 1,0,1
 350 208 350 208 161 208 c 1,2,3
 161 208 161 208 161 81 c 1,4,5
 161 81 161 81 250 81 c 1,6,7
 275 113 275 113 350 208 c 1,0,1
447 510 m 1,8,9
 447 510 447 510 447 0 c 1,10,11
 447 0 447 0 350 0 c 1,12,13
 350 0 350 0 350 68 c 1,14,15
 337 51 337 51 296 0 c 1,16,17
 296 0 296 0 64 0 c 1,18,19
 64 0 64 0 64 284 c 1,20,21
 64 284 64 284 350 284 c 1,22,23
 350 284 350 284 350 433 c 1,24,25
 350 433 350 433 64 433 c 1,26,27
 64 433 64 433 64 510 c 1,28,29
 64 510 64 510 447 510 c 1,8,9
347 553 m 1,30,31
 347 553 347 553 303 553 c 1,32,33
 303 553 303 553 252 625 c 1,34,35
 248 619 248 619 201 553 c 1,36,37
 201 553 201 553 158 553 c 1,38,39
 158 553 158 553 231 656 c 1,40,41
 231 656 231 656 274 656 c 1,42,43
 274 656 274 656 347 553 c 1,30,31
EndSplineSet
Validated: 1
EndChar

StartChar: atilde
Encoding: 227 227 163
Width: 512
GlyphClass: 1
Flags: W
LayerCount: 2
Fore
SplineSet
447 510 m 5,0,1
 447 510 447 510 447 0 c 5,2,3
 447 0 447 0 350 0 c 5,4,5
 350 0 350 0 350 68 c 5,6,7
 337 51 337 51 296 0 c 5,8,9
 296 0 296 0 64 0 c 5,10,11
 64 0 64 0 64 284 c 5,12,13
 64 284 64 284 350 284 c 5,14,15
 350 284 350 284 350 433 c 5,16,17
 350 433 350 433 64 433 c 5,18,19
 64 433 64 433 64 510 c 5,20,21
 64 510 64 510 447 510 c 5,0,1
350 208 m 5,22,23
 350 208 350 208 161 208 c 5,24,25
 161 208 161 208 161 81 c 5,26,27
 161 81 161 81 250 81 c 5,28,29
 275 113 275 113 350 208 c 5,22,23
223 553 m 5,30,31
 223 553 223 553 223 606 c 5,32,33
 223 606 223 606 95 606 c 5,34,35
 95 606 95 606 95 659 c 5,36,37
 95 659 95 659 296 659 c 5,38,39
 296 659 296 659 296 606 c 5,40,41
 296 606 296 606 423 606 c 5,42,43
 423 606 423 606 423 553 c 5,44,45
 423 553 423 553 223 553 c 5,30,31
EndSplineSet
Validated: 1
EndChar

StartChar: adieresis
Encoding: 228 228 164
Width: 512
GlyphClass: 1
Flags: W
LayerCount: 2
Fore
SplineSet
350 208 m 5,0,1
 350 208 350 208 161 208 c 5,2,3
 161 208 161 208 161 81 c 5,4,5
 161 81 161 81 250 81 c 5,6,7
 275 113 275 113 350 208 c 5,0,1
447 510 m 5,8,9
 447 510 447 510 447 0 c 5,10,11
 447 0 447 0 350 0 c 5,12,13
 350 0 350 0 350 68 c 5,14,15
 337 51 337 51 296 0 c 5,16,17
 296 0 296 0 64 0 c 5,18,19
 64 0 64 0 64 284 c 5,20,21
 64 284 64 284 350 284 c 5,22,23
 350 284 350 284 350 433 c 5,24,25
 350 433 350 433 64 433 c 5,26,27
 64 433 64 433 64 510 c 5,28,29
 64 510 64 510 447 510 c 5,8,9
122 553 m 5,30,31
 122 553 122 553 122 649 c 5,32,33
 122 649 122 649 218 649 c 5,34,35
 218 649 218 649 218 553 c 5,36,37
 218 553 218 553 122 553 c 5,30,31
296 649 m 5,38,39
 296 649 296 649 392 649 c 5,40,41
 392 649 392 649 392 553 c 5,42,43
 392 553 392 553 296 553 c 5,44,45
 296 553 296 553 296 649 c 5,38,39
EndSplineSet
Validated: 1
EndChar

StartChar: aring
Encoding: 229 229 165
Width: 512
GlyphClass: 1
Flags: W
LayerCount: 2
Fore
SplineSet
207 625 m 5,0,1
 216 637 216 637 244 672 c 5,2,3
 244 672 244 672 304 672 c 5,4,5
 304 672 304 672 304 587 c 5,6,7
 297 578 297 578 278 554 c 5,8,9
 278 554 278 554 207 554 c 5,10,11
 207 554 207 554 207 625 c 5,0,1
228 572 m 5,12,13
 228 572 228 572 268 572 c 5,14,15
 271 576 271 576 282 590 c 5,16,17
 282 590 282 590 282 654 c 5,18,19
 282 654 282 654 254 654 c 5,20,21
 248 646 248 646 228 621 c 5,22,23
 228 621 228 621 228 572 c 5,12,13
447 510 m 5,24,25
 447 510 447 510 447 0 c 5,26,27
 447 0 447 0 350 0 c 5,28,29
 350 0 350 0 350 68 c 5,30,31
 337 51 337 51 296 0 c 5,32,33
 296 0 296 0 64 0 c 5,34,35
 64 0 64 0 64 284 c 5,36,37
 64 284 64 284 350 284 c 5,38,39
 350 284 350 284 350 433 c 5,40,41
 350 433 350 433 64 433 c 5,42,43
 64 433 64 433 64 510 c 5,44,45
 64 510 64 510 447 510 c 5,24,25
350 208 m 5,46,47
 350 208 350 208 161 208 c 5,48,49
 161 208 161 208 161 81 c 5,50,51
 161 81 161 81 250 81 c 5,52,53
 275 113 275 113 350 208 c 5,46,47
EndSplineSet
Validated: 1
EndChar

StartChar: ae
Encoding: 230 230 166
Width: 840
GlyphClass: 1
Flags: W
LayerCount: 2
Fore
SplineSet
60 510 m 5,0,1
 60 510 60 510 667 510 c 5,2,3
 752 403 752 403 780 367 c 5,4,5
 780 367 780 367 780 226 c 5,6,7
 780 226 780 226 443 226 c 5,8,9
 443 226 443 226 443 81 c 5,10,11
 443 81 443 81 780 81 c 5,12,13
 780 81 780 81 780 0 c 5,14,15
 780 0 780 0 346 0 c 5,16,-1
 346 68 l 5,17,18
 306 17 306 17 292 0 c 5,19,20
 292 0 292 0 60 0 c 5,21,22
 60 0 60 0 60 284 c 5,23,24
 60 284 60 284 346 284 c 5,25,26
 346 284 346 284 346 433 c 5,27,28
 346 433 346 433 60 433 c 5,29,30
 60 433 60 433 60 510 c 5,0,1
246 81 m 5,31,32
 321 177 321 177 346 208 c 5,33,34
 346 208 346 208 157 208 c 5,35,36
 157 208 157 208 157 81 c 5,37,38
 157 81 157 81 246 81 c 5,31,32
443 429 m 5,39,40
 443 429 443 429 443 307 c 5,41,42
 443 307 443 307 717 307 c 5,43,44
 645 399 645 399 621 429 c 5,45,46
 621 429 621 429 443 429 c 5,39,40
EndSplineSet
Validated: 1
EndChar

StartChar: ccedilla
Encoding: 231 231 167
Width: 553
GlyphClass: 1
Flags: W
LayerCount: 2
Fore
SplineSet
348 -65 m 5,0,1
 348 -65 348 -65 348 -194 c 5,2,3
 348 -194 348 -194 231 -194 c 5,4,5
 231 -194 231 -194 231 -158 c 5,6,7
 231 -158 231 -158 304 -158 c 5,8,9
 304 -158 304 -158 304 -73 c 5,10,11
 297 -64 297 -64 275 -37 c 5,12,13
 275 -37 275 -37 231 -37 c 5,14,15
 231 -37 231 -37 231 0 c 5,16,-1
 60 0 l 5,17,18
 60 0 60 0 60 367 c 5,19,20
 88 403 88 403 174 510 c 5,21,22
 174 510 174 510 494 510 c 5,23,24
 494 510 494 510 494 429 c 5,25,26
 494 429 494 429 220 429 c 5,27,28
 204 410 204 410 157 350 c 5,29,30
 157 350 157 350 157 81 c 5,31,32
 157 81 157 81 494 81 c 5,33,34
 494 81 494 81 494 0 c 5,35,-1
 296 0 l 5,36,37
 309 -16 309 -16 348 -65 c 5,0,1
EndSplineSet
Validated: 1
EndChar

StartChar: egrave
Encoding: 232 232 168
Width: 573
GlyphClass: 1
Flags: W
LayerCount: 2
Fore
SplineSet
174 655 m 5,0,1
 174 655 174 655 255 655 c 5,2,3
 273 630 273 630 328 554 c 5,4,5
 328 554 328 554 248 554 c 5,6,7
 230 579 230 579 174 655 c 5,0,1
393 510 m 5,8,9
 421 474 421 474 506 367 c 5,10,11
 506 367 506 367 506 226 c 5,12,13
 506 226 506 226 169 226 c 5,14,15
 169 226 169 226 169 81 c 5,16,17
 169 81 169 81 506 81 c 5,18,19
 506 81 506 81 506 0 c 5,20,21
 506 0 506 0 72 0 c 5,22,23
 72 0 72 0 72 510 c 5,24,25
 72 510 72 510 393 510 c 5,8,9
443 307 m 5,26,27
 419 338 419 338 347 429 c 5,28,29
 347 429 347 429 169 429 c 5,30,31
 169 429 169 429 169 307 c 5,32,33
 169 307 169 307 443 307 c 5,26,27
EndSplineSet
Validated: 1
EndChar

StartChar: eacute
Encoding: 233 233 169
Width: 573
GlyphClass: 1
Flags: W
LayerCount: 2
Fore
SplineSet
304 554 m 5,0,1
 304 554 304 554 224 554 c 5,2,3
 242 579 242 579 298 655 c 5,4,5
 298 655 298 655 378 655 c 5,6,7
 359 630 359 630 304 554 c 5,0,1
393 510 m 5,8,9
 421 474 421 474 506 367 c 5,10,11
 506 367 506 367 506 226 c 5,12,13
 506 226 506 226 169 226 c 5,14,15
 169 226 169 226 169 81 c 5,16,17
 169 81 169 81 506 81 c 5,18,19
 506 81 506 81 506 0 c 5,20,21
 506 0 506 0 72 0 c 5,22,23
 72 0 72 0 72 510 c 5,24,25
 72 510 72 510 393 510 c 5,8,9
443 307 m 5,26,27
 419 338 419 338 347 429 c 5,28,29
 347 429 347 429 169 429 c 5,30,31
 169 429 169 429 169 307 c 5,32,33
 169 307 169 307 443 307 c 5,26,27
EndSplineSet
Validated: 1
EndChar

StartChar: ecircumflex
Encoding: 234 234 170
Width: 553
GlyphClass: 1
Flags: W
LayerCount: 2
Fore
SplineSet
274 624 m 1,0,1
 241 577 241 577 223 553 c 1,2,3
 223 553 223 553 179 553 c 1,4,5
 179 553 179 553 253 655 c 1,6,-1
 296 655 l 1,7,8
 347 581 347 581 369 553 c 1,9,10
 369 553 369 553 325 553 c 1,11,12
 325 553 325 553 274 624 c 1,0,1
380 510 m 1,13,14
 409 474 409 474 494 367 c 1,15,16
 494 367 494 367 494 226 c 1,17,18
 494 226 494 226 157 226 c 1,19,20
 157 226 157 226 157 81 c 1,21,22
 157 81 157 81 494 81 c 1,23,24
 494 81 494 81 494 0 c 1,25,26
 494 0 494 0 60 0 c 1,27,28
 60 0 60 0 60 510 c 1,29,30
 60 510 60 510 380 510 c 1,13,14
431 307 m 1,31,32
 407 338 407 338 334 429 c 1,33,34
 334 429 334 429 157 429 c 1,35,36
 157 429 157 429 157 307 c 1,37,38
 157 307 157 307 431 307 c 1,31,32
EndSplineSet
Validated: 1
EndChar

StartChar: edieresis
Encoding: 235 235 171
Width: 553
GlyphClass: 1
Flags: W
LayerCount: 2
Fore
SplineSet
321 649 m 5,0,1
 321 649 321 649 417 649 c 5,2,3
 417 649 417 649 417 554 c 5,4,5
 417 554 417 554 321 554 c 5,6,7
 321 554 321 554 321 649 c 5,0,1
147 554 m 5,8,9
 147 554 147 554 147 649 c 5,10,11
 147 649 147 649 243 649 c 5,12,13
 243 649 243 649 243 554 c 5,14,15
 243 554 243 554 147 554 c 5,8,9
380 510 m 5,16,17
 409 474 409 474 494 367 c 5,18,19
 494 367 494 367 494 226 c 5,20,21
 494 226 494 226 157 226 c 5,22,23
 157 226 157 226 157 81 c 5,24,25
 157 81 157 81 494 81 c 5,26,27
 494 81 494 81 494 0 c 5,28,29
 494 0 494 0 60 0 c 5,30,31
 60 0 60 0 60 510 c 5,32,33
 60 510 60 510 380 510 c 5,16,17
431 307 m 5,34,35
 407 338 407 338 334 429 c 5,36,37
 334 429 334 429 157 429 c 5,38,39
 157 429 157 429 157 307 c 5,40,41
 157 307 157 307 431 307 c 5,34,35
EndSplineSet
Validated: 1
EndChar

StartChar: igrave
Encoding: 236 236 172
Width: 184
GlyphClass: 1
Flags: W
LayerCount: 2
Fore
SplineSet
44 510 m 1,0,1
 44 510 44 510 140 510 c 1,2,3
 140 510 140 510 140 0 c 1,4,5
 140 0 140 0 44 0 c 1,6,7
 44 0 44 0 44 510 c 1,0,1
-20 655 m 1,8,9
 -20 655 -20 655 60 655 c 1,10,11
 78 630 78 630 134 554 c 1,12,13
 134 554 134 554 53 554 c 1,14,15
 35 579 35 579 -20 655 c 1,8,9
EndSplineSet
Validated: 1
EndChar

StartChar: iacute
Encoding: 237 237 173
Width: 184
GlyphClass: 1
Flags: W
LayerCount: 2
Fore
SplineSet
44 510 m 1,0,1
 44 510 44 510 140 510 c 1,2,3
 140 510 140 510 140 0 c 1,4,5
 140 0 140 0 44 0 c 1,6,7
 44 0 44 0 44 510 c 1,0,1
133 554 m 1,8,9
 133 554 133 554 53 554 c 1,10,11
 72 579 72 579 127 655 c 1,12,13
 127 655 127 655 207 655 c 1,14,15
 189 630 189 630 133 554 c 1,8,9
EndSplineSet
Validated: 1
EndChar

StartChar: icircumflex
Encoding: 238 238 174
Width: 190
GlyphClass: 1
Flags: W
LayerCount: 2
Fore
SplineSet
48 510 m 1,0,1
 48 510 48 510 144 510 c 1,2,3
 144 510 144 510 144 0 c 1,4,5
 144 0 144 0 48 0 c 1,6,7
 48 0 48 0 48 510 c 1,0,1
191 554 m 1,8,9
 191 554 191 554 147 554 c 1,10,11
 114 601 114 601 96 625 c 1,12,13
 63 578 63 578 45 554 c 1,14,15
 45 554 45 554 1 554 c 1,16,17
 26 587 26 587 75 656 c 1,18,19
 75 656 75 656 118 656 c 1,20,21
 118 656 118 656 191 554 c 1,8,9
EndSplineSet
Validated: 1
EndChar

StartChar: idieresis
Encoding: 239 239 175
Width: 198
GlyphClass: 1
Flags: W
LayerCount: 2
Fore
SplineSet
52 510 m 1,0,1
 52 510 52 510 148 510 c 1,2,3
 148 510 148 510 148 0 c 1,4,5
 148 0 148 0 52 0 c 1,6,7
 52 0 52 0 52 510 c 1,0,1
-35 553 m 1,8,9
 -35 553 -35 553 -35 649 c 1,10,11
 -35 649 -35 649 61 649 c 1,12,13
 61 649 61 649 61 553 c 1,14,15
 61 553 61 553 -35 553 c 1,8,9
140 649 m 1,16,17
 140 649 140 649 236 649 c 1,18,19
 236 649 236 649 236 553 c 1,20,21
 236 553 236 553 140 553 c 1,22,23
 140 553 140 553 140 649 c 1,16,17
EndSplineSet
Validated: 1
EndChar

StartChar: eth
Encoding: 240 240 176
Width: 471
GlyphClass: 1
Flags: W
LayerCount: 2
Fore
SplineSet
277 159 m 5,0,1
 277 159 277 159 277 328 c 5,2,3
 277 328 277 328 209 328 c 5,4,5
 184 295 184 295 133 231 c 5,6,7
 133 231 133 231 133 62 c 5,8,9
 133 62 133 62 201 62 c 5,10,11
 226 95 226 95 277 159 c 5,0,1
409 470 m 5,12,13
 409 470 409 470 409 408 c 5,14,15
 409 408 409 408 351 408 c 5,16,17
 351 408 351 408 351 1 c 5,18,19
 351 1 351 1 277 1 c 5,20,21
 277 1 277 1 277 53 c 5,22,23
 263 35 263 35 236 1 c 5,24,25
 236 1 236 1 59 1 c 5,26,27
 59 1 59 1 59 244 c 5,28,29
 98 293 98 293 174 389 c 5,30,-1
 277 389 l 5,31,32
 277 389 277 389 277 408 c 5,33,34
 277 408 277 408 205 408 c 5,35,36
 205 408 205 408 205 470 c 5,37,38
 205 470 205 470 277 470 c 5,39,40
 277 470 277 470 277 500 c 5,41,42
 277 500 277 500 351 500 c 5,43,44
 351 500 351 500 351 470 c 5,45,46
 351 470 351 470 409 470 c 5,12,13
EndSplineSet
Validated: 1
EndChar

StartChar: ntilde
Encoding: 241 241 177
Width: 512
GlyphClass: 1
Flags: W
LayerCount: 2
Fore
SplineSet
447 510 m 5,0,1
 447 510 447 510 447 0 c 5,2,3
 447 0 447 0 350 0 c 5,4,5
 350 0 350 0 350 429 c 5,6,7
 350 429 350 429 261 429 c 5,8,9
 236 398 236 398 161 302 c 5,10,11
 161 302 161 302 161 0 c 5,12,13
 161 0 161 0 64 0 c 5,14,15
 64 0 64 0 64 510 c 5,16,17
 64 510 64 510 161 510 c 5,18,19
 161 510 161 510 161 442 c 5,20,21
 175 459 175 459 215 510 c 5,22,23
 215 510 215 510 447 510 c 5,0,1
221 553 m 5,24,25
 221 553 221 553 221 606 c 5,26,27
 221 606 221 606 94 606 c 5,28,29
 94 606 94 606 94 659 c 5,30,31
 94 659 94 659 294 659 c 5,32,33
 294 659 294 659 294 606 c 5,34,35
 294 606 294 606 422 606 c 5,36,37
 422 606 422 606 422 553 c 5,38,39
 422 553 422 553 221 553 c 5,24,25
EndSplineSet
Validated: 1
EndChar

StartChar: ograve
Encoding: 242 242 178
Width: 533
GlyphClass: 1
Flags: W
LayerCount: 2
Fore
SplineSet
174 655 m 5,0,1
 174 655 174 655 255 655 c 5,2,3
 273 630 273 630 328 554 c 5,4,5
 328 554 328 554 248 554 c 5,6,7
 230 579 230 579 174 655 c 5,0,1
58 307 m 5,8,9
 98 357 98 357 217 510 c 5,10,11
 217 510 217 510 477 510 c 5,12,13
 477 510 477 510 477 143 c 5,14,15
 449 107 449 107 364 0 c 5,16,17
 364 0 364 0 58 0 c 5,18,19
 58 0 58 0 58 307 c 5,8,9
151 78 m 5,20,21
 151 78 151 78 320 78 c 5,22,23
 336 98 336 98 383 159 c 5,24,25
 383 159 383 159 383 432 c 5,26,27
 383 432 383 432 262 432 c 5,28,29
 234 397 234 397 151 292 c 5,30,31
 151 292 151 292 151 78 c 5,20,21
EndSplineSet
Validated: 1
EndChar

StartChar: oacute
Encoding: 243 243 179
Width: 533
GlyphClass: 1
Flags: W
LayerCount: 2
Fore
SplineSet
325 554 m 5,0,1
 325 554 325 554 245 554 c 5,2,3
 263 579 263 579 319 655 c 5,4,5
 319 655 319 655 399 655 c 5,6,7
 380 630 380 630 325 554 c 5,0,1
58 307 m 5,8,9
 98 357 98 357 217 510 c 5,10,11
 217 510 217 510 477 510 c 5,12,13
 477 510 477 510 477 143 c 5,14,15
 449 107 449 107 364 0 c 5,16,17
 364 0 364 0 58 0 c 5,18,19
 58 0 58 0 58 307 c 5,8,9
151 78 m 5,20,21
 151 78 151 78 320 78 c 5,22,23
 336 98 336 98 383 159 c 5,24,25
 383 159 383 159 383 432 c 5,26,27
 383 432 383 432 262 432 c 5,28,29
 234 397 234 397 151 292 c 5,30,31
 151 292 151 292 151 78 c 5,20,21
EndSplineSet
Validated: 1
EndChar

StartChar: ocircumflex
Encoding: 244 244 180
Width: 532
GlyphClass: 1
Flags: W
LayerCount: 2
Fore
SplineSet
320 625 m 5,0,1
 320 625 320 625 268 553 c 5,2,3
 268 553 268 553 225 553 c 5,4,5
 225 553 225 553 298 656 c 5,6,-1
 341 656 l 5,7,8
 341 656 341 656 414 553 c 5,9,10
 414 553 414 553 370 553 c 5,11,12
 370 553 370 553 320 625 c 5,0,1
57 307 m 5,13,14
 97 357 97 357 216 510 c 5,15,16
 216 510 216 510 476 510 c 5,17,18
 476 510 476 510 476 143 c 5,19,20
 448 107 448 107 363 0 c 5,21,22
 363 0 363 0 57 0 c 5,23,24
 57 0 57 0 57 307 c 5,13,14
150 78 m 5,25,26
 150 78 150 78 319 78 c 5,27,28
 335 98 335 98 382 159 c 5,29,30
 382 159 382 159 382 432 c 5,31,32
 382 432 382 432 261 432 c 5,33,34
 234 397 234 397 150 292 c 5,35,36
 150 292 150 292 150 78 c 5,25,26
EndSplineSet
Validated: 1
EndChar

StartChar: otilde
Encoding: 245 245 181
Width: 532
GlyphClass: 1
Flags: W
LayerCount: 2
Fore
SplineSet
57 307 m 5,0,1
 97 357 97 357 216 510 c 5,2,3
 216 510 216 510 476 510 c 5,4,5
 476 510 476 510 476 143 c 5,6,7
 448 107 448 107 363 0 c 5,8,9
 363 0 363 0 57 0 c 5,10,11
 57 0 57 0 57 307 c 5,0,1
150 78 m 5,12,13
 150 78 150 78 319 78 c 5,14,15
 335 98 335 98 382 159 c 5,16,17
 382 159 382 159 382 432 c 5,18,19
 382 432 382 432 261 432 c 5,20,21
 234 397 234 397 150 292 c 5,22,23
 150 292 150 292 150 78 c 5,12,13
249 552 m 5,24,25
 249 552 249 552 249 605 c 5,26,27
 249 605 249 605 122 605 c 5,28,29
 122 605 122 605 122 658 c 5,30,31
 122 658 122 658 323 658 c 5,32,33
 323 658 323 658 323 605 c 5,34,35
 323 605 323 605 450 605 c 5,36,37
 450 605 450 605 450 552 c 5,38,39
 450 552 450 552 249 552 c 5,24,25
EndSplineSet
Validated: 1
EndChar

StartChar: odieresis
Encoding: 246 246 182
Width: 532
GlyphClass: 1
Flags: W
LayerCount: 2
Fore
SplineSet
317 648 m 5,0,1
 317 648 317 648 413 648 c 5,2,3
 413 648 413 648 413 552 c 5,4,5
 413 552 413 552 317 552 c 5,6,7
 317 552 317 552 317 648 c 5,0,1
143 552 m 5,8,9
 143 552 143 552 143 648 c 5,10,11
 143 648 143 648 238 648 c 5,12,13
 238 648 238 648 238 552 c 5,14,15
 238 552 238 552 143 552 c 5,8,9
57 307 m 5,16,17
 97 357 97 357 216 510 c 5,18,19
 216 510 216 510 476 510 c 5,20,21
 476 510 476 510 476 143 c 5,22,23
 448 107 448 107 363 0 c 5,24,25
 363 0 363 0 57 0 c 5,26,27
 57 0 57 0 57 307 c 5,16,17
150 78 m 5,28,29
 150 78 150 78 319 78 c 5,30,31
 335 98 335 98 382 159 c 5,32,33
 382 159 382 159 382 432 c 5,34,35
 382 432 382 432 261 432 c 5,36,37
 234 397 234 397 150 292 c 5,38,39
 150 292 150 292 150 78 c 5,28,29
EndSplineSet
Validated: 1
EndChar

StartChar: divide
Encoding: 247 247 183
Width: 471
GlyphClass: 1
Flags: W
LayerCount: 2
Fore
SplineSet
431 337 m 5,0,1
 431 337 431 337 42 337 c 5,2,3
 42 337 42 337 42 430 c 5,4,5
 42 430 42 430 431 430 c 5,6,7
 431 430 431 430 431 337 c 5,0,1
292 257 m 5,8,9
 292 257 292 257 292 162 c 5,10,11
 292 162 292 162 170 162 c 5,12,13
 170 162 170 162 170 257 c 5,14,15
 170 257 170 257 292 257 c 5,8,9
170 510 m 5,16,17
 170 510 170 510 170 608 c 5,18,19
 170 608 170 608 292 608 c 5,20,21
 292 608 292 608 292 510 c 5,22,23
 292 510 292 510 170 510 c 5,16,17
EndSplineSet
Validated: 1
EndChar

StartChar: oslash
Encoding: 248 248 184
Width: 643
GlyphClass: 1
Flags: W
LayerCount: 2
Fore
SplineSet
589 691 m 1,0,1
 589 691 589 691 589 540 c 1,2,3
 566 510 566 510 533 467 c 1,4,-1
 533 143 l 1,5,6
 505 107 505 107 420 0 c 1,7,8
 420 0 420 0 173 0 c 1,9,10
 119 -70 119 -70 57 -150 c 1,11,12
 57 -150 57 -150 57 13 c 1,13,14
 80 43 80 43 114 86 c 1,15,-1
 114 307 l 1,16,17
 154 357 154 357 273 510 c 1,18,-1
 446 510 l 1,19,20
 512 593 512 593 589 691 c 1,0,1
207 207 m 1,21,22
 275 293 275 293 385 432 c 1,23,-1
 318 432 l 1,24,25
 291 397 291 397 207 292 c 1,26,27
 207 292 207 292 207 207 c 1,21,22
439 344 m 1,28,29
 363 246 363 246 233 78 c 1,30,-1
 376 78 l 1,31,32
 392 98 392 98 439 159 c 1,33,-1
 439 344 l 1,28,29
EndSplineSet
Validated: 1
EndChar

StartChar: ugrave
Encoding: 249 249 185
Width: 512
GlyphClass: 1
Flags: W
LayerCount: 2
Fore
SplineSet
65 0 m 5,0,1
 65 0 65 0 65 510 c 5,2,3
 65 510 65 510 162 510 c 5,4,5
 162 510 162 510 162 81 c 5,6,7
 162 81 162 81 250 81 c 5,8,9
 275 113 275 113 350 208 c 5,10,11
 350 208 350 208 350 510 c 5,12,13
 350 510 350 510 447 510 c 5,14,15
 447 510 447 510 447 0 c 5,16,17
 447 0 447 0 350 0 c 5,18,19
 350 0 350 0 350 68 c 5,20,21
 337 51 337 51 296 0 c 5,22,23
 296 0 296 0 65 0 c 5,0,1
174 655 m 5,24,25
 174 655 174 655 254 655 c 5,26,27
 272 630 272 630 328 554 c 5,28,29
 328 554 328 554 248 554 c 5,30,31
 229 579 229 579 174 655 c 5,24,25
EndSplineSet
Validated: 1
EndChar

StartChar: uacute
Encoding: 250 250 186
Width: 512
GlyphClass: 1
Flags: W
LayerCount: 2
Fore
SplineSet
65 0 m 5,0,1
 65 0 65 0 65 510 c 5,2,3
 65 510 65 510 162 510 c 5,4,5
 162 510 162 510 162 81 c 5,6,7
 162 81 162 81 250 81 c 5,8,9
 275 113 275 113 350 208 c 5,10,11
 350 208 350 208 350 510 c 5,12,13
 350 510 350 510 447 510 c 5,14,15
 447 510 447 510 447 0 c 5,16,17
 447 0 447 0 350 0 c 5,18,19
 350 0 350 0 350 68 c 5,20,21
 337 51 337 51 296 0 c 5,22,23
 296 0 296 0 65 0 c 5,0,1
265 554 m 5,24,25
 265 554 265 554 185 554 c 5,26,27
 203 579 203 579 259 655 c 5,28,29
 259 655 259 655 339 655 c 5,30,31
 320 630 320 630 265 554 c 5,24,25
EndSplineSet
Validated: 1
EndChar

StartChar: ucircumflex
Encoding: 251 251 187
Width: 512
GlyphClass: 1
Flags: W
LayerCount: 2
Fore
SplineSet
65 0 m 1,0,1
 65 0 65 0 65 510 c 1,2,3
 65 510 65 510 162 510 c 1,4,5
 162 510 162 510 162 81 c 1,6,7
 162 81 162 81 250 81 c 1,8,9
 275 113 275 113 350 208 c 1,10,11
 350 208 350 208 350 510 c 1,12,13
 350 510 350 510 447 510 c 1,14,15
 447 510 447 510 447 0 c 1,16,17
 447 0 447 0 350 0 c 1,18,19
 350 0 350 0 350 68 c 1,20,21
 337 51 337 51 296 0 c 1,22,23
 296 0 296 0 65 0 c 1,0,1
162 554 m 1,24,25
 170 566 170 566 235 656 c 1,26,27
 235 656 235 656 278 656 c 1,28,29
 296 631 296 631 317 602 c 256,30,31
 338 573 338 573 351 554 c 1,32,33
 351 554 351 554 308 554 c 1,34,35
 290 578 290 578 257 625 c 1,36,37
 257 625 257 625 205 554 c 1,38,39
 205 554 205 554 162 554 c 1,24,25
EndSplineSet
Validated: 1
EndChar

StartChar: udieresis
Encoding: 252 252 188
Width: 512
GlyphClass: 1
Flags: W
LayerCount: 2
Fore
SplineSet
65 0 m 5,0,1
 65 0 65 0 65 510 c 5,2,3
 65 510 65 510 162 510 c 5,4,5
 162 510 162 510 162 81 c 5,6,7
 162 81 162 81 250 81 c 5,8,9
 275 113 275 113 350 208 c 5,10,11
 350 208 350 208 350 510 c 5,12,13
 350 510 350 510 447 510 c 5,14,15
 447 510 447 510 447 0 c 5,16,17
 447 0 447 0 350 0 c 5,18,19
 350 0 350 0 350 68 c 5,20,21
 337 51 337 51 296 0 c 5,22,23
 296 0 296 0 65 0 c 5,0,1
121 554 m 5,24,25
 121 554 121 554 121 649 c 5,26,27
 121 649 121 649 217 649 c 5,28,29
 217 649 217 649 217 554 c 5,30,31
 217 554 217 554 121 554 c 5,24,25
296 649 m 5,32,33
 296 649 296 649 391 649 c 5,34,35
 391 649 391 649 391 554 c 5,36,37
 391 554 391 554 296 554 c 5,38,39
 296 554 296 554 296 649 c 5,32,33
EndSplineSet
Validated: 1
EndChar

StartChar: yacute
Encoding: 253 253 189
Width: 512
GlyphClass: 1
Flags: W
LayerCount: 2
Fore
SplineSet
64 510 m 5,0,1
 64 510 64 510 161 510 c 5,2,3
 161 510 161 510 161 82 c 5,4,5
 161 82 161 82 250 82 c 5,6,7
 276 113 276 113 351 206 c 5,8,9
 351 206 351 206 351 510 c 5,10,11
 351 510 351 510 449 510 c 5,12,13
 449 510 449 510 449 -148 c 5,14,15
 449 -148 449 -148 64 -148 c 5,16,17
 64 -148 64 -148 64 -67 c 5,18,19
 64 -67 64 -67 351 -67 c 5,20,21
 351 -67 351 -67 351 65 c 5,22,23
 337 49 337 49 297 1 c 5,24,25
 297 1 297 1 64 1 c 5,26,27
 64 1 64 1 64 510 c 5,0,1
263 553 m 5,28,29
 263 553 263 553 183 553 c 5,30,31
 201 578 201 578 257 655 c 5,32,33
 257 655 257 655 337 655 c 5,34,35
 318 629 318 629 263 553 c 5,28,29
EndSplineSet
Validated: 1
EndChar

StartChar: thorn
Encoding: 254 254 190
Width: 430
GlyphClass: 1
Flags: W
LayerCount: 2
Fore
SplineSet
141 386 m 5,0,1
 141 386 141 386 141 213 c 5,2,3
 167 179 167 179 219 113 c 5,4,5
 219 113 219 113 289 113 c 5,6,7
 289 113 289 113 289 286 c 5,8,9
 263 319 263 319 210 386 c 5,10,11
 210 386 210 386 141 386 c 5,0,1
64 510 m 5,12,13
 64 510 64 510 141 510 c 5,14,15
 141 510 141 510 141 449 c 5,16,17
 141 449 141 449 246 449 c 5,18,19
 286 399 286 399 365 300 c 5,20,21
 365 300 365 300 365 49 c 5,22,23
 365 49 365 49 183 49 c 5,24,25
 183 49 183 49 141 103 c 5,26,27
 141 103 141 103 141 0 c 5,28,29
 141 0 141 0 64 0 c 5,30,31
 64 0 64 0 64 510 c 5,12,13
EndSplineSet
Validated: 1
EndChar

StartChar: ydieresis
Encoding: 255 255 191
Width: 512
GlyphClass: 1
Flags: W
LayerCount: 2
Fore
SplineSet
64 510 m 5,0,1
 64 510 64 510 161 510 c 5,2,3
 161 510 161 510 161 82 c 5,4,5
 161 82 161 82 250 82 c 5,6,7
 276 113 276 113 351 206 c 5,8,9
 351 206 351 206 351 510 c 5,10,11
 351 510 351 510 449 510 c 5,12,13
 449 510 449 510 449 -148 c 5,14,15
 449 -148 449 -148 64 -148 c 5,16,17
 64 -148 64 -148 64 -67 c 5,18,19
 64 -67 64 -67 351 -67 c 5,20,21
 351 -67 351 -67 351 65 c 5,22,23
 337 49 337 49 297 1 c 5,24,25
 297 1 297 1 64 1 c 5,26,27
 64 1 64 1 64 510 c 5,0,1
121 553 m 5,28,29
 121 553 121 553 121 649 c 5,30,31
 121 649 121 649 216 649 c 5,32,33
 216 649 216 649 216 553 c 5,34,35
 216 553 216 553 121 553 c 5,28,29
295 649 m 5,36,37
 295 649 295 649 391 649 c 5,38,39
 391 649 391 649 391 553 c 5,40,41
 391 553 391 553 295 553 c 5,42,43
 295 553 295 553 295 649 c 5,36,37
EndSplineSet
Validated: 1
EndChar

StartChar: dotlessi
Encoding: 305 305 192
Width: 184
GlyphClass: 1
Flags: W
LayerCount: 2
Fore
SplineSet
44 510 m 5,0,1
 44 510 44 510 140 510 c 5,2,3
 140 510 140 510 140 0 c 5,4,5
 140 0 140 0 44 0 c 5,6,7
 44 0 44 0 44 510 c 5,0,1
EndSplineSet
Validated: 1
EndChar

StartChar: circumflex
Encoding: 710 710 193
Width: 267
GlyphClass: 1
Flags: W
LayerCount: 2
Fore
SplineSet
40 615 m 1,0,1
 72 661 72 661 114 717 c 1,2,3
 114 717 114 717 156 717 c 1,4,5
 188 675 188 675 229 615 c 1,6,7
 229 615 229 615 186 615 c 1,8,9
 168 639 168 639 135 686 c 1,10,11
 117 662 117 662 84 615 c 1,12,13
 84 615 84 615 40 615 c 1,0,1
EndSplineSet
Validated: 1
EndChar

StartChar: caron
Encoding: 711 711 194
Width: 266
GlyphClass: 1
Flags: W
LayerCount: 2
Fore
SplineSet
39 717 m 1,0,-1
 83 717 l 1,1,2
 101 693 101 693 134 646 c 1,3,4
 152 670 152 670 185 717 c 1,5,-1
 229 717 l 1,6,7
 207 689 207 689 156 615 c 1,8,-1
 113 615 l 1,9,-1
 39 717 l 1,0,-1
EndSplineSet
Validated: 1
EndChar

StartChar: "+AskA"
Encoding: 713 713 195
Width: 491
GlyphClass: 1
Flags: W
LayerCount: 2
Fore
SplineSet
451 614 m 5,0,1
 451 614 451 614 451 546 c 5,2,3
 451 546 451 546 42 546 c 5,4,5
 42 546 42 546 42 614 c 5,6,7
 42 614 42 614 451 614 c 5,0,1
EndSplineSet
Validated: 513
EndChar

StartChar: breve
Encoding: 728 728 196
Width: 287
GlyphClass: 1
Flags: W
LayerCount: 2
Fore
SplineSet
85 614 m 5,0,1
 73 624 73 624 39 651 c 5,2,3
 39 651 39 651 39 700 c 5,4,5
 39 700 39 700 64 700 c 5,6,7
 64 700 64 700 64 666 c 5,8,9
 71 660 71 660 92 645 c 5,10,11
 92 645 92 645 193 645 c 5,12,13
 200 650 200 650 220 666 c 5,14,15
 220 666 220 666 220 700 c 5,16,17
 220 700 220 700 246 700 c 5,18,19
 246 700 246 700 246 651 c 5,20,21
 235 642 235 642 200 614 c 5,22,23
 200 614 200 614 85 614 c 5,0,1
EndSplineSet
Validated: 1
EndChar

StartChar: dotaccent
Encoding: 729 729 197
Width: 164
GlyphClass: 1
Flags: W
LayerCount: 2
Fore
SplineSet
41 635 m 5,0,1
 49 645 49 645 72 675 c 5,2,3
 72 675 72 675 122 675 c 5,4,5
 122 675 122 675 122 603 c 5,6,7
 117 597 117 597 101 576 c 5,8,9
 101 576 101 576 41 576 c 5,10,11
 41 576 41 576 41 635 c 5,0,1
EndSplineSet
Validated: 1
EndChar

StartChar: ring
Encoding: 730 730 198
Width: 246
GlyphClass: 1
Flags: W
LayerCount: 2
Fore
SplineSet
46 623 m 5,0,1
 60 642 60 642 105 698 c 5,2,3
 105 698 105 698 200 698 c 5,4,5
 200 698 200 698 200 562 c 5,6,7
 190 549 190 549 159 510 c 5,8,9
 159 510 159 510 46 510 c 5,10,11
 46 510 46 510 46 623 c 5,0,1
80 539 m 5,12,13
 80 539 80 539 142 539 c 5,14,15
 148 546 148 546 166 568 c 5,16,17
 166 568 166 568 166 669 c 5,18,19
 166 669 166 669 121 669 c 5,20,21
 111 656 111 656 80 617 c 5,22,23
 80 617 80 617 80 539 c 5,12,13
EndSplineSet
Validated: 1
EndChar

StartChar: ogonek
Encoding: 731 731 199
Width: 205
GlyphClass: 1
Flags: W
LayerCount: 2
Fore
SplineSet
96 0 m 5,0,1
 96 0 96 0 161 0 c 5,2,3
 161 0 161 0 161 -37 c 5,4,5
 161 -37 161 -37 117 -37 c 5,6,7
 110 -46 110 -46 88 -73 c 5,8,9
 88 -73 88 -73 88 -158 c 5,10,11
 88 -158 88 -158 161 -158 c 5,12,13
 161 -158 161 -158 161 -195 c 5,14,15
 161 -195 161 -195 44 -195 c 5,16,17
 44 -195 44 -195 44 -65 c 5,18,19
 57 -49 57 -49 96 0 c 5,0,1
EndSplineSet
Validated: 1
EndChar

StartChar: tilde
Encoding: 732 732 200
Width: 410
GlyphClass: 1
Flags: W
LayerCount: 2
Fore
SplineSet
168 611 m 5,0,1
 168 611 168 611 168 664 c 5,2,3
 168 664 168 664 40 664 c 5,4,5
 40 664 40 664 40 717 c 5,6,7
 40 717 40 717 241 717 c 5,8,9
 241 717 241 717 241 664 c 5,10,11
 241 664 241 664 369 664 c 5,12,13
 369 664 369 664 369 611 c 5,14,15
 369 611 369 611 168 611 c 5,0,1
EndSplineSet
Validated: 1
EndChar

StartChar: hungarumlaut
Encoding: 733 733 201
Width: 553
GlyphClass: 1
Flags: W
LayerCount: 2
Fore
SplineSet
150 468 m 5,0,1
 150 468 150 468 42 468 c 5,2,3
 88 530 88 530 224 718 c 5,4,5
 224 718 224 718 332 718 c 5,6,7
 287 655 287 655 150 468 c 5,0,1
331 468 m 5,8,9
 331 468 331 468 223 468 c 5,10,11
 268 530 268 530 404 718 c 5,12,13
 404 718 404 718 512 718 c 5,14,15
 467 655 467 655 331 468 c 5,8,9
EndSplineSet
Validated: 1
EndChar

StartChar: "+IBAA"
Encoding: 8208 8208 202
Width: 492
GlyphClass: 1
Flags: W
LayerCount: 2
Fore
SplineSet
450 415 m 1,0,1
 450 391 450 391 450 364 c 256,2,3
 450 337 450 337 450 313 c 1,4,5
 424 313 424 313 388 313 c 0,6,7
 353 313 353 313 314 313 c 0,8,9
 241 313 241 313 166 313 c 256,10,11
 91 313 91 313 41 313 c 1,12,13
 41 337 41 337 41 364 c 256,14,15
 41 391 41 391 41 415 c 1,16,17
 91 415 91 415 166 415 c 256,18,19
 241 415 241 415 314 415 c 0,20,21
 353 415 353 415 388 415 c 0,22,23
 424 415 424 415 450 415 c 1,0,1
EndSplineSet
Validated: 513
EndChar

StartChar: "+IBEA"
Encoding: 8209 8209 203
Width: 491
GlyphClass: 1
Flags: W
LayerCount: 2
Fore
SplineSet
451 475 m 1,0,1
 451 451 451 451 451 428 c 256,2,3
 451 405 451 405 451 381 c 1,4,5
 425 381 425 381 389 381 c 0,6,7
 354 381 354 381 315 381 c 0,8,9
 242 381 242 381 167 381 c 256,10,11
 92 381 92 381 42 381 c 1,12,13
 42 405 42 405 42 428 c 256,14,15
 42 451 42 451 42 475 c 1,16,17
 92 475 92 475 167 475 c 256,18,19
 242 475 242 475 315 475 c 0,20,21
 354 475 354 475 389 475 c 0,22,23
 425 475 425 475 451 475 c 1,0,1
EndSplineSet
Validated: 513
EndChar

StartChar: "+IBIA"
Encoding: 8210 8210 204
Width: 492
GlyphClass: 1
Flags: W
LayerCount: 2
Fore
SplineSet
451 171 m 1,0,1
 451 147 451 147 451 137 c 0,2,3
 451 126 451 126 451 102 c 1,4,5
 424 102 424 102 388 102 c 0,6,7
 353 102 353 102 314 102 c 0,8,9
 242 102 242 102 166 102 c 0,10,11
 91 102 91 102 41 102 c 1,12,13
 41 126 41 126 41 137 c 0,14,15
 41 147 41 147 41 171 c 1,16,17
 68 171 68 171 103 171 c 256,18,19
 138 171 138 171 177 171 c 0,20,21
 250 171 250 171 325 171 c 0,22,23
 401 171 401 171 451 171 c 1,0,1
EndSplineSet
Validated: 513
EndChar

StartChar: endash
Encoding: 8211 8211 205
Width: 492
GlyphClass: 1
Flags: W
LayerCount: 2
Fore
SplineSet
451 171 m 1,0,1
 451 147 451 147 451 137 c 0,2,3
 451 126 451 126 451 102 c 1,4,5
 424 102 424 102 388 102 c 0,6,7
 353 102 353 102 314 102 c 0,8,9
 242 102 242 102 166 102 c 0,10,11
 91 102 91 102 41 102 c 1,12,13
 41 126 41 126 41 137 c 0,14,15
 41 147 41 147 41 171 c 1,16,17
 68 171 68 171 103 171 c 256,18,19
 138 171 138 171 177 171 c 0,20,21
 250 171 250 171 325 171 c 0,22,23
 401 171 401 171 451 171 c 1,0,1
EndSplineSet
Validated: 1
EndChar

StartChar: emdash
Encoding: 8212 8212 206
Width: 522
GlyphClass: 1
Flags: W
LayerCount: 2
Fore
SplineSet
521 171 m 1,0,1
 521 147 521 147 521 137 c 0,2,3
 521 126 521 126 521 102 c 1,4,5
 503 102 503 102 478 102 c 256,6,7
 453 102 453 102 423 102 c 0,8,9
 367 102 367 102 299 102 c 256,10,11
 231 102 231 102 168 102 c 0,12,13
 116 102 116 102 72 102 c 256,14,15
 28 102 28 102 1 102 c 1,16,17
 1 126 1 126 1 137 c 0,18,19
 1 139 1 139 1 142 c 0,20,21
 1 152 1 152 1 171 c 1,22,23
 28 171 28 171 72 171 c 256,24,25
 116 171 116 171 168 171 c 0,26,27
 231 171 231 171 299 171 c 256,28,29
 367 171 367 171 423 171 c 0,30,31
 453 171 453 171 478 171 c 256,32,33
 503 171 503 171 521 171 c 1,0,1
EndSplineSet
Validated: 1
EndChar

StartChar: quoteleft
Encoding: 8216 8216 207
Width: 368
GlyphClass: 1
Flags: W
LayerCount: 2
Fore
SplineSet
41 718 m 1,0,1
 68 718 68 718 149 718 c 1,2,3
 194 655 194 655 330 468 c 1,4,5
 303 468 303 468 222 468 c 1,6,7
 177 530 177 530 41 718 c 1,0,1
EndSplineSet
Validated: 1
EndChar

StartChar: quoteright
Encoding: 8217 8217 208
Width: 368
GlyphClass: 1
Flags: W
LayerCount: 2
Fore
SplineSet
149 468 m 1,0,1
 122 468 122 468 41 468 c 1,2,3
 86 530 86 530 222 718 c 1,4,5
 249 718 249 718 330 718 c 1,6,7
 285 655 285 655 149 468 c 1,0,1
EndSplineSet
Validated: 1
EndChar

StartChar: quotesinglbase
Encoding: 8218 8218 209
Width: 266
GlyphClass: 1
Flags: W
LayerCount: 2
Fore
SplineSet
43 -148 m 1,0,1
 16 -148 16 -148 -65 -148 c 1,2,3
 -20 -86 -20 -86 117 102 c 1,4,5
 144 102 144 102 225 102 c 1,6,7
 179 39 179 39 43 -148 c 1,0,1
EndSplineSet
Validated: 1
EndChar

StartChar: quotedblleft
Encoding: 8220 8220 210
Width: 553
GlyphClass: 1
Flags: W
LayerCount: 2
Fore
SplineSet
223 718 m 1,0,1
 250 718 250 718 331 718 c 1,2,3
 376 655 376 655 512 468 c 1,4,5
 485 468 485 468 404 468 c 1,6,7
 359 530 359 530 223 718 c 1,0,1
42 718 m 1,8,9
 69 718 69 718 150 718 c 1,10,11
 196 655 196 655 332 468 c 1,12,13
 305 468 305 468 224 468 c 1,14,15
 179 530 179 530 42 718 c 1,8,9
EndSplineSet
Validated: 1
EndChar

StartChar: quotedblright
Encoding: 8221 8221 211
Width: 553
GlyphClass: 1
Flags: W
LayerCount: 2
Fore
SplineSet
150 468 m 1,0,1
 123 468 123 468 42 468 c 1,2,3
 88 530 88 530 224 718 c 1,4,5
 251 718 251 718 332 718 c 1,6,7
 287 655 287 655 150 468 c 1,0,1
331 468 m 1,8,9
 304 468 304 468 223 468 c 1,10,11
 268 530 268 530 404 718 c 1,12,13
 431 718 431 718 512 718 c 1,14,15
 467 655 467 655 331 468 c 1,8,9
EndSplineSet
Validated: 1
EndChar

StartChar: quotedblbase
Encoding: 8222 8222 212
Width: 471
GlyphClass: 1
Flags: W
LayerCount: 2
Fore
SplineSet
67 -130 m 1,0,1
 40 -130 40 -130 -41 -130 c 1,2,3
 5 -68 5 -68 141 120 c 1,4,5
 168 120 168 120 249 120 c 1,6,7
 204 57 204 57 67 -130 c 1,0,1
248 -130 m 1,8,9
 221 -130 221 -130 140 -130 c 1,10,11
 185 -68 185 -68 321 120 c 1,12,13
 348 120 348 120 429 120 c 1,14,15
 384 57 384 57 248 -130 c 1,8,9
EndSplineSet
Validated: 1
EndChar

StartChar: dagger
Encoding: 8224 8224 213
Width: 430
GlyphClass: 1
Flags: W
LayerCount: 2
Fore
SplineSet
391 433 m 1,0,1
 358 433 358 433 261 433 c 1,2,3
 261 288 261 288 261 -146 c 1,4,5
 237 -146 237 -146 165 -146 c 1,6,7
 165 -1 165 -1 165 433 c 1,8,9
 134 433 134 433 39 433 c 1,10,11
 39 445 39 445 39 484 c 0,12,13
 39 491 39 491 39 514 c 1,14,15
 71 514 71 514 165 514 c 1,16,17
 165 565 165 565 165 717 c 1,18,19
 189 717 189 717 261 717 c 1,20,21
 261 666 261 666 261 514 c 1,22,23
 293 514 293 514 391 514 c 1,24,25
 391 494 391 494 391 433 c 1,0,1
EndSplineSet
Validated: 1
EndChar

StartChar: daggerdbl
Encoding: 8225 8225 214
Width: 430
GlyphClass: 1
Flags: W
LayerCount: 2
Fore
SplineSet
392 83 m 5,0,1
 392 59 392 59 392 42 c 4,2,3
 392 24 392 24 392 0 c 5,4,-1
 262 0 l 5,5,-1
 262 -148 l 5,6,7
 238 -148 238 -148 166 -148 c 5,8,-1
 166 0 l 5,9,-1
 38 0 l 5,10,11
 38 24 38 24 38 42 c 4,12,13
 38 59 38 59 38 83 c 5,14,-1
 166 83 l 5,15,-1
 166 431 l 5,16,17
 134 431 134 431 38 431 c 5,18,19
 38 451 38 451 38 512 c 5,20,21
 70 512 70 512 166 512 c 5,22,23
 166 563 166 563 166 717 c 5,24,25
 190 717 190 717 262 717 c 5,26,27
 262 666 262 666 262 512 c 5,28,29
 294 512 294 512 392 512 c 5,30,31
 392 491 392 491 392 431 c 5,32,33
 359 431 359 431 262 431 c 5,34,-1
 262 83 l 5,35,-1
 392 83 l 5,0,1
EndSplineSet
Validated: 1
EndChar

StartChar: bullet
Encoding: 8226 8226 215
Width: 246
GlyphClass: 1
Flags: W
LayerCount: 2
Fore
SplineSet
46 388 m 1,0,1
 60 406 60 406 105 463 c 1,2,3
 128 463 128 463 200 463 c 1,4,5
 200 429 200 429 200 327 c 1,6,7
 190 314 190 314 159 275 c 1,8,9
 130 275 130 275 46 275 c 1,10,11
 46 303 46 303 46 388 c 1,0,1
EndSplineSet
Validated: 1
EndChar

StartChar: ellipsis
Encoding: 8230 8230 216
Width: 553
GlyphClass: 1
Flags: W
LayerCount: 2
Fore
SplineSet
400 0 m 1,0,1
 400 16 400 16 400 42 c 0,2,3
 400 69 400 69 400 84 c 1,4,5
 420 84 420 84 453 84 c 256,6,7
 486 84 486 84 506 84 c 1,8,9
 506 69 506 69 506 42 c 0,10,11
 506 16 506 16 506 0 c 1,12,13
 486 0 486 0 453 0 c 256,14,15
 420 0 420 0 400 0 c 1,0,1
222 0 m 1,16,17
 222 16 222 16 222 42 c 0,18,19
 222 69 222 69 222 84 c 1,20,21
 242 84 242 84 275 84 c 256,22,23
 308 84 308 84 328 84 c 1,24,25
 328 69 328 69 328 42 c 0,26,27
 328 16 328 16 328 0 c 1,28,29
 308 0 308 0 275 0 c 256,30,31
 242 0 242 0 222 0 c 1,16,17
44 0 m 1,32,33
 44 16 44 16 44 42 c 0,34,35
 44 69 44 69 44 84 c 1,36,37
 64 84 64 84 97 84 c 256,38,39
 130 84 130 84 150 84 c 1,40,41
 150 69 150 69 150 42 c 0,42,43
 150 16 150 16 150 0 c 1,44,45
 130 0 130 0 97 0 c 256,46,47
 64 0 64 0 44 0 c 1,32,33
EndSplineSet
Validated: 1
EndChar

StartChar: guilsinglleft
Encoding: 8249 8249 217
Width: 368
GlyphClass: 1
Flags: W
LayerCount: 2
Fore
SplineSet
222 510 m 1,0,1
 250 510 250 510 332 510 c 1,2,3
 286 446 286 446 147 255 c 1,4,5
 193 191 193 191 332 0 c 1,6,7
 305 0 305 0 222 0 c 1,8,9
 176 64 176 64 37 255 c 1,10,11
 83 319 83 319 222 510 c 1,0,1
EndSplineSet
Validated: 1
EndChar

StartChar: guilsinglright
Encoding: 8250 8250 218
Width: 368
GlyphClass: 1
Flags: W
LayerCount: 2
Fore
SplineSet
331 255 m 1,0,1
 285 191 285 191 146 0 c 1,2,3
 119 0 119 0 36 0 c 1,4,5
 82 64 82 64 221 255 c 1,6,7
 175 319 175 319 36 510 c 1,8,9
 63 510 63 510 146 510 c 1,10,11
 192 446 192 446 331 255 c 1,0,1
EndSplineSet
Validated: 1
EndChar

StartChar: fraction
Encoding: 8260 8260 219
Width: 513
GlyphClass: 1
Flags: W
LayerCount: 2
Fore
SplineSet
479 717 m 1,0,1
 479 680 479 680 479 566 c 1,2,3
 370 425 370 425 42 0 c 1,4,5
 42 10 42 10 42 41 c 256,6,7
 42 72 42 72 42 164 c 1,8,9
 151 302 151 302 479 717 c 1,0,1
EndSplineSet
Validated: 1
EndChar

StartChar: franc
Encoding: 8355 8355 220
Width: 614
GlyphClass: 1
Flags: W
LayerCount: 2
Fore
SplineSet
258 116 m 1,0,-1
 258 0 l 1,1,2
 239 0 239 0 179 0 c 0,3,4
 173 0 173 0 152 0 c 1,5,-1
 152 116 l 1,6,-1
 46 116 l 1,7,8
 46 141 46 141 46 218 c 1,9,-1
 152 218 l 1,10,-1
 152 561 l 1,11,12
 183 600 183 600 276 717 c 1,13,14
 350 717 350 717 571 717 c 1,15,16
 571 695 571 695 571 629 c 1,17,18
 510 629 510 629 327 629 c 1,19,20
 310 608 310 608 258 543 c 1,21,22
 258 510 258 510 258 412 c 1,23,24
 337 412 337 412 571 412 c 1,25,26
 571 390 571 390 571 324 c 1,27,28
 493 324 493 324 258 324 c 1,29,-1
 258 218 l 1,30,-1
 380 218 l 1,31,32
 380 192 380 192 380 116 c 1,33,-1
 258 116 l 1,0,-1
EndSplineSet
Validated: 1
EndChar

StartChar: "+IKQA"
Encoding: 8356 8356 221
Width: 615
GlyphClass: 1
Flags: W
LayerCount: 2
Fore
SplineSet
570 0 m 1,0,1
 543 0 543 0 507 0 c 256,2,3
 471 0 471 0 431 0 c 0,4,5
 357 0 357 0 280 0 c 256,6,7
 203 0 203 0 152 0 c 1,8,9
 152 35 152 35 152 81 c 256,10,11
 152 127 152 127 152 178 c 1,12,13
 122 178 122 178 94 178 c 0,14,15
 67 178 67 178 46 178 c 1,16,17
 46 183 46 183 46 189 c 0,18,19
 46 206 46 206 46 229 c 0,20,21
 46 261 46 261 46 281 c 1,22,23
 67 281 67 281 94 281 c 0,24,25
 122 281 122 281 152 281 c 1,26,27
 152 309 152 309 152 336 c 0,28,29
 152 364 152 364 152 391 c 1,30,31
 122 391 122 391 94 391 c 0,32,33
 67 391 67 391 46 391 c 1,34,35
 46 410 46 410 46 442 c 256,36,37
 46 474 46 474 46 493 c 1,38,39
 67 493 67 493 94 493 c 0,40,41
 122 493 122 493 152 493 c 1,42,43
 152 512 152 512 152 529 c 256,44,45
 152 546 152 546 152 561 c 1,46,47
 175 590 175 590 214 639 c 256,48,49
 253 688 253 688 276 717 c 1,50,51
 295 717 295 717 320 717 c 0,52,53
 346 717 346 717 374 717 c 0,54,55
 426 717 426 717 480 717 c 256,56,57
 534 717 534 717 570 717 c 1,58,59
 570 701 570 701 570 674 c 0,60,61
 570 646 570 646 570 629 c 1,62,63
 554 629 554 629 534 629 c 0,64,65
 513 629 513 629 489 629 c 0,66,67
 446 629 446 629 401 629 c 256,68,69
 356 629 356 629 326 629 c 1,70,71
 314 613 314 613 292 586 c 0,72,73
 271 559 271 559 258 542 c 1,74,75
 258 532 258 532 258 519 c 0,76,77
 258 507 258 507 258 493 c 1,78,79
 308 493 308 493 355 493 c 0,80,81
 401 493 401 493 435 493 c 1,82,83
 435 474 435 474 435 442 c 256,84,85
 435 410 435 410 435 391 c 1,86,87
 401 391 401 391 355 391 c 0,88,89
 308 391 308 391 258 391 c 1,90,91
 258 364 258 364 258 336 c 256,92,93
 258 308 258 308 258 281 c 1,94,95
 308 281 308 281 355 281 c 0,96,97
 401 281 401 281 435 281 c 1,98,99
 435 261 435 261 435 229 c 256,100,101
 435 197 435 197 435 178 c 1,102,103
 401 178 401 178 355 178 c 0,104,105
 308 178 308 178 258 178 c 1,106,107
 258 153 258 153 258 130 c 256,108,109
 258 107 258 107 258 88 c 1,110,111
 278 88 278 88 305 88 c 256,112,113
 332 88 332 88 362 89 c 0,114,115
 418 89 418 89 475 89 c 256,116,117
 532 89 532 89 570 89 c 1,118,119
 570 72 570 72 570 44 c 0,120,121
 570 17 570 17 570 0 c 1,0,1
EndSplineSet
Validated: 513
EndChar

StartChar: "+IKcA"
Encoding: 8359 8359 222
Width: 1106
GlyphClass: 1
Flags: W
LayerCount: 2
Fore
SplineSet
686 215 m 1,0,1
 686 243 686 243 686 291 c 0,2,3
 686 338 686 338 686 367 c 1,4,5
 707 393 707 393 742 438 c 0,6,7
 778 483 778 483 799 510 c 1,8,9
 817 510 817 510 840 510 c 0,10,11
 862 510 862 510 888 510 c 0,12,13
 935 510 935 510 985 510 c 0,14,15
 1034 510 1034 510 1067 510 c 1,16,17
 1067 495 1067 495 1067 470 c 0,18,19
 1067 444 1067 444 1067 429 c 1,20,21
 1025 429 1025 429 956 429 c 128,-1,22
 887 429 887 429 845 429 c 1,23,24
 833 413 833 413 812 386 c 0,25,26
 792 360 792 360 780 344 c 1,27,28
 780 334 780 334 780 319 c 128,-1,29
 780 304 780 304 780 295 c 1,30,31
 798 295 798 295 823 295 c 128,-1,32
 848 295 848 295 875 295 c 0,33,34
 926 295 926 295 979 295 c 128,-1,35
 1032 295 1032 295 1067 295 c 1,36,37
 1067 267 1067 267 1067 219 c 0,38,39
 1067 172 1067 172 1067 144 c 1,40,41
 1045 117 1045 117 1010 72 c 0,42,43
 974 27 974 27 953 0 c 1,44,45
 920 0 920 0 871 0 c 128,-1,46
 822 0 822 0 775 0 c 0,47,48
 749 0 749 0 726 0 c 128,-1,49
 703 0 703 0 686 0 c 1,50,51
 686 15 686 15 686 40 c 128,-1,52
 686 65 686 65 686 81 c 1,53,54
 727 81 727 81 796 81 c 0,55,56
 866 81 866 81 907 81 c 1,57,58
 919 97 919 97 940 124 c 0,59,60
 960 150 960 150 973 166 c 1,61,62
 973 175 973 175 973 191 c 0,63,64
 973 206 973 206 973 215 c 1,65,66
 954 215 954 215 929 215 c 128,-1,67
 904 215 904 215 877 215 c 0,68,69
 826 215 826 215 773 215 c 0,70,71
 721 215 721 215 686 215 c 1,0,1
728 512 m 1,72,73
 728 496 728 496 728 471 c 128,-1,74
 728 446 728 446 728 431 c 1,75,76
 708 431 708 431 674 431 c 0,77,78
 641 431 641 431 621 431 c 1,79,80
 621 402 621 402 621 365 c 128,-1,81
 621 328 621 328 621 287 c 0,82,83
 621 211 621 211 621 132 c 0,84,85
 621 52 621 52 621 0 c 1,86,87
 603 0 603 0 573 0 c 128,-1,88
 543 0 543 0 525 0 c 1,89,90
 525 52 525 52 525 132 c 0,91,92
 525 211 525 211 525 287 c 0,93,94
 525 328 525 328 525 365 c 128,-1,95
 525 402 525 402 525 431 c 1,96,97
 513 431 513 431 492 431 c 128,-1,98
 471 431 471 431 459 431 c 1,99,100
 459 446 459 446 459 471 c 2,101,-1
 459 474 l 1,102,103
 435 443 435 443 395 393 c 128,-1,104
 355 343 355 343 332 313 c 1,105,106
 297 313 297 313 238 313 c 0,107,108
 180 313 180 313 145 313 c 1,109,110
 145 292 145 292 145 265 c 128,-1,111
 145 238 145 238 145 208 c 0,112,113
 145 153 145 153 145 95 c 0,114,115
 145 38 145 38 145 0 c 1,116,117
 125 0 125 0 92 0 c 128,-1,118
 59 0 59 0 39 0 c 1,119,120
 39 47 39 47 39 109 c 0,121,122
 39 170 39 170 39 239 c 0,123,124
 39 271 39 271 39 304 c 0,125,126
 39 400 39 400 39 498 c 0,127,128
 39 630 39 630 39 717 c 1,129,130
 67 717 67 717 103 718 c 0,131,132
 139 718 139 718 179 718 c 0,133,134
 253 718 253 718 330 718 c 0,135,136
 408 718 408 718 459 718 c 1,137,138
 459 702 459 702 459 681 c 128,-1,139
 459 660 459 660 459 636 c 0,140,141
 459 593 459 593 459 548 c 2,142,-1
 459 512 l 1,143,144
 471 512 471 512 492 512 c 128,-1,145
 513 512 513 512 525 512 c 1,146,147
 525 539 525 539 525 585 c 128,-1,148
 525 631 525 631 525 658 c 1,149,150
 543 658 543 658 573 658 c 128,-1,151
 603 658 603 658 621 658 c 1,152,153
 621 631 621 631 621 585 c 128,-1,154
 621 539 621 539 621 512 c 1,155,156
 641 512 641 512 674 512 c 0,157,158
 708 512 708 512 728 512 c 1,72,73
353 492 m 1,159,160
 353 518 353 518 353 561 c 128,-1,161
 353 604 353 604 353 629 c 1,162,163
 314 629 314 629 249 629 c 128,-1,164
 184 629 184 629 145 629 c 1,165,166
 145 614 145 614 145 595 c 0,167,168
 145 575 145 575 145 553 c 0,169,170
 145 513 145 513 145 471 c 0,171,172
 145 428 145 428 145 401 c 1,173,174
 171 401 171 401 213 401 c 0,175,176
 256 401 256 401 282 401 c 1,177,178
 295 418 295 418 317 446 c 0,179,180
 340 475 340 475 353 492 c 1,159,160
EndSplineSet
Validated: 513
EndChar

StartChar: "+IKwA"
Encoding: 8364 8364 223
Width: 614
GlyphClass: 1
Flags: W
LayerCount: 2
Fore
SplineSet
568 629 m 1,0,1
 530 629 530 629 473 629 c 256,2,3
 416 629 416 629 360 629 c 0,4,5
 330 629 330 629 303 629 c 0,6,7
 277 629 277 629 256 629 c 1,8,9
 256 610 256 610 256 587 c 0,10,11
 256 565 256 565 256 539 c 1,12,13
 306 539 306 539 353 539 c 0,14,15
 399 539 399 539 433 539 c 1,16,17
 433 520 433 520 433 488 c 256,18,19
 433 456 433 456 433 437 c 1,20,21
 399 437 399 437 353 437 c 0,22,23
 306 437 306 437 256 437 c 1,24,25
 256 409 256 409 256 381 c 0,26,27
 256 354 256 354 256 327 c 1,28,29
 306 327 306 327 353 327 c 0,30,31
 399 327 399 327 433 327 c 1,32,33
 433 307 433 307 433 275 c 256,34,35
 433 243 433 243 433 224 c 1,36,37
 399 224 399 224 353 224 c 0,38,39
 306 224 306 224 256 224 c 1,40,41
 256 211 256 211 256 198 c 0,42,43
 256 186 256 186 256 175 c 1,44,45
 269 159 269 159 290 132 c 0,46,47
 312 104 312 104 324 88 c 1,48,49
 354 88 354 88 399 88 c 256,50,51
 444 88 444 88 487 88 c 0,52,53
 511 88 511 88 532 88 c 256,54,55
 553 88 553 88 568 88 c 1,56,57
 568 72 568 72 568 44 c 0,58,59
 568 17 568 17 568 0 c 1,60,61
 549 0 549 0 524 0 c 256,62,63
 499 0 499 0 470 0 c 0,64,65
 418 0 418 0 364 0 c 256,66,67
 310 0 310 0 274 0 c 1,68,69
 251 29 251 29 212 78 c 256,70,71
 173 127 173 127 150 157 c 1,72,73
 150 171 150 171 150 189 c 0,74,75
 150 206 150 206 150 224 c 1,76,77
 120 224 120 224 92 224 c 0,78,79
 65 224 65 224 44 224 c 1,80,81
 44 229 44 229 44 235 c 0,82,83
 44 252 44 252 44 275 c 0,84,85
 44 307 44 307 44 327 c 1,86,87
 65 327 65 327 92 327 c 0,88,89
 120 327 120 327 150 327 c 1,90,91
 150 353 150 353 150 381 c 256,92,93
 150 409 150 409 150 437 c 1,94,95
 120 437 120 437 92 437 c 0,96,97
 65 437 65 437 44 437 c 1,98,99
 44 456 44 456 44 488 c 256,100,101
 44 520 44 520 44 539 c 1,102,103
 65 539 65 539 92 539 c 0,104,105
 120 539 120 539 150 539 c 1,106,107
 150 590 150 590 150 636 c 256,108,109
 150 682 150 682 150 717 c 1,110,111
 177 717 177 717 213 717 c 256,112,113
 249 717 249 717 289 717 c 0,114,115
 364 717 364 717 441 717 c 0,116,117
 517 717 517 717 568 717 c 1,118,119
 568 701 568 701 568 673 c 0,120,121
 568 646 568 646 568 629 c 1,0,1
EndSplineSet
Validated: 513
EndChar

StartChar: "+IRYA"
Encoding: 8470 8470 224
Width: 798
GlyphClass: 1
Flags: W
LayerCount: 2
Fore
SplineSet
483 130 m 1,0,1
 550 130 550 130 752 130 c 1,2,3
 752 117 752 117 752 79 c 1,4,5
 685 79 685 79 483 79 c 1,6,7
 483 92 483 92 483 130 c 1,0,1
482 374 m 1,8,9
 508 407 508 407 586 507 c 1,10,11
 629 507 629 507 756 507 c 1,12,13
 756 447 756 447 756 267 c 1,14,15
 738 243 738 243 683 173 c 1,16,17
 633 173 633 173 482 173 c 1,18,19
 482 224 482 224 482 374 c 1,8,9
543 225 m 1,20,21
 571 225 571 225 654 225 c 1,22,23
 664 238 664 238 695 277 c 1,24,25
 695 322 695 322 695 457 c 1,26,27
 675 457 675 457 616 457 c 1,28,29
 598 434 598 434 543 364 c 1,30,31
 543 329 543 329 543 225 c 1,20,21
151 0 m 1,32,33
 131 0 131 0 72 0 c 0,34,35
 65 0 65 0 45 0 c 1,36,37
 45 105 45 105 45 419 c 0,38,39
 45 493 45 493 45 717 c 1,40,41
 71 717 71 717 151 717 c 1,42,43
 151 678 151 678 151 560 c 1,44,45
 202 495 202 495 357 298 c 1,46,47
 357 403 357 403 357 717 c 1,48,49
 384 717 384 717 463 717 c 1,50,51
 463 538 463 538 463 0 c 1,52,53
 437 0 437 0 357 0 c 1,54,55
 357 33 357 33 357 133 c 1,56,57
 306 200 306 200 151 403 c 1,58,59
 151 302 151 302 151 0 c 1,32,33
EndSplineSet
Validated: 513
EndChar

StartChar: trademark
Encoding: 8482 8482 225
Width: 532
GlyphClass: 1
Flags: W
LayerCount: 2
Fore
SplineSet
198 717 m 1,0,1
 198 709 198 709 198 685 c 1,2,3
 183 685 183 685 138 685 c 1,4,5
 138 625 138 625 138 444 c 1,6,7
 128 444 128 444 98 444 c 1,8,9
 98 504 98 504 98 685 c 1,10,11
 83 685 83 685 38 685 c 1,12,13
 38 687 38 687 38 693 c 256,14,15
 38 699 38 699 38 717 c 1,16,17
 78 717 78 717 198 717 c 1,0,1
494 638 m 1,18,19
 494 590 494 590 494 444 c 1,20,21
 483 444 483 444 453 444 c 1,22,23
 453 490 453 490 453 630 c 1,24,25
 443 643 443 643 412 683 c 1,26,27
 402 683 402 683 375 683 c 1,28,29
 375 623 375 623 375 444 c 1,30,31
 365 444 365 444 334 444 c 1,32,33
 334 490 334 490 334 630 c 1,34,35
 324 643 324 643 293 683 c 1,36,37
 284 683 284 683 256 683 c 1,38,39
 256 623 256 623 256 444 c 1,40,41
 246 444 246 444 216 444 c 1,42,43
 216 512 216 512 216 717 c 1,44,45
 240 717 240 717 312 717 c 1,46,47
 318 710 318 710 334 688 c 1,48,49
 334 695 334 695 334 717 c 1,50,51
 358 717 358 717 431 717 c 1,52,53
 446 697 446 697 494 638 c 1,18,19
EndSplineSet
Validated: 1
EndChar

StartChar: partialdiff
Encoding: 8706 8706 226
Width: 492
GlyphClass: 1
Flags: W
LayerCount: 2
Fore
SplineSet
140 304 m 1,0,1
 140 274 140 274 140 183 c 1,2,3
 157 159 157 159 211 88 c 1,4,5
 246 88 246 88 351 88 c 1,6,7
 351 142 351 142 351 304 c 1,8,9
 298 304 298 304 140 304 c 1,0,1
454 0 m 1,10,11
 399 0 399 0 234 0 c 0,12,13
 216 0 216 0 161 0 c 1,14,15
 130 39 130 39 37 157 c 1,16,17
 37 194 37 194 37 305 c 0,18,19
 37 327 37 327 37 392 c 1,20,21
 115 392 115 392 351 392 c 1,22,23
 351 452 351 452 351 629 c 1,24,25
 272 629 272 629 37 629 c 1,26,27
 37 651 37 651 37 717 c 1,28,29
 141 717 141 717 454 717 c 1,30,31
 454 538 454 538 454 0 c 1,10,11
EndSplineSet
Validated: 1
EndChar

StartChar: Delta
Encoding: 8710 8710 227
Width: 614
GlyphClass: 1
Flags: W
LayerCount: 2
Fore
SplineSet
307 717 m 1,0,1
 399 478 399 478 581 0 c 1,2,3
 437 0 437 0 150 0 c 0,4,5
 111 0 111 0 34 0 c 1,6,7
 125 239 125 239 307 717 c 1,0,1
307 497 m 1,8,9
 255 361 255 361 151 88 c 1,10,11
 255 88 255 88 463 88 c 1,12,13
 411 224 411 224 307 497 c 1,8,9
EndSplineSet
Validated: 1
EndChar

StartChar: product
Encoding: 8719 8719 228
Width: 512
GlyphClass: 1
Flags: W
LayerCount: 2
Fore
SplineSet
466 0 m 1,0,1
 446 0 446 0 413 0 c 256,2,3
 380 0 380 0 360 0 c 1,4,5
 360 12 360 12 360 37 c 0,6,7
 360 61 360 61 360 94 c 0,8,9
 360 155 360 155 360 237 c 0,10,11
 360 318 360 318 360 397 c 0,12,13
 360 477 360 477 360 542 c 256,14,15
 360 607 360 607 360 630 c 1,16,17
 321 630 321 630 256 630 c 256,18,19
 191 630 191 630 152 630 c 1,20,21
 152 607 152 607 152 545 c 256,22,23
 152 483 152 483 152 405 c 0,24,25
 152 363 152 363 152 319 c 256,26,27
 152 275 152 275 152 233 c 0,28,29
 152 153 152 153 152 88 c 256,30,31
 152 23 152 23 152 0 c 1,32,33
 132 0 132 0 99 0 c 256,34,35
 66 0 66 0 46 0 c 1,36,37
 46 373 46 373 46 545 c 256,38,39
 46 717 46 717 46 717 c 1,40,41
 109 717 109 717 156 717 c 256,42,43
 203 717 203 717 237 717 c 0,44,45
 265 717 265 717 285 717 c 0,46,47
 306 717 306 717 321 717 c 0,48,49
 381 717 381 717 390 717 c 256,50,51
 399 717 399 717 466 717 c 1,52,53
 466 684 466 684 466 656 c 0,54,55
 466 629 466 629 466 605 c 0,56,57
 466 580 466 580 466 557 c 0,58,59
 466 535 466 535 466 512 c 0,60,61
 466 469 466 469 466 418 c 256,62,63
 466 367 466 367 466 288 c 0,64,65
 466 234 466 234 466 164 c 0,66,67
 466 93 466 93 466 0 c 1,0,1
EndSplineSet
Validated: 1
EndChar

StartChar: summation
Encoding: 8721 8721 229
Width: 512
GlyphClass: 1
Flags: W
LayerCount: 2
Fore
SplineSet
212 630 m 1,0,1
 254 563 254 563 379 359 c 1,2,3
 337 291 337 291 212 88 c 1,4,5
 275 88 275 88 464 88 c 1,6,7
 464 66 464 66 464 0 c 1,8,9
 386 0 386 0 150 0 c 0,10,11
 124 0 124 0 46 0 c 1,12,13
 103 90 103 90 275 359 c 1,14,15
 218 448 218 448 46 717 c 1,16,17
 150 717 150 717 464 717 c 1,18,19
 464 695 464 695 464 629 c 1,20,21
 401 630 401 630 212 630 c 1,0,1
EndSplineSet
Validated: 1
EndChar

StartChar: minus
Encoding: 8722 8722 230
Width: 492
GlyphClass: 1
Flags: W
LayerCount: 2
Fore
SplineSet
446 412 m 1,0,1
 446 388 446 388 446 371 c 256,2,3
 446 354 446 354 446 330 c 1,4,5
 419 330 419 330 384 330 c 256,6,7
 349 330 349 330 310 330 c 0,8,9
 237 330 237 330 162 330 c 0,10,11
 86 330 86 330 36 330 c 1,12,13
 36 354 36 354 36 371 c 256,14,15
 36 388 36 388 36 412 c 1,16,17
 63 412 63 412 99 412 c 0,18,19
 134 412 134 412 173 412 c 0,20,21
 245 412 245 412 321 412 c 0,22,23
 396 412 396 412 446 412 c 1,0,1
EndSplineSet
Validated: 1
EndChar

StartChar: radical
Encoding: 8730 8730 231
Width: 574
GlyphClass: 1
Flags: W
LayerCount: 2
Fore
SplineSet
426 857 m 1,0,1
 505 857 505 857 532 857 c 1,2,3
 532 214 532 214 532 0 c 1,4,5
 398 0 398 0 353 0 c 0,6,7
 303 0 303 0 278 0 c 1,8,9
 168 140 168 140 113 210 c 1,10,11
 62 210 62 210 37 210 c 1,12,13
 37 276 37 276 37 309 c 1,14,15
 116 309 116 309 155 309 c 1,16,17
 271 162 271 162 329 89 c 1,18,19
 393 89 393 89 426 89 c 1,20,21
 426 665 426 665 426 857 c 1,0,1
EndSplineSet
Validated: 1
EndChar

StartChar: infinity
Encoding: 8734 8734 232
Width: 491
GlyphClass: 1
Flags: W
LayerCount: 2
Fore
SplineSet
88 332 m 1,0,1
 106 332 106 332 160 332 c 1,2,3
 173 342 173 342 210 373 c 1,4,5
 210 392 210 392 210 451 c 1,6,7
 179 451 179 451 88 451 c 1,8,9
 88 421 88 421 88 332 c 1,0,1
397 451 m 1,10,11
 377 451 377 451 318 451 c 1,12,13
 305 440 305 440 266 410 c 1,14,15
 266 390 266 390 266 332 c 1,16,17
 299 332 299 332 397 332 c 1,18,19
 397 362 397 362 397 451 c 1,10,11
180 272 m 1,20,21
 146 272 146 272 41 272 c 1,22,23
 41 310 41 310 41 422 c 0,24,25
 41 445 41 445 41 512 c 1,26,27
 98 512 98 512 270 512 c 1,28,29
 270 504 270 504 270 479 c 1,30,31
 280 487 280 487 311 512 c 1,32,33
 346 512 346 512 450 512 c 1,34,35
 450 452 450 452 450 272 c 1,36,37
 393 272 393 272 219 272 c 1,38,39
 219 280 219 280 219 304 c 1,40,41
 210 296 210 296 180 272 c 1,20,21
EndSplineSet
Validated: 1
EndChar

StartChar: integral
Encoding: 8747 8747 233
Width: 389
GlyphClass: 1
Flags: W
LayerCount: 2
Fore
SplineSet
245 751 m 1,0,1
 245 188 245 188 245 0 c 1,2,3
 131 0 131 0 93 0 c 128,-1,4
 55 0 55 0 42 0 c 1,5,6
 42 59 42 59 42 79 c 128,-1,7
 42 99 42 99 42 106 c 1,8,9
 115 106 115 106 139 106 c 1,10,11
 139 669 139 669 139 857 c 1,12,13
 292 857 292 857 343 857 c 1,14,15
 343 777 343 777 343 751 c 1,16,17
 270 751 270 751 245 751 c 1,0,1
EndSplineSet
Validated: 1
EndChar

StartChar: approxequal
Encoding: 8776 8776 234
Width: 512
GlyphClass: 1
Flags: W
LayerCount: 2
Fore
SplineSet
466 173 m 1,0,1
 402 173 402 173 208 173 c 1,2,3
 208 190 208 190 208 241 c 1,4,5
 167 241 167 241 44 241 c 1,6,7
 44 258 44 258 44 309 c 1,8,9
 109 309 109 309 302 309 c 1,10,11
 302 292 302 292 302 241 c 1,12,13
 343 241 343 241 466 241 c 1,14,15
 466 224 466 224 466 173 c 1,0,1
466 373 m 1,16,17
 402 373 402 373 208 373 c 1,18,19
 208 390 208 390 208 441 c 1,20,21
 167 441 167 441 44 441 c 1,22,23
 44 458 44 458 44 509 c 1,24,25
 109 509 109 509 302 509 c 1,26,27
 302 492 302 492 302 441 c 1,28,29
 343 441 343 441 466 441 c 1,30,31
 466 424 466 424 466 373 c 1,16,17
EndSplineSet
Validated: 1
EndChar

StartChar: lessequal
Encoding: 8804 8804 235
Width: 471
GlyphClass: 1
Flags: W
LayerCount: 2
Fore
SplineSet
39 163 m 1,0,1
 136 163 136 163 428 163 c 1,2,3
 428 143 428 143 428 82 c 1,4,5
 331 82 331 82 39 82 c 1,6,7
 39 102 39 102 39 163 c 1,0,1
286 717 m 1,8,9
 314 717 314 717 397 717 c 1,10,11
 350 653 350 653 211 461 c 1,12,13
 257 397 257 397 397 205 c 1,14,15
 369 205 369 205 286 205 c 1,16,17
 240 269 240 269 100 461 c 1,18,19
 147 525 147 525 286 717 c 1,8,9
EndSplineSet
Validated: 1
EndChar

StartChar: greaterequal
Encoding: 8805 8805 236
Width: 471
GlyphClass: 1
Flags: W
LayerCount: 2
Fore
SplineSet
41 164 m 1,0,1
 138 164 138 164 430 164 c 1,2,3
 430 144 430 144 430 83 c 1,4,5
 333 83 333 83 41 83 c 1,6,7
 41 103 41 103 41 164 c 1,0,1
399 462 m 1,8,9
 352 398 352 398 213 206 c 1,10,11
 185 206 185 206 102 206 c 1,12,13
 149 270 149 270 288 462 c 1,14,15
 242 526 242 526 102 718 c 1,16,17
 130 718 130 718 213 718 c 1,18,19
 259 654 259 654 399 462 c 1,8,9
EndSplineSet
Validated: 1
EndChar

StartChar: uni0410
Encoding: 1040 1040 239
Width: 553
Flags: W
LayerCount: 2
Fore
SplineSet
380 401 m 5,0,1
 380 401 380 401 380 629 c 5,2,3
 380 629 380 629 283 629 c 5,4,5
 256 595 256 595 173 490 c 5,6,7
 173 490 173 490 173 401 c 5,8,9
 173 401 173 401 380 401 c 5,0,1
232 717 m 5,10,11
 232 717 232 717 486 717 c 5,12,13
 486 717 486 717 486 0 c 5,14,15
 486 0 486 0 380 0 c 5,16,17
 380 0 380 0 380 312 c 5,18,19
 380 312 380 312 173 312 c 5,20,21
 173 312 173 312 173 0 c 5,22,23
 173 0 173 0 67 0 c 5,24,25
 67 0 67 0 67 507 c 5,26,27
 109 559 109 559 232 717 c 5,10,11
EndSplineSet
Validated: 1
EndChar

StartChar: uni0412
Encoding: 1042 1042 240
Width: 553
Flags: W
LayerCount: 2
Fore
SplineSet
172 629 m 5,0,1
 172 629 172 629 172 404 c 5,2,3
 172 404 172 404 382 404 c 5,4,5
 382 404 382 404 382 542 c 5,6,7
 364 564 364 564 309 629 c 5,8,9
 309 629 309 629 172 629 c 5,0,1
382 228 m 5,10,11
 364 249 364 249 309 315 c 5,12,13
 309 315 309 315 172 315 c 5,14,15
 172 315 172 315 172 89 c 5,16,17
 172 89 172 89 382 89 c 5,18,19
 382 89 382 89 382 228 c 5,10,11
65 717 m 5,20,21
 65 717 65 717 354 717 c 5,22,23
 388 678 388 678 488 560 c 5,24,25
 488 560 488 560 488 315 c 5,26,27
 488 315 488 315 430 315 c 5,28,29
 445 297 445 297 488 246 c 5,30,31
 488 246 488 246 488 0 c 5,32,33
 488 0 488 0 65 0 c 5,34,35
 65 0 65 0 65 717 c 5,20,21
EndSplineSet
Validated: 1
EndChar

StartChar: uni0411
Encoding: 1041 1041 241
Width: 553
Flags: W
LayerCount: 2
Fore
SplineSet
354 629 m 5,0,1
 354 629 354 629 172 629 c 5,2,3
 172 629 172 629 172 404 c 5,4,5
 172 404 172 404 352 404 c 5,6,7
 352 404 352 404 488 246 c 5,8,9
 488 246 488 246 488 0 c 5,10,11
 488 0 488 0 65 0 c 5,12,13
 65 0 65 0 65 717 c 5,14,15
 65 717 65 717 354 717 c 5,16,17
 354 717 354 717 354 629 c 5,0,1
382 228 m 5,18,19
 364 249 364 249 309 315 c 5,20,21
 309 315 309 315 172 315 c 5,22,23
 172 315 172 315 172 89 c 5,24,25
 172 89 172 89 382 89 c 5,26,27
 382 89 382 89 382 228 c 5,18,19
EndSplineSet
Validated: 1
EndChar

StartChar: uni0421
Encoding: 1057 1057 242
Width: 553
Flags: W
LayerCount: 2
Fore
SplineSet
68 561 m 5,0,1
 68 561 68 561 192 717 c 5,2,3
 192 717 192 717 487 717 c 5,4,5
 487 717 487 717 487 629 c 5,6,7
 487 629 487 629 243 629 c 5,8,9
 243 629 243 629 174 543 c 5,10,11
 174 543 174 543 174 88 c 5,12,13
 174 88 174 88 487 88 c 5,14,15
 487 88 487 88 487 0 c 5,16,17
 487 0 487 0 68 0 c 5,18,19
 68 0 68 0 68 561 c 5,0,1
EndSplineSet
Validated: 1
EndChar

StartChar: uni0422
Encoding: 1058 1058 243
Width: 553
Flags: W
LayerCount: 2
Fore
SplineSet
488 717 m 5,0,1
 488 717 488 717 488 633 c 5,2,3
 488 633 488 633 331 633 c 5,4,5
 331 633 331 633 331 0 c 5,6,7
 331 0 331 0 225 0 c 5,8,9
 225 0 225 0 225 633 c 5,10,11
 225 633 225 633 67 633 c 5,12,13
 67 633 67 633 67 717 c 5,14,15
 67 717 67 717 488 717 c 5,0,1
EndSplineSet
Validated: 1
EndChar

StartChar: uni0420
Encoding: 1056 1056 244
Width: 552
Flags: W
LayerCount: 2
Fore
SplineSet
381 629 m 5,0,1
 381 629 381 629 173 629 c 5,2,3
 173 629 173 629 173 400 c 5,4,5
 173 400 173 400 309 400 c 5,6,7
 309 400 309 400 381 492 c 5,8,9
 381 492 381 492 381 629 c 5,0,1
487 717 m 5,10,11
 487 717 487 717 487 473 c 5,12,13
 455 433 455 433 359 312 c 5,14,15
 359 312 359 312 173 312 c 5,16,17
 173 312 173 312 173 0 c 5,18,19
 173 0 173 0 67 0 c 5,20,21
 67 0 67 0 67 717 c 5,22,23
 67 717 67 717 487 717 c 5,10,11
EndSplineSet
Validated: 1
EndChar

StartChar: uni041E
Encoding: 1054 1054 245
Width: 614
Flags: W
LayerCount: 2
Fore
SplineSet
69 487 m 5,0,1
 115 544 115 544 250 717 c 5,2,3
 250 717 250 717 545 717 c 5,4,5
 545 717 545 717 545 161 c 5,6,7
 514 121 514 121 418 0 c 5,8,9
 418 0 418 0 69 0 c 5,10,11
 69 0 69 0 69 487 c 5,0,1
175 88 m 5,12,13
 175 88 175 88 367 88 c 5,14,15
 367 88 367 88 439 180 c 5,16,17
 439 180 439 180 439 629 c 5,18,19
 439 629 439 629 302 629 c 5,20,21
 270 590 270 590 175 470 c 5,22,23
 175 470 175 470 175 88 c 5,12,13
EndSplineSet
Validated: 1
EndChar

StartChar: uni0418
Encoding: 1048 1048 246
Width: 553
Flags: W
LayerCount: 2
Fore
SplineSet
380 0 m 5,0,1
 380 0 380 0 380 403 c 5,2,3
 225 200 225 200 173 133 c 5,4,5
 173 133 173 133 173 0 c 5,6,7
 173 0 173 0 67 0 c 5,8,9
 67 0 67 0 67 717 c 5,10,11
 67 717 67 717 173 717 c 5,12,13
 173 717 173 717 173 298 c 5,14,15
 328 495 328 495 380 560 c 5,16,17
 380 560 380 560 380 717 c 5,18,19
 380 717 380 717 486 717 c 5,20,21
 486 717 486 717 486 0 c 5,22,23
 486 0 486 0 380 0 c 5,0,1
EndSplineSet
Validated: 1
EndChar

StartChar: uni0419
Encoding: 1049 1049 247
Width: 553
Flags: W
LayerCount: 2
Fore
SplineSet
380 0 m 1,0,-1
 380 403 l 1,1,2
 225 200 225 200 173 133 c 1,3,-1
 173 0 l 1,4,-1
 67 0 l 1,5,-1
 67 717 l 1,6,-1
 173 717 l 1,7,-1
 173 298 l 1,8,9
 328 495 328 495 380 560 c 1,10,-1
 380 717 l 1,11,-1
 486 717 l 1,12,-1
 486 0 l 1,13,-1
 380 0 l 1,0,-1
179 818 m 1,14,-1
 223 818 l 1,15,16
 241 794 241 794 274 747 c 1,17,18
 292 771 292 771 325 818 c 1,19,-1
 369 818 l 1,20,21
 347 790 347 790 296 716 c 1,22,-1
 253 716 l 1,23,-1
 179 818 l 1,14,-1
EndSplineSet
Validated: 1
EndChar

StartChar: uni041A
Encoding: 1050 1050 248
Width: 553
Flags: W
LayerCount: 2
Fore
SplineSet
429 400 m 5,0,1
 429 400 429 400 429 312 c 5,2,3
 444 295 444 295 487 244 c 5,4,5
 487 244 487 244 487 0 c 5,6,7
 487 0 487 0 381 0 c 5,8,9
 381 0 381 0 381 226 c 5,10,11
 363 248 363 248 309 312 c 5,12,13
 309 312 309 312 173 312 c 5,14,15
 173 312 173 312 173 0 c 5,16,17
 173 0 173 0 67 0 c 5,18,19
 67 0 67 0 67 717 c 5,20,21
 67 717 67 717 173 717 c 5,22,23
 173 717 173 717 173 400 c 5,24,25
 173 400 173 400 309 400 c 5,26,27
 309 400 309 400 381 492 c 5,28,29
 381 492 381 492 381 717 c 5,30,31
 381 717 381 717 487 717 c 5,32,33
 487 717 487 717 487 473 c 5,34,35
 473 455 473 455 429 400 c 5,0,1
EndSplineSet
Validated: 1
EndChar

StartChar: uni0415
Encoding: 1045 1045 249
Width: 553
Flags: W
LayerCount: 2
Fore
SplineSet
175 543 m 5,0,1
 175 543 175 543 175 412 c 5,2,3
 175 412 175 412 487 412 c 5,4,5
 487 412 487 412 487 324 c 5,6,7
 487 324 487 324 175 324 c 5,8,9
 175 324 175 324 175 88 c 5,10,11
 175 88 175 88 487 88 c 5,12,13
 487 88 487 88 487 0 c 5,14,15
 487 0 487 0 69 0 c 5,16,17
 69 0 69 0 69 561 c 5,18,19
 69 561 69 561 193 717 c 5,20,21
 193 717 193 717 487 717 c 5,22,23
 487 717 487 717 487 629 c 5,24,25
 487 629 487 629 243 629 c 5,26,27
 226 608 226 608 175 543 c 5,0,1
EndSplineSet
Validated: 1
EndChar

StartChar: uni041D
Encoding: 1053 1053 250
Width: 553
Flags: W
LayerCount: 2
Fore
SplineSet
173 1 m 5,0,1
 173 1 173 1 67 1 c 5,2,3
 67 1 67 1 67 718 c 5,4,5
 67 718 67 718 173 718 c 5,6,7
 173 718 173 718 173 401 c 5,8,9
 173 401 173 401 381 401 c 5,10,11
 381 401 381 401 381 718 c 5,12,13
 381 718 381 718 487 718 c 5,14,15
 487 718 487 718 487 1 c 5,16,17
 487 1 487 1 381 1 c 5,18,19
 381 1 381 1 381 313 c 5,20,21
 381 313 381 313 173 313 c 5,22,23
 173 313 173 313 173 1 c 5,0,1
EndSplineSet
Validated: 1
EndChar

StartChar: uni0425
Encoding: 1061 1061 251
Width: 553
Flags: W
LayerCount: 2
Fore
SplineSet
173 0 m 5,0,1
 173 0 173 0 67 0 c 5,2,3
 67 0 67 0 67 244 c 5,4,5
 81 261 81 261 122 312 c 5,6,7
 122 312 122 312 67 312 c 5,8,9
 67 312 67 312 67 717 c 5,10,11
 67 717 67 717 173 717 c 5,12,13
 173 717 173 717 173 400 c 5,14,15
 173 400 173 400 309 400 c 5,16,17
 309 400 309 400 381 492 c 5,18,19
 381 492 381 492 381 717 c 5,20,21
 381 717 381 717 487 717 c 5,22,23
 487 717 487 717 487 473 c 5,24,25
 473 455 473 455 429 400 c 5,26,27
 429 400 429 400 487 400 c 5,28,29
 487 400 487 400 487 0 c 5,30,31
 487 0 487 0 381 0 c 5,32,33
 381 0 381 0 381 312 c 5,34,35
 381 312 381 312 244 312 c 5,36,37
 227 291 227 291 173 226 c 5,38,39
 173 226 173 226 173 0 c 5,0,1
EndSplineSet
Validated: 1
EndChar

StartChar: uni0423
Encoding: 1059 1059 252
Width: 552
Flags: W
LayerCount: 2
Fore
SplineSet
486 717 m 5,0,1
 486 717 486 717 486 508 c 5,2,3
 444 455 444 455 321 299 c 5,4,5
 321 299 321 299 321 0 c 5,6,7
 321 0 321 0 214 0 c 5,8,9
 214 0 214 0 214 299 c 5,10,11
 214 299 214 299 67 299 c 5,12,13
 67 299 67 299 67 717 c 5,14,15
 67 717 67 717 173 717 c 5,16,17
 173 717 173 717 173 387 c 5,18,19
 173 387 173 387 270 387 c 5,20,21
 298 422 298 422 380 527 c 5,22,23
 380 527 380 527 380 717 c 5,24,25
 380 717 380 717 486 717 c 5,0,1
EndSplineSet
Validated: 1
EndChar

StartChar: uni042F
Encoding: 1071 1071 253
Width: 553
Flags: W
LayerCount: 2
Fore
SplineSet
172 629 m 5,0,1
 172 629 172 629 172 492 c 5,2,3
 225 423 225 423 243 400 c 5,4,5
 243 400 243 400 380 400 c 5,6,7
 380 400 380 400 380 629 c 5,8,9
 380 629 380 629 172 629 c 5,0,1
380 0 m 5,10,11
 380 0 380 0 380 312 c 5,12,13
 380 312 380 312 243 312 c 5,14,15
 189 248 189 248 172 226 c 5,16,17
 172 226 172 226 172 0 c 5,18,19
 172 0 172 0 66 0 c 5,20,21
 66 0 66 0 66 244 c 5,22,23
 109 295 109 295 123 312 c 5,24,25
 123 312 123 312 123 400 c 5,26,27
 80 455 80 455 66 473 c 5,28,29
 66 473 66 473 66 717 c 5,30,31
 66 717 66 717 486 717 c 5,32,33
 486 717 486 717 486 0 c 5,34,35
 486 0 486 0 380 0 c 5,10,11
EndSplineSet
Validated: 1
EndChar

StartChar: uni041C
Encoding: 1052 1052 254
Width: 860
Flags: W
LayerCount: 2
Fore
SplineSet
795 512 m 5,0,1
 795 512 795 512 795 0 c 5,2,3
 795 0 795 0 689 0 c 5,4,5
 689 0 689 0 689 489 c 5,6,7
 662 524 662 524 580 629 c 5,8,9
 580 629 580 629 483 629 c 5,10,11
 483 629 483 629 483 0 c 5,12,13
 483 0 483 0 377 0 c 5,14,15
 377 0 377 0 377 489 c 5,16,17
 349 524 349 524 267 629 c 5,18,19
 267 629 267 629 170 629 c 5,20,21
 170 629 170 629 170 0 c 5,22,23
 170 0 170 0 64 0 c 5,24,25
 64 0 64 0 64 717 c 5,26,27
 64 717 64 717 318 717 c 5,28,29
 332 699 332 699 377 643 c 5,30,31
 377 643 377 643 377 717 c 5,32,33
 377 717 377 717 630 717 c 5,34,35
 671 666 671 666 795 512 c 5,0,1
EndSplineSet
Validated: 1
EndChar

StartChar: uni042E
Encoding: 1070 1070 255
Width: 840
Flags: W
LayerCount: 2
Fore
SplineSet
404 88 m 1,0,1
 404 88 404 88 596 88 c 1,2,3
 614 111 614 111 668 180 c 1,4,5
 668 180 668 180 668 629 c 1,6,7
 668 629 668 629 531 629 c 1,8,9
 499 590 499 590 404 470 c 1,10,11
 404 470 404 470 404 88 c 1,0,1
298 487 m 1,12,13
 344 544 344 544 479 717 c 1,14,15
 553 717 553 717 774 717 c 1,16,17
 774 717 774 717 774 161 c 1,18,19
 743 121 743 121 647 0 c 1,20,21
 647 0 647 0 298 -0 c 1,22,23
 298 -0 298 -0 298 183 c 2,24,-1
 298 313 l 1,25,-1
 175 313 l 1,26,27
 175 313 175 313 175 1 c 1,28,29
 175 1 175 1 69 1 c 1,30,31
 69 1 69 1 69 718 c 1,32,33
 96 718 96 718 175 718 c 1,34,35
 175 718 175 718 175 401 c 1,36,-1
 298 401 l 1,37,-1
 298 487 l 1,12,13
EndSplineSet
Validated: 1
EndChar

StartChar: uni0430
Encoding: 1072 1072 256
Width: 512
Flags: W
LayerCount: 2
Fore
SplineSet
350 208 m 5,0,1
 350 208 350 208 161 208 c 5,2,3
 161 208 161 208 161 81 c 5,4,5
 161 81 161 81 250 81 c 5,6,7
 275 113 275 113 350 208 c 5,0,1
447 510 m 5,8,9
 447 510 447 510 447 0 c 5,10,11
 447 0 447 0 350 0 c 5,12,13
 350 0 350 0 350 68 c 5,14,15
 337 51 337 51 296 0 c 5,16,17
 296 0 296 0 64 0 c 5,18,19
 64 0 64 0 64 284 c 5,20,21
 64 284 64 284 350 284 c 5,22,23
 350 284 350 284 350 433 c 5,24,25
 350 433 350 433 64 433 c 5,26,27
 64 433 64 433 64 510 c 5,28,29
 64 510 64 510 447 510 c 5,8,9
EndSplineSet
Validated: 1
EndChar

StartChar: uni0435
Encoding: 1077 1077 257
Width: 553
Flags: W
LayerCount: 2
Fore
SplineSet
380 510 m 5,0,1
 409 474 409 474 494 367 c 5,2,3
 494 367 494 367 494 226 c 5,4,5
 494 226 494 226 157 226 c 5,6,7
 157 226 157 226 157 81 c 5,8,9
 157 81 157 81 494 81 c 5,10,11
 494 81 494 81 494 0 c 5,12,13
 494 0 494 0 60 0 c 5,14,15
 60 0 60 0 60 510 c 5,16,17
 60 510 60 510 380 510 c 5,0,1
431 307 m 5,18,19
 407 338 407 338 334 429 c 5,20,21
 334 429 334 429 157 429 c 5,22,23
 157 429 157 429 157 307 c 5,24,25
 157 307 157 307 431 307 c 5,18,19
EndSplineSet
Validated: 1
EndChar

StartChar: uni0441
Encoding: 1089 1089 258
Width: 553
Flags: W
LayerCount: 2
Fore
SplineSet
174 510 m 5,0,1
 174 510 174 510 494 510 c 5,2,3
 494 510 494 510 494 429 c 5,4,5
 494 429 494 429 220 429 c 5,6,7
 204 410 204 410 157 350 c 5,8,9
 157 350 157 350 157 81 c 5,10,11
 157 81 157 81 494 81 c 5,12,13
 494 81 494 81 494 0 c 5,14,15
 494 0 494 0 60 0 c 5,16,17
 60 0 60 0 60 367 c 5,18,19
 88 403 88 403 174 510 c 5,0,1
EndSplineSet
Validated: 1
EndChar

StartChar: uni0442
Encoding: 1090 1090 259
Width: 389
Flags: W
LayerCount: 2
Fore
SplineSet
328 510 m 5,0,1
 328 510 328 510 328 431 c 5,2,3
 328 431 328 431 221 431 c 5,4,5
 221 431 221 431 221 0 c 5,6,7
 221 0 221 0 126 0 c 5,8,9
 126 0 126 0 126 431 c 5,10,11
 126 431 126 431 60 431 c 5,12,13
 60 431 60 431 60 510 c 5,14,15
 60 510 60 510 328 510 c 5,0,1
EndSplineSet
Validated: 1
EndChar

StartChar: uni0443
Encoding: 1091 1091 260
Width: 512
Flags: W
LayerCount: 2
Fore
SplineSet
64 510 m 5,0,1
 64 510 64 510 161 510 c 5,2,3
 161 510 161 510 161 82 c 5,4,5
 161 82 161 82 250 82 c 5,6,7
 276 113 276 113 351 206 c 5,8,9
 351 206 351 206 351 510 c 5,10,11
 351 510 351 510 449 510 c 5,12,13
 449 510 449 510 449 -148 c 5,14,15
 449 -148 449 -148 64 -148 c 5,16,17
 64 -148 64 -148 64 -67 c 5,18,19
 64 -67 64 -67 351 -67 c 5,20,21
 351 -67 351 -67 351 65 c 5,22,23
 337 49 337 49 297 1 c 5,24,25
 297 1 297 1 64 1 c 5,26,27
 64 1 64 1 64 510 c 5,0,1
EndSplineSet
Validated: 1
EndChar

StartChar: uni0445
Encoding: 1093 1093 261
Width: 512
Flags: W
LayerCount: 2
Fore
SplineSet
304 510 m 5,0,1
 304 510 304 510 304 428 c 5,2,3
 318 449 318 449 358 510 c 5,4,5
 358 510 358 510 448 510 c 5,6,7
 448 510 448 510 448 433 c 5,8,9
 448 433 448 433 404 433 c 5,10,11
 379 397 379 397 304 288 c 5,12,13
 304 288 304 288 304 81 c 5,14,15
 304 81 304 81 448 81 c 5,16,17
 448 81 448 81 448 0 c 5,18,19
 448 0 448 0 207 0 c 5,20,21
 207 0 207 0 207 81 c 5,22,23
 194 61 194 61 153 0 c 5,24,25
 153 0 153 0 63 0 c 5,26,27
 63 0 63 0 63 81 c 5,28,29
 63 81 63 81 107 81 c 5,30,31
 132 113 132 113 207 208 c 5,32,33
 207 208 207 208 207 433 c 5,34,35
 207 433 207 433 63 433 c 5,36,37
 63 433 63 433 63 510 c 5,38,39
 63 510 63 510 304 510 c 5,0,1
EndSplineSet
Validated: 1
EndChar

StartChar: uni0438
Encoding: 1080 1080 262
Width: 512
Flags: W
LayerCount: 2
Fore
SplineSet
65 0 m 1,0,1
 65 0 65 0 65 510 c 1,2,3
 65 510 65 510 162 510 c 1,4,5
 162 510 162 510 162 81 c 1,6,7
 162 81 162 81 250 81 c 1,8,9
 275 113 275 113 350 208 c 1,10,11
 350 208 350 208 350 510 c 1,12,13
 350 510 350 510 447 510 c 1,14,15
 447 510 447 510 447 0 c 1,16,17
 447 0 447 0 350 0 c 1,18,19
 350 0 350 0 350 68 c 1,20,21
 337 51 337 51 296 0 c 1,22,23
 296 0 296 0 65 0 c 1,0,1
EndSplineSet
Validated: 1
EndChar

StartChar: uni043E
Encoding: 1086 1086 263
Width: 532
Flags: W
LayerCount: 2
Fore
SplineSet
57 307 m 5,0,1
 97 357 97 357 216 510 c 5,2,3
 216 510 216 510 476 510 c 5,4,5
 476 510 476 510 476 143 c 5,6,7
 448 107 448 107 363 0 c 5,8,9
 363 0 363 0 57 0 c 5,10,11
 57 0 57 0 57 307 c 5,0,1
150 78 m 5,12,13
 150 78 150 78 319 78 c 5,14,15
 335 98 335 98 382 159 c 5,16,17
 382 159 382 159 382 432 c 5,18,19
 382 432 382 432 261 432 c 5,20,21
 234 397 234 397 150 292 c 5,22,23
 150 292 150 292 150 78 c 5,12,13
EndSplineSet
Validated: 1
EndChar

StartChar: uni0439
Encoding: 1081 1081 264
Width: 512
Flags: W
LayerCount: 2
Fore
SplineSet
159 614 m 1,0,-1
 203 614 l 1,1,2
 221 590 221 590 254 543 c 1,3,4
 272 567 272 567 305 614 c 1,5,-1
 349 614 l 1,6,7
 327 586 327 586 276 512 c 1,8,-1
 233 512 l 1,9,-1
 159 614 l 1,0,-1
65 0 m 1,10,-1
 65 510 l 1,11,-1
 162 510 l 1,12,-1
 162 81 l 1,13,-1
 250 81 l 1,14,15
 275 113 275 113 350 208 c 1,16,-1
 350 510 l 1,17,-1
 447 510 l 1,18,-1
 447 0 l 1,19,-1
 350 0 l 1,20,-1
 350 68 l 1,21,22
 337 51 337 51 296 0 c 1,23,-1
 65 0 l 1,10,-1
EndSplineSet
Validated: 1
EndChar

StartChar: uni0440
Encoding: 1088 1088 265
Width: 512
Flags: W
LayerCount: 2
Fore
SplineSet
162 207 m 5,0,1
 187 175 187 175 262 82 c 5,2,3
 262 82 262 82 351 82 c 5,4,5
 351 82 351 82 351 300 c 5,6,7
 326 333 326 333 251 429 c 5,8,9
 251 429 251 429 162 429 c 5,10,11
 162 429 162 429 162 207 c 5,0,1
162 -148 m 5,12,13
 162 -148 162 -148 63 -148 c 5,14,15
 63 -148 63 -148 63 510 c 5,16,17
 63 510 63 510 297 510 c 5,18,19
 335 462 335 462 449 319 c 5,20,21
 449 319 449 319 449 0 c 5,22,23
 449 0 449 0 216 0 c 5,24,25
 202 17 202 17 162 65 c 5,26,27
 162 65 162 65 162 -148 c 5,12,13
EndSplineSet
Validated: 1
EndChar

StartChar: uni043F
Encoding: 1087 1087 266
Width: 512
Flags: W
LayerCount: 2
Fore
SplineSet
64 321 m 5,0,1
 64 321 64 321 215 510 c 5,2,3
 215 510 215 510 447 510 c 5,4,5
 447 510 447 510 447 0 c 5,6,7
 447 0 447 0 350 0 c 5,8,9
 350 0 350 0 350 429 c 5,10,11
 350 429 350 429 261 429 c 5,12,13
 236 398 236 398 161 302 c 5,14,15
 161 302 161 302 161 0 c 5,16,17
 161 0 161 0 64 0 c 5,18,19
 64 0 64 0 64 321 c 5,0,1
EndSplineSet
Validated: 1
EndChar

StartChar: uni0413
Encoding: 1043 1043 267
Width: 553
Flags: W
LayerCount: 2
Fore
SplineSet
67 717 m 5,0,1
 67 717 67 717 488 717 c 5,2,3
 488 717 488 717 488 633 c 5,4,5
 488 633 488 633 173 633 c 5,6,7
 173 633 173 633 173 0 c 5,8,9
 173 0 173 0 67 0 c 5,10,11
 67 0 67 0 67 717 c 5,0,1
EndSplineSet
Validated: 1
EndChar

StartChar: uni041F
Encoding: 1055 1055 268
Width: 553
Flags: W
LayerCount: 2
Fore
SplineSet
487 718 m 5,0,1
 487 718 487 718 487 1 c 5,2,3
 487 1 487 1 381 1 c 5,4,5
 381 1 381 1 381 630 c 5,6,7
 381 630 381 630 173 630 c 5,8,9
 173 630 173 630 173 1 c 5,10,11
 173 1 173 1 67 1 c 5,12,13
 67 1 67 1 67 718 c 5,14,15
 67 718 67 718 487 718 c 5,0,1
EndSplineSet
Validated: 1
EndChar

StartChar: uni0424
Encoding: 1060 1060 269
Width: 738
Flags: W
LayerCount: 2
Fore
SplineSet
69 400 m 5,0,1
 115 457 115 457 250 630 c 5,2,-1
 322 630 l 5,3,-1
 322 717 l 5,4,-1
 428 717 l 5,5,-1
 428 630 l 5,6,-1
 660 630 l 5,7,8
 660 630 660 630 660 248 c 5,9,10
 629 208 629 208 533 87 c 5,11,-1
 428 87 l 5,12,-1
 428 0 l 5,13,14
 428 0 428 0 322 0 c 5,15,-1
 322 87 l 5,16,-1
 69 87 l 5,17,18
 69 87 69 87 69 400 c 5,0,1
322 175 m 5,19,-1
 322 542 l 5,20,-1
 302 542 l 5,21,22
 270 503 270 503 175 383 c 5,23,24
 175 383 175 383 175 175 c 5,25,-1
 322 175 l 5,19,-1
428 175 m 5,26,-1
 482 175 l 5,27,28
 482 175 482 175 554 267 c 5,29,30
 554 267 554 267 554 542 c 5,31,-1
 428 542 l 5,32,-1
 428 175 l 5,26,-1
EndSplineSet
Validated: 1
EndChar

StartChar: uni0416
Encoding: 1046 1046 270
Width: 864
Flags: W
LayerCount: 2
Fore
SplineSet
381 0 m 5,0,1
 381 0 381 0 381 312 c 5,2,3
 381 312 381 312 245 312 c 5,4,5
 191 248 191 248 173 226 c 5,6,7
 173 226 173 226 173 0 c 5,8,9
 173 0 173 0 67 0 c 5,10,11
 67 0 67 0 67 244 c 5,12,13
 110 295 110 295 125 312 c 5,14,15
 125 312 125 312 125 400 c 5,16,17
 81 455 81 455 67 473 c 5,18,19
 67 473 67 473 67 717 c 5,20,21
 67 717 67 717 173 717 c 5,22,23
 173 717 173 717 173 492 c 5,24,25
 173 492 173 492 245 400 c 5,26,27
 245 400 245 400 381 400 c 5,28,29
 381 400 381 400 381 717 c 5,30,31
 381 717 381 717 487 717 c 5,32,33
 487 717 487 717 487 400 c 5,34,35
 487 400 487 400 623 400 c 5,36,37
 623 400 623 400 694 492 c 5,38,39
 694 695 694 695 695 717 c 5,40,41
 695 717 695 717 801 717 c 5,42,43
 801 717 801 717 800 473 c 5,44,45
 791 464 791 464 743 400 c 5,46,47
 743 400 743 400 743 312 c 5,48,49
 758 295 758 295 801 244 c 5,50,51
 801 244 801 244 801 0 c 5,52,53
 801 0 801 0 695 0 c 5,54,55
 695 0 695 0 695 226 c 5,56,57
 677 248 677 248 623 312 c 5,58,59
 623 312 623 312 487 312 c 5,60,61
 487 312 487 312 487 0 c 5,62,63
 487 0 487 0 381 0 c 5,0,1
EndSplineSet
Validated: 1
EndChar

StartChar: uni0428
Encoding: 1064 1064 271
Width: 860
Flags: W
LayerCount: 2
Fore
SplineSet
170 88 m 5,0,1
 170 88 170 88 377 87 c 5,2,3
 377 87 377 87 377 717 c 5,4,5
 377 717 377 717 483 717 c 5,6,7
 483 717 483 717 483 88 c 5,8,9
 483 88 483 88 580 88 c 5,10,11
 662 193 662 193 689 228 c 5,12,13
 689 228 689 228 689 717 c 5,14,15
 689 717 689 717 795 717 c 5,16,17
 795 717 795 717 795 205 c 5,18,19
 671 51 671 51 630 0 c 5,20,21
 630 0 630 0 64 0 c 5,22,23
 64 0 64 0 64 717 c 5,24,25
 64 717 64 717 170 717 c 5,26,27
 170 717 170 717 170 88 c 5,0,1
EndSplineSet
Validated: 1
EndChar

StartChar: uni0429
Encoding: 1065 1065 272
Width: 860
Flags: W
LayerCount: 2
Fore
SplineSet
794 112 m 1029,0,1
64 0 m 5,2,-1
 64 717 l 5,3,-1
 170 717 l 5,4,-1
 170 88 l 5,5,-1
 377 87 l 5,6,-1
 377 717 l 5,7,-1
 483 717 l 5,8,-1
 483 88 l 5,9,-1
 580 88 l 261,10,11
 580 88 580 88 689 228 c 261,12,13
 689 228 689 228 689 717 c 5,14,-1
 716 717 l 5,15,-1
 795 717 l 5,16,-1
 795 205 l 5,17,18
 795 205 795 205 749 148 c 5,19,20
 749 148 749 148 794 112 c 5,21,-1
 794 0 l 5,22,-1
 768 0 l 5,23,-1
 684 68 l 5,24,25
 684 68 684 68 630 0 c 5,26,27
 630 0 630 0 64 0 c 5,2,-1
EndSplineSet
Validated: 1
EndChar

StartChar: uni042C
Encoding: 1068 1068 273
Width: 552
Flags: W
LayerCount: 2
Fore
SplineSet
381 88 m 5,0,1
 381 88 381 88 381 225 c 5,2,3
 381 225 381 225 309 317 c 5,4,5
 309 317 309 317 173 317 c 5,6,7
 173 317 173 317 173 88 c 5,8,9
 173 88 173 88 381 88 c 5,0,1
487 0 m 5,10,11
 487 0 487 0 67 0 c 5,12,13
 67 0 67 0 67 717 c 5,14,15
 67 717 67 717 173 717 c 5,16,17
 173 717 173 717 173 405 c 5,18,19
 173 405 173 405 359 405 c 5,20,21
 455 284 455 284 487 244 c 5,22,23
 487 244 487 244 487 0 c 5,10,11
EndSplineSet
Validated: 1
EndChar

StartChar: uni042B
Encoding: 1067 1067 274
Width: 740
Flags: W
LayerCount: 2
Fore
SplineSet
658 0 m 5,0,1
 658 0 658 0 552 0 c 5,2,3
 552 0 552 0 552 717 c 5,4,5
 552 717 552 717 658 717 c 5,6,7
 658 717 658 717 658 0 c 5,0,1
381 88 m 5,8,9
 381 88 381 88 381 225 c 5,10,11
 381 225 381 225 309 317 c 5,12,13
 309 317 309 317 173 317 c 5,14,15
 173 317 173 317 173 88 c 5,16,17
 173 88 173 88 381 88 c 5,8,9
487 0 m 5,18,19
 487 0 487 0 67 0 c 5,20,21
 67 0 67 0 67 717 c 5,22,23
 67 717 67 717 173 717 c 5,24,25
 173 717 173 717 173 405 c 5,26,27
 173 405 173 405 359 405 c 5,28,29
 455 284 455 284 487 244 c 5,30,31
 487 244 487 244 487 0 c 5,18,19
EndSplineSet
Validated: 1
EndChar

StartChar: uni042A
Encoding: 1066 1066 275
Width: 662
Flags: W
LayerCount: 2
Fore
SplineSet
66 717 m 5,0,-1
 283 717 l 5,1,-1
 283 405 l 5,2,-1
 469 405 l 5,3,4
 565 284 565 284 597 244 c 5,5,6
 597 244 597 244 597 0 c 5,7,-1
 177 0 l 5,8,-1
 177 179 l 5,9,-1
 177 628 l 5,10,-1
 66 628 l 5,11,-1
 66 717 l 5,0,-1
491 88 m 5,12,-1
 491 225 l 5,13,-1
 419 317 l 5,14,-1
 283 317 l 5,15,-1
 283 145 l 5,16,-1
 283 88 l 5,17,-1
 491 88 l 5,12,-1
EndSplineSet
Validated: 1
EndChar

StartChar: uni041B
Encoding: 1051 1051 276
Width: 628
Flags: W
LayerCount: 2
Fore
SplineSet
146 115 m 5,0,-1
 145 512 l 5,1,2
 269 666 269 666 310 717 c 5,3,4
 310 717 310 717 563 717 c 5,5,6
 563 717 563 717 563 0 c 5,7,8
 563 0 563 0 457 0 c 5,9,10
 457 0 457 0 457 629 c 5,11,12
 457 629 457 629 360 629 c 5,13,14
 278 524 278 524 251 489 c 5,15,16
 251 489 251 489 251 92 c 5,17,18
 251 92 251 92 187 0 c 5,19,20
 187 0 187 0 60 0 c 5,21,-1
 146 115 l 5,0,-1
EndSplineSet
Validated: 1
EndChar

StartChar: uni0444
Encoding: 1092 1092 277
Width: 694
Flags: W
LayerCount: 2
Fore
SplineSet
57 0 m 5,0,-1
 57 307 l 1,1,2
 97 357 97 357 216 510 c 1,3,-1
 321 509 l 1,4,-1
 321 620 l 1,5,-1
 410 620 l 1,6,-1
 410 509 l 1,7,-1
 621 508 l 1,8,-1
 621 141 l 1,9,10
 593 105 593 105 508 -2 c 1,11,-1
 410 -1 l 1,12,-1
 410 -43 l 1,13,-1
 321 -43 l 1,14,-1
 321 -1 l 5,15,-1
 57 0 l 5,0,-1
150 78 m 1,16,-1
 321 77 l 1,17,-1
 321 432 l 1,18,-1
 261 432 l 1,19,20
 234 397 234 397 150 292 c 1,21,-1
 150 78 l 1,16,-1
410 76 m 1,22,-1
 464 76 l 1,23,24
 480 96 480 96 527 157 c 1,25,-1
 527 430 l 1,26,-1
 410 431 l 1,27,-1
 410 76 l 1,22,-1
EndSplineSet
Validated: 1
EndChar

StartChar: uni043D
Encoding: 1085 1085 278
Width: 512
Flags: W
LayerCount: 2
Fore
SplineSet
60 510 m 5,0,-1
 161 510 l 5,1,-1
 161 310 l 5,2,-1
 350 310 l 5,3,-1
 350 510 l 5,4,-1
 447 510 l 5,5,-1
 447 0 l 5,6,-1
 350 0 l 5,7,-1
 350 223 l 5,8,-1
 161 223 l 5,9,-1
 161 0 l 5,10,-1
 60 0 l 5,11,-1
 60 510 l 5,0,-1
EndSplineSet
Validated: 1
EndChar

StartChar: uni0417
Encoding: 1047 1047 279
Width: 534
Flags: W
LayerCount: 2
Fore
SplineSet
50 0 m 5,0,1
 50 0 50 0 50 88 c 5,2,3
 50 88 50 88 362 88 c 5,4,5
 362 88 362 88 362 237 c 5,6,7
 362 237 362 237 294 324 c 5,8,9
 294 324 294 324 50 324 c 5,10,11
 50 324 50 324 50 412 c 5,12,13
 50 412 50 412 344 412 c 5,14,15
 344 412 344 412 362 436 c 5,16,17
 362 436 362 436 363 543 c 5,18,19
 363 543 363 543 294 629 c 5,20,21
 294 629 294 629 50 629 c 5,22,23
 50 629 50 629 50 717 c 5,24,25
 50 717 50 717 345 717 c 5,26,27
 345 717 345 717 469 561 c 5,28,29
 469 561 469 561 468 417 c 5,30,31
 468 417 468 417 404 336 c 5,32,33
 404 336 404 336 468 256 c 5,34,35
 468 256 468 256 468 0 c 5,36,37
 468 0 468 0 50 0 c 5,0,1
EndSplineSet
Validated: 1
EndChar

StartChar: uni0426
Encoding: 1062 1062 280
Width: 556
Flags: W
LayerCount: 2
Fore
SplineSet
490 112 m 1029,0,1
73 0 m 5,2,-1
 73 717 l 5,3,-1
 179 717 l 5,4,-1
 179 88 l 5,5,-1
 276 88 l 261,6,7
 276 88 276 88 385 228 c 261,8,9
 385 228 385 228 385 717 c 5,10,-1
 412 717 l 5,11,-1
 491 717 l 5,12,-1
 491 205 l 5,13,14
 491 205 491 205 445 148 c 5,15,16
 445 148 445 148 490 112 c 5,17,-1
 490 0 l 5,18,-1
 464 0 l 5,19,-1
 380 68 l 5,20,21
 380 68 380 68 326 0 c 5,22,23
 326 0 326 0 73 0 c 5,2,-1
EndSplineSet
Validated: 1
EndChar

StartChar: uni042D
Encoding: 1069 1069 281
Width: 553
Flags: W
LayerCount: 2
Fore
SplineSet
487 561 m 5,0,-1
 487 0 l 5,1,-1
 68 0 l 5,2,-1
 68 88 l 5,3,-1
 381 88 l 5,4,-1
 381 324 l 5,5,-1
 128 324 l 5,6,-1
 128 412 l 5,7,-1
 381 412 l 5,8,-1
 381 543 l 5,9,-1
 312 629 l 5,10,-1
 68 629 l 5,11,-1
 68 717 l 5,12,-1
 363 717 l 5,13,-1
 487 561 l 5,0,-1
EndSplineSet
Validated: 1
EndChar

StartChar: uni044D
Encoding: 1101 1101 282
Width: 553
Flags: W
LayerCount: 2
Fore
SplineSet
380 510 m 1,0,1
 466 403 466 403 494 367 c 1,2,3
 494 367 494 367 494 0 c 1,4,5
 494 0 494 0 60 0 c 1,6,7
 60 0 60 0 60 81 c 1,8,9
 60 81 60 81 397 81 c 1,10,-1
 397 223 l 1,11,-1
 161 223 l 1,12,-1
 161 310 l 1,13,-1
 397 310 l 1,14,-1
 397 350 l 1,15,16
 350 410 350 410 334 429 c 1,17,18
 334 429 334 429 60 429 c 1,19,20
 60 429 60 429 60 510 c 1,21,22
 60 510 60 510 380 510 c 1,0,1
EndSplineSet
Validated: 1
EndChar

StartChar: uni044E
Encoding: 1102 1102 283
Width: 731
Flags: W
LayerCount: 2
Fore
SplineSet
349 78 m 5,0,1
 349 78 349 78 518 78 c 5,2,3
 518 78 518 78 581 159 c 5,4,5
 581 159 581 159 581 432 c 5,6,7
 581 432 581 432 460 432 c 5,8,9
 460 432 460 432 349 292 c 5,10,11
 349 292 349 292 349 78 c 5,0,1
256 0 m 5,12,13
 256 0 256 0 256 223 c 5,14,-1
 150 223 l 5,15,-1
 150 0 l 5,16,-1
 49 0 l 5,17,-1
 49 510 l 5,18,-1
 150 510 l 5,19,-1
 150 310 l 5,20,-1
 258 310 l 5,21,22
 258 310 258 310 415 510 c 5,23,24
 415 510 415 510 675 510 c 5,25,26
 675 510 675 510 675 143 c 5,27,28
 675 143 675 143 562 0 c 5,29,30
 562 0 562 0 256 0 c 5,12,13
EndSplineSet
Validated: 1
EndChar

StartChar: uni0450
Encoding: 1104 1104 284
Width: 573
Flags: W
LayerCount: 2
Fore
SplineSet
174 655 m 5,0,1
 174 655 174 655 255 655 c 5,2,3
 273 630 273 630 328 554 c 5,4,5
 328 554 328 554 248 554 c 5,6,7
 230 579 230 579 174 655 c 5,0,1
393 510 m 5,8,9
 421 474 421 474 506 367 c 5,10,11
 506 367 506 367 506 226 c 5,12,13
 506 226 506 226 169 226 c 5,14,15
 169 226 169 226 169 81 c 5,16,17
 169 81 169 81 506 81 c 5,18,19
 506 81 506 81 506 0 c 5,20,21
 506 0 506 0 72 0 c 5,22,23
 72 0 72 0 72 510 c 5,24,25
 72 510 72 510 393 510 c 5,8,9
443 307 m 5,26,27
 419 338 419 338 347 429 c 5,28,29
 347 429 347 429 169 429 c 5,30,31
 169 429 169 429 169 307 c 5,32,33
 169 307 169 307 443 307 c 5,26,27
EndSplineSet
Validated: 1
EndChar

StartChar: uni0451
Encoding: 1105 1105 285
Width: 553
Flags: W
LayerCount: 2
Fore
SplineSet
321 649 m 5,0,1
 321 649 321 649 417 649 c 5,2,3
 417 649 417 649 417 554 c 5,4,5
 417 554 417 554 321 554 c 5,6,7
 321 554 321 554 321 649 c 5,0,1
147 554 m 5,8,9
 147 554 147 554 147 649 c 5,10,11
 147 649 147 649 243 649 c 5,12,13
 243 649 243 649 243 554 c 5,14,15
 243 554 243 554 147 554 c 5,8,9
380 510 m 5,16,17
 409 474 409 474 494 367 c 5,18,19
 494 367 494 367 494 226 c 5,20,21
 494 226 494 226 157 226 c 5,22,23
 157 226 157 226 157 81 c 5,24,25
 157 81 157 81 494 81 c 5,26,27
 494 81 494 81 494 0 c 5,28,29
 494 0 494 0 60 0 c 5,30,31
 60 0 60 0 60 510 c 5,32,33
 60 510 60 510 380 510 c 5,16,17
431 307 m 5,34,35
 407 338 407 338 334 429 c 5,36,37
 334 429 334 429 157 429 c 5,38,39
 157 429 157 429 157 307 c 5,40,41
 157 307 157 307 431 307 c 5,34,35
EndSplineSet
Validated: 1
EndChar

StartChar: uni0431
Encoding: 1073 1073 286
Width: 512
Flags: W
LayerCount: 2
Fore
SplineSet
350 208 m 5,0,1
 350 208 350 208 161 208 c 5,2,3
 161 208 161 208 161 81 c 5,4,5
 161 81 161 81 250 81 c 5,6,7
 250 81 250 81 350 208 c 5,0,1
318 0 m 5,8,9
 318 0 318 0 64 0 c 5,10,11
 64 0 64 0 64 510 c 5,12,13
 64 510 64 510 375 510 c 5,14,15
 375 510 375 510 375 433 c 5,16,17
 375 433 375 433 161 433 c 5,18,19
 161 433 161 433 161 284 c 5,20,21
 161 284 161 284 447 284 c 5,22,23
 447 284 447 284 447 160 c 5,24,25
 447 160 447 160 318 0 c 5,8,9
EndSplineSet
Validated: 1
EndChar

StartChar: uni0432
Encoding: 1074 1074 287
Width: 512
Flags: W
LayerCount: 2
Fore
SplineSet
379 408 m 5,0,-1
 379 284 l 5,1,-1
 447 284 l 5,2,-1
 447 160 l 5,3,-1
 318 0 l 5,4,-1
 64 0 l 5,5,-1
 64 510 l 5,6,-1
 295 510 l 5,7,-1
 379 408 l 5,0,-1
365 208 m 5,8,-1
 161 208 l 5,9,-1
 161 81 l 5,10,-1
 265 81 l 5,11,-1
 365 208 l 5,8,-1
265 433 m 5,12,13
 265 433 265 433 161 433 c 5,14,-1
 161 284 l 5,15,-1
 311 284 l 5,16,-1
 311 381 l 5,17,18
 311 381 311 381 265 433 c 5,12,13
EndSplineSet
Validated: 1
EndChar

StartChar: uni0433
Encoding: 1075 1075 288
Width: 440
Flags: W
LayerCount: 2
Fore
SplineSet
61 0 m 5,0,1
 61 0 61 0 61 510 c 5,2,3
 61 510 61 510 389 510 c 5,4,5
 389 510 389 510 389 429 c 5,6,7
 389 429 389 429 158 429 c 5,8,9
 158 429 158 429 158 0 c 5,10,11
 158 0 158 0 61 0 c 5,0,1
EndSplineSet
Validated: 1
EndChar

StartChar: uni043A
Encoding: 1082 1082 289
Width: 410
Flags: W
LayerCount: 2
Fore
SplineSet
241 0 m 5,0,1
 241 0 241 0 160 69 c 5,2,3
 160 69 160 69 160 0 c 5,4,5
 160 0 160 0 62 0 c 5,6,7
 62 0 62 0 62 509 c 5,8,9
 62 509 62 509 160 509 c 5,10,11
 160 509 160 509 160 426 c 5,12,13
 160 426 160 426 241 508 c 5,14,15
 241 508 241 508 349 508 c 5,16,17
 349 508 349 508 349 431 c 5,18,19
 349 431 349 431 287 431 c 5,20,21
 287 431 287 431 160 285 c 5,22,23
 160 285 160 285 160 209 c 5,24,25
 160 209 160 209 287 81 c 5,26,27
 287 81 287 81 349 81 c 5,28,29
 349 81 349 81 349 0 c 5,30,31
 349 0 349 0 241 0 c 5,0,1
EndSplineSet
Validated: 1
EndChar

StartChar: uni0436
Encoding: 1078 1078 290
Width: 599
Flags: W
LayerCount: 2
Fore
SplineSet
349 509 m 5,0,-1
 349 426 l 5,1,-1
 430 508 l 5,2,-1
 538 508 l 5,3,-1
 538 431 l 5,4,-1
 476 431 l 5,5,-1
 349 285 l 5,6,-1
 349 209 l 5,7,-1
 476 81 l 5,8,-1
 538 81 l 5,9,-1
 538 0 l 5,10,-1
 430 0 l 5,11,-1
 349 69 l 5,12,-1
 349 0 l 5,13,-1
 246 0 l 5,14,-1
 246 69 l 5,15,-1
 165 0 l 5,16,-1
 57 0 l 5,17,-1
 57 81 l 5,18,-1
 119 81 l 5,19,-1
 246 209 l 5,20,-1
 246 285 l 5,21,-1
 119 431 l 5,22,-1
 57 431 l 5,23,-1
 57 508 l 5,24,-1
 165 508 l 5,25,-1
 246 426 l 5,26,-1
 246 509 l 5,27,-1
 349 509 l 5,0,-1
EndSplineSet
Validated: 1
EndChar

StartChar: uni043B
Encoding: 1083 1083 291
Width: 602
Flags: MW
LayerCount: 2
Fore
SplineSet
440 0 m 1,0,-1
 440 429 l 1,1,-1
 351 429 l 1,2,3
 326 398 326 398 251 302 c 1,4,-1
 251 142 l 1,5,-1
 138 0 l 1,6,-1
 42 0 l 1,7,-1
 154 141 l 1,8,-1
 154 321 l 1,9,-1
 305 510 l 1,10,-1
 537 510 l 1,11,-1
 537 0 l 1,12,-1
 440 0 l 1,0,-1
EndSplineSet
Validated: 1
EndChar

StartChar: uni043C
Encoding: 1084 1084 292
Width: 816
Flags: W
LayerCount: 2
Fore
SplineSet
350 0 m 5,0,1
 350 0 350 0 350 429 c 5,2,3
 350 429 350 429 261 429 c 5,4,5
 236 398 236 398 161 302 c 5,6,7
 161 302 161 302 161 0 c 5,8,9
 161 0 161 0 64 0 c 5,10,-1
 64 321 l 5,11,-1
 215 510 l 5,12,13
 215 510 215 510 447 510 c 5,14,-1
 447 441 l 5,15,-1
 502 510 l 5,16,17
 502 510 502 510 734 510 c 5,18,19
 734 510 734 510 734 0 c 5,20,21
 734 0 734 0 637 0 c 5,22,23
 637 0 637 0 637 429 c 5,24,25
 637 429 637 429 548 429 c 5,26,27
 523 398 523 398 448 302 c 5,28,29
 448 302 448 302 447 0 c 5,30,-1
 350 0 l 5,0,1
EndSplineSet
Validated: 1
EndChar

StartChar: uni0437
Encoding: 1079 1079 293
Width: 580
Flags: W
LayerCount: 2
Fore
SplineSet
132 302 m 5,0,-1
 348 302 l 5,1,-1
 379 335 l 5,2,3
 379 349 379 349 378 384 c 5,4,5
 378 384 378 384 333 433 c 5,6,-1
 132 433 l 5,7,-1
 132 510 l 5,8,-1
 363 510 l 5,9,-1
 447 408 l 5,10,-1
 447 301 l 5,11,-1
 401 255 l 5,12,-1
 447 200 l 5,13,-1
 447 0 l 5,14,-1
 132 0 l 5,15,-1
 132 76 l 5,16,-1
 379 76 l 5,17,-1
 379 173 l 5,18,-1
 333 225 l 5,19,-1
 132 225 l 5,20,-1
 132 302 l 5,0,-1
EndSplineSet
Validated: 1
EndChar

StartChar: uni0427
Encoding: 1063 1063 294
Width: 552
Flags: W
LayerCount: 2
Fore
SplineSet
487 717 m 5,0,1
 487 717 487 717 487 0 c 5,2,3
 487 0 487 0 381 0 c 5,4,5
 381 0 381 0 381 312 c 5,6,7
 381 312 381 312 195 312 c 5,8,9
 99 433 99 433 67 473 c 5,10,11
 67 473 67 473 67 717 c 5,12,13
 67 717 67 717 173 717 c 5,14,15
 173 717 173 717 173 492 c 5,16,17
 173 492 173 492 245 400 c 5,18,19
 245 400 245 400 381 400 c 5,20,21
 381 400 381 400 381 717 c 5,22,23
 381 717 381 717 487 717 c 5,0,1
EndSplineSet
Validated: 1
EndChar

StartChar: uni044C
Encoding: 1100 1100 295
Width: 512
Flags: W
LayerCount: 2
Fore
SplineSet
350 208 m 5,0,1
 350 208 350 208 161 208 c 5,2,3
 161 208 161 208 161 81 c 5,4,5
 161 81 161 81 250 81 c 5,6,7
 250 81 250 81 350 208 c 5,0,1
161 284 m 5,8,9
 161 284 161 284 447 284 c 5,10,11
 447 284 447 284 447 160 c 5,12,13
 447 160 447 160 318 0 c 5,14,15
 318 0 318 0 64 0 c 5,16,17
 64 0 64 0 64 510 c 5,18,19
 64 510 64 510 160 510 c 5,20,21
 160 397 160 397 161 284 c 5,8,9
EndSplineSet
Validated: 1
EndChar

StartChar: uni044B
Encoding: 1099 1099 296
Width: 658
Flags: W
LayerCount: 2
Fore
SplineSet
494 510 m 5,0,-1
 592 510 l 5,1,-1
 592 0 l 5,2,-1
 494 0 l 5,3,-1
 494 510 l 5,0,-1
350 208 m 5,4,-1
 161 208 l 5,5,-1
 161 81 l 5,6,-1
 250 81 l 5,7,-1
 350 208 l 5,4,-1
161 284 m 5,8,9
 161 284 161 284 447 284 c 5,10,11
 447 284 447 284 447 160 c 5,12,13
 447 160 447 160 318 0 c 5,14,15
 318 0 318 0 64 0 c 5,16,17
 64 0 64 0 64 510 c 5,18,19
 64 510 64 510 160 510 c 5,20,21
 160 397 160 397 161 284 c 5,8,9
EndSplineSet
Validated: 1
EndChar

StartChar: uni044A
Encoding: 1098 1098 297
Width: 618
Flags: W
LayerCount: 2
Fore
SplineSet
266 510 m 5,0,1
 266 397 266 397 267 284 c 5,2,-1
 553 284 l 5,3,-1
 553 160 l 5,4,-1
 424 0 l 5,5,-1
 170 0 l 5,6,-1
 170 415 l 5,7,-1
 54 415 l 5,8,-1
 54 510 l 5,9,-1
 266 510 l 5,0,1
456 208 m 5,10,-1
 267 208 l 5,11,-1
 267 81 l 5,12,-1
 356 81 l 5,13,-1
 456 208 l 5,10,-1
EndSplineSet
Validated: 1
EndChar

StartChar: uni0447
Encoding: 1095 1095 298
Width: 512
Flags: W
LayerCount: 2
Fore
SplineSet
350 510 m 5,0,1
 350 510 350 510 449 510 c 5,2,3
 449 510 449 510 449 0 c 5,4,5
 449 0 449 0 350 0 c 5,6,7
 350 0 350 0 350 213 c 5,8,9
 310 165 310 165 296 148 c 5,10,11
 296 148 296 148 63 148 c 5,12,13
 63 148 63 148 63 510 c 5,14,15
 63 510 63 510 161 510 c 5,16,17
 161 510 161 510 161 230 c 5,18,19
 161 230 161 230 250 230 c 5,20,21
 325 323 325 323 350 355 c 5,22,23
 350 355 350 355 350 510 c 5,0,1
EndSplineSet
Validated: 1
EndChar

StartChar: uni0448
Encoding: 1096 1096 299
Width: 816
Flags: W
LayerCount: 2
Fore
SplineSet
350 81 m 5,0,1
 350 81 350 81 351 510 c 5,2,-1
 448 510 l 5,3,4
 448 510 448 510 448 81 c 5,5,6
 448 81 448 81 537 81 c 5,7,8
 562 112 562 112 637 208 c 5,9,10
 637 208 637 208 637 510 c 5,11,12
 637 510 637 510 734 510 c 5,13,-1
 734 189 l 5,14,-1
 583 0 l 5,15,16
 583 0 583 0 64 0 c 5,17,18
 64 0 64 0 64 510 c 5,19,20
 64 510 64 510 161 510 c 5,21,22
 161 510 161 510 161 81 c 5,23,24
 161 81 161 81 350 81 c 5,0,1
EndSplineSet
Validated: 1
EndChar

StartChar: uni0449
Encoding: 1097 1097 300
Width: 816
Flags: W
LayerCount: 2
Fore
SplineSet
350 81 m 5,0,-1
 351 510 l 5,1,-1
 448 510 l 5,2,-1
 448 81 l 5,3,-1
 537 81 l 5,4,5
 562 112 562 112 637 208 c 5,6,-1
 637 510 l 5,7,-1
 734 510 l 5,8,-1
 734 189 l 5,9,-1
 651 85 l 5,10,-1
 734 0 l 5,11,-1
 638 0 l 5,12,-1
 608 31 l 5,13,-1
 583 0 l 5,14,-1
 64 0 l 5,15,-1
 64 510 l 5,16,-1
 161 510 l 5,17,-1
 161 81 l 5,18,-1
 350 81 l 5,0,-1
EndSplineSet
Validated: 1
EndChar

StartChar: uni044F
Encoding: 1103 1103 301
Width: 512
Flags: W
LayerCount: 2
Fore
SplineSet
449 510 m 5,0,-1
 449 0 l 5,1,-1
 350 0 l 5,2,-1
 350 213 l 5,3,4
 350 212 350 212 349 212 c 6,5,-1
 178 0 l 5,6,-1
 64 0 l 5,7,-1
 183 148 l 5,8,-1
 64 148 l 5,9,-1
 64 367 l 5,10,11
 92 403 92 403 178 510 c 5,12,-1
 449 510 l 5,0,-1
350 355 m 5,13,-1
 350 429 l 5,14,-1
 224 429 l 5,15,16
 208 410 208 410 161 350 c 5,17,-1
 161 230 l 5,18,-1
 250 230 l 5,19,-1
 350 355 l 5,13,-1
EndSplineSet
Validated: 1
EndChar

StartChar: uni0446
Encoding: 1094 1094 302
Width: 532
Flags: W
LayerCount: 2
Fore
SplineSet
164 510 m 5,0,-1
 164 81 l 5,1,-1
 253 81 l 5,2,3
 278 112 278 112 353 208 c 5,4,-1
 353 510 l 5,5,-1
 450 510 l 5,6,-1
 450 189 l 5,7,-1
 367 85 l 5,8,-1
 450 0 l 5,9,-1
 354 0 l 5,10,-1
 324 31 l 5,11,-1
 299 0 l 5,12,-1
 66 0 l 5,13,-1
 67 510 l 5,14,-1
 164 510 l 5,0,-1
EndSplineSet
Validated: 1
EndChar

StartChar: uni0414
Encoding: 1044 1044 303
Width: 686
Flags: W
LayerCount: 2
Fore
SplineSet
457 212 m 1,0,-1
 457 629 l 1,1,-1
 360 629 l 1,2,3
 278 524 278 524 251 489 c 1,4,-1
 251 212 l 1,5,-1
 457 212 l 1,0,-1
113 212 m 1,6,-1
 146 212 l 1,7,-1
 145 512 l 1,8,9
 269 666 269 666 310 717 c 1,10,11
 310 717 310 717 563 717 c 1,12,-1
 563 212 l 1,13,-1
 628 212 l 1,14,-1
 628 0 l 1,15,-1
 540 0 l 1,16,-1
 540 106 l 1,17,-1
 173 106 l 1,18,-1
 149 79 l 1,19,-1
 149 0 l 1,20,-1
 61 0 l 1,21,-1
 61 160 l 1,22,-1
 113 212 l 1,6,-1
EndSplineSet
Validated: 1
EndChar

StartChar: uni0434
Encoding: 1076 1076 304
Width: 650
Flags: W
LayerCount: 2
Fore
SplineSet
42 0 m 1,0,-1
 42 106 l 1,1,-1
 103 167 l 1,2,-1
 154 167 l 1,3,-1
 154 321 l 1,4,-1
 305 510 l 1,5,-1
 537 510 l 1,6,-1
 537 167 l 1,7,-1
 602 167 l 1,8,-1
 602 0 l 1,9,-1
 544 0 l 1,10,-1
 544 80 l 1,11,-1
 130 80 l 1,12,-1
 100 50 l 1,13,-1
 100 0 l 1,14,-1
 42 0 l 1,0,-1
440 167 m 1,15,-1
 440 429 l 1,16,-1
 351 429 l 1,17,18
 326 398 326 398 251 302 c 1,19,-1
 251 167 l 1,20,-1
 440 167 l 1,15,-1
EndSplineSet
Validated: 1
EndChar
